<?xml version="1.0" encoding="utf-8"?>
<!-- Generator: Adobe Illustrator 18.0.0, SVG Export Plug-In . SVG Version: 6.00 Build 0)  -->
<!DOCTYPE svg PUBLIC "-//W3C//DTD SVG 1.1//EN" "http://www.w3.org/Graphics/SVG/1.1/DTD/svg11.dtd">
<svg version="1.1" id="Layer_1" xmlns="http://www.w3.org/2000/svg" xmlns:xlink="http://www.w3.org/1999/xlink" x="0px" y="0px"
	 viewBox="0 0 17 6.7" enable-background="new 0 0 17 6.7" xml:space="preserve">
<g>
	<g>
		<path fill="#BFA63C" d="M11.5-43c0,0,0-0.1-0.5-0.3l-0.6,0.2l0.4,0.3c0,0,12.8,9.2,30.8,4.5l-0.1-0.4C25.5-34.6,13.7-41.5,11.5-43
			z"/>
	</g>
	<g>
		<path fill="#BFA63C" d="M11.4-42.7l0.1-0.4c0,0,3.7,1.2,9.3,1.8l0,0c5.6,0.6,13.2,0.6,21-1.8l0,0c3.7-1.1,7.4-2.8,11-5.2l0,0
			l0.3,0.4c-3.6,2.4-7.4,4.1-11.1,5.3l0,0C26.2-37.7,11.4-42.6,11.4-42.7L11.4-42.7z"/>
	</g>
	<g>
		<path fill="#BFA63C" d="M11.4-42.6l-0.2-0.5c0,0,9.2,2,21.1-1.7l0,0c3.3-1,6.9-2.5,10.6-4.6l0,0l0,0l0.2,0.4
			c-3.7,2.1-7.3,3.6-10.6,4.7l0,0C20.5-40.7,11.4-42.6,11.4-42.6L11.4-42.6z"/>
	</g>
	<g>
		<path fill="#BFA63C" d="M52.6-48.3c-0.1-0.4,0.2-0.7,0.5-0.8c0.4-0.1,0.7,0.2,0.8,0.6c0.1,0.4-0.2,0.7-0.5,0.8
			C53-47.7,52.7-47.9,52.6-48.3z"/>
	</g>
	<g>
		<path fill="#BFA63C" d="M41.2-38.6c-0.1-0.4,0.2-0.7,0.5-0.8c0.4-0.1,0.7,0.2,0.8,0.6c0.1,0.4-0.2,0.7-0.5,0.8
			C41.6-37.9,41.3-38.2,41.2-38.6z"/>
	</g>
	<g>
		<path fill="#BFA63C" d="M42.6-49.3c-0.1-0.4,0.2-0.7,0.5-0.8c0.4-0.1,0.7,0.2,0.8,0.6c0.1,0.4-0.2,0.7-0.5,0.8
			C43-48.6,42.7-48.9,42.6-49.3z"/>
	</g>
</g>
<g>
	<g>
		<path fill="#BFA63C" d="M46.7-67.8c0,0,0-0.1,0.5-0.3l0.6,0.2l-0.4,0.3c0,0-12.8,9.2-30.8,4.5l0.1-0.4
			C32.7-59.5,44.5-66.4,46.7-67.8z"/>
	</g>
	<g>
		<path fill="#BFA63C" d="M46.8-67.5l-0.1-0.4c0,0-3.7,1.2-9.3,1.8l0,0c-5.6,0.6-13.2,0.6-21-1.8l0,0c-3.7-1.1-7.4-2.8-11-5.2l0,0
			l-0.3,0.4c3.6,2.4,7.4,4.1,11.1,5.3l0,0C32-62.6,46.8-67.5,46.8-67.5L46.8-67.5z"/>
	</g>
	<g>
		<path fill="#BFA63C" d="M46.8-67.5L47-68c0,0-9.2,2-21.1-1.7l0,0c-3.3-1-6.9-2.5-10.6-4.6l0,0l0,0l-0.2,0.4
			c3.7,2.1,7.3,3.6,10.6,4.7l0,0C37.8-65.5,46.8-67.5,46.8-67.5L46.8-67.5z"/>
	</g>
	<g>
		<path fill="#BFA63C" d="M5.6-73.2c0.1-0.4-0.2-0.7-0.5-0.8c-0.4-0.1-0.7,0.2-0.8,0.6c-0.1,0.4,0.2,0.7,0.5,0.8
			C5.2-72.5,5.6-72.8,5.6-73.2z"/>
	</g>
	<g>
		<path fill="#BFA63C" d="M17-63.4c0.1-0.4-0.2-0.7-0.5-0.8c-0.4-0.1-0.7,0.2-0.8,0.6c-0.1,0.4,0.2,0.7,0.5,0.8
			C16.6-62.8,16.9-63,17-63.4z"/>
	</g>
	<g>
		<path fill="#BFA63C" d="M15.6-74.1c0.1-0.4-0.2-0.7-0.5-0.8c-0.4-0.1-0.7,0.2-0.8,0.6c-0.1,0.4,0.2,0.7,0.5,0.8
			C15.2-73.5,15.5-73.7,15.6-74.1z"/>
	</g>
</g>
<g>
	<g>
		<path fill="#BFA63C" d="M202.7-21.4c-0.4,0.1-0.7-0.2-0.8-0.5c-0.1-0.4,0.2-0.7,0.6-0.8c0.4-0.1,0.7,0.2,0.8,0.5
			C203.3-21.9,203.1-21.5,202.7-21.4z"/>
	</g>
	<g>
		<path fill="#BFA63C" d="M214.6-18.5c-0.4,0.1-0.7-0.2-0.8-0.5c-0.1-0.4,0.2-0.7,0.6-0.8c0.4-0.1,0.7,0.2,0.8,0.5
			C215.2-18.9,215-18.6,214.6-18.5z"/>
	</g>
	<g>
		<path fill="#BFA63C" d="M212.1-13.3c-0.4,0-0.7-0.3-0.7-0.7c0-0.4,0.3-0.6,0.7-0.6c0.4,0,0.7,0.3,0.7,0.7
			C212.8-13.6,212.5-13.3,212.1-13.3z"/>
	</g>
	<g>
		<path fill="#BFA63C" d="M212.2-14c-0.1,0-0.2,0-0.3,0.2c-0.5,2.4-2.5,2.8-4.8,2.3c-2-0.5-3.2-2.7-2.7-5c0.2-0.8,0.6-1.7,1.4-2.4
			c1.9-1.9,4.6-1.6,6-1.3c0.6,0.1,0.9,0.3,0.9,0.3c0,0,0.9,0.3,1.9,1.1c0-0.2,0.1-0.3,0.1-0.5c-1-0.7-1.8-1-1.9-1c0,0-0.4-0.1-1-0.3
			c-1.5-0.3-4.4-0.6-6.4,1.4c-0.8,0.8-1.3,1.7-1.5,2.6c-0.6,2.4,0.8,5,3.1,5.5c2.4,0.5,4.8,0,5.4-2.6
			C212.4-13.8,212.4-13.9,212.2-14z"/>
	</g>
	<g>
		<path fill="#BFA63C" d="M205.5-18.6c0,0-1.2,0.5-2.4,0.2l0,0c-0.6-0.1-1.1-0.4-1.5-1.1l0,0c-0.4-0.6-0.4-1.1-0.3-1.6l0,0
			c0.2-0.9,1.1-1.2,1.1-1.2l0,0c0.1,0,0.2,0,0.3,0.1l0,0c0,0.1,0,0.2-0.1,0.3l0,0c0,0-0.2,0.1-0.4,0.2l0,0c-0.2,0.1-0.4,0.4-0.5,0.7
			l0,0c-0.1,0.3,0,0.7,0.3,1.2l0,0c0.3,0.5,0.7,0.8,1.2,0.9l0,0c1,0.2,2.2-0.2,2.2-0.2l0,0l0,0c0.1,0,0.2,0,0.3,0.1l0,0
			c0,0,0,0.1,0,0.1l0,0C205.6-18.7,205.6-18.6,205.5-18.6L205.5-18.6z"/>
		<path fill="#BFA63C" d="M205.5-18.8C205.5-18.8,205.5-18.8,205.5-18.8L205.5-18.8c0-0.1,0-0.1-0.1-0.1l0,0c0,0,0,0,0,0l0,0
			c0,0,0,0-0.1,0l0,0c0,0-0.1,0-0.1,0l0,0c-0.1,0-0.3,0.1-0.5,0.1l0,0c-0.4,0.1-1,0.1-1.5,0l0,0c0,0,0,0,0,0l0,0
			c-0.5-0.1-1-0.4-1.3-0.9l0,0c-0.3-0.6-0.4-1-0.3-1.3l0,0c0,0,0,0,0,0l0,0l0,0l0,0c0.1-0.3,0.3-0.6,0.5-0.7l0,0
			c0.1-0.1,0.3-0.2,0.3-0.2l0,0l0,0l0.1,0c0,0,0.1,0,0.1-0.1l0,0c0,0,0,0,0-0.1l0,0c0,0,0-0.1-0.1-0.1l0,0c0,0,0,0,0,0l0,0
			c-0.1,0-0.1,0-0.2,0.1l0,0c-0.1,0-0.2,0.1-0.3,0.2l0,0c-0.2,0.2-0.5,0.5-0.6,0.9l0,0c-0.1,0.4,0,0.9,0.3,1.5l0,0
			c0.3,0.6,0.9,0.9,1.4,1l0,0c0,0,0,0,0,0l0,0l0,0.1l0-0.1C204.2-18.3,205.3-18.7,205.5-18.8L205.5-18.8L205.5-18.8
			C205.5-18.7,205.5-18.8,205.5-18.8L205.5-18.8z"/>
	</g>
</g>
<g>
	<g>
		<path fill="#BFA63C" d="M233.2-21.4c0.4,0.1,0.7-0.2,0.8-0.5c0.1-0.4-0.2-0.7-0.6-0.8c-0.4-0.1-0.7,0.2-0.8,0.5
			C232.5-21.9,232.8-21.5,233.2-21.4z"/>
	</g>
	<g>
		<path fill="#BFA63C" d="M221.2-18.5c0.4,0.1,0.7-0.2,0.8-0.5c0.1-0.4-0.2-0.7-0.6-0.8c-0.4-0.1-0.7,0.2-0.8,0.5
			C220.6-18.9,220.9-18.6,221.2-18.5z"/>
	</g>
	<g>
		<path fill="#BFA63C" d="M223.7-13.3c0.4,0,0.7-0.3,0.7-0.7c0-0.4-0.3-0.6-0.7-0.6c-0.4,0-0.7,0.3-0.7,0.7
			C223-13.6,223.3-13.3,223.7-13.3z"/>
	</g>
	<g>
		<path fill="#BFA63C" d="M223.6-14c0.1,0,0.2,0,0.3,0.2c0.5,2.4,2.5,2.8,4.8,2.3c2-0.5,3.2-2.7,2.7-5c-0.2-0.8-0.6-1.7-1.4-2.4
			c-1.9-1.9-4.6-1.6-6-1.3c-0.6,0.1-0.9,0.3-0.9,0.3c0,0-0.9,0.3-1.9,1.1c0-0.2-0.1-0.3-0.1-0.5c1-0.7,1.8-1,1.9-1
			c0,0,0.4-0.1,1-0.3c1.5-0.3,4.4-0.6,6.4,1.4c0.8,0.8,1.3,1.7,1.5,2.6c0.6,2.4-0.8,5-3.1,5.5c-2.4,0.5-4.8,0-5.4-2.6
			C223.4-13.8,223.5-13.9,223.6-14z"/>
	</g>
	<g>
		<path fill="#BFA63C" d="M230.4-18.6c0,0,1.2,0.5,2.4,0.2l0,0c0.6-0.1,1.1-0.4,1.5-1.1l0,0c0.4-0.6,0.4-1.1,0.3-1.6l0,0
			c-0.2-0.9-1.1-1.2-1.1-1.2l0,0c-0.1,0-0.2,0-0.3,0.1l0,0c0,0.1,0,0.2,0.1,0.3l0,0c0,0,0.2,0.1,0.4,0.2l0,0
			c0.2,0.1,0.4,0.4,0.5,0.7l0,0c0.1,0.3,0,0.7-0.3,1.2l0,0c-0.3,0.5-0.7,0.8-1.2,0.9l0,0c-1,0.2-2.2-0.2-2.2-0.2l0,0v0
			c-0.1,0-0.2,0-0.3,0.1l0,0c0,0,0,0.1,0,0.1l0,0C230.3-18.7,230.3-18.6,230.4-18.6L230.4-18.6z"/>
		<path fill="#BFA63C" d="M230.4-18.8C230.4-18.8,230.4-18.7,230.4-18.8L230.4-18.8L230.4-18.8c0.2,0.1,1.3,0.5,2.4,0.3l0,0.1l0-0.1
			l0,0c0,0,0,0,0,0l0,0c0.5-0.1,1.1-0.4,1.4-1l0,0c0.4-0.6,0.4-1.1,0.3-1.5l0,0c-0.1-0.4-0.3-0.7-0.6-0.9l0,0
			c-0.1-0.1-0.2-0.2-0.3-0.2l0,0c-0.1-0.1-0.1,0-0.2-0.1l0,0c0,0,0,0,0,0l0,0c0,0-0.1,0-0.1,0.1l0,0c0,0,0,0,0,0.1l0,0
			c0,0,0,0.1,0.1,0.1l0.1,0l0,0l0,0c0.1,0,0.2,0.1,0.3,0.2l0,0c0.2,0.2,0.4,0.4,0.5,0.7l0,0l0,0l0,0c0,0,0,0,0,0l0,0
			c0.1,0.3,0,0.7-0.3,1.3l0,0c-0.3,0.5-0.8,0.8-1.3,0.9l0,0c0,0,0,0,0,0l0,0c-0.5,0.1-1.1,0.1-1.5,0l0,0c-0.2,0-0.4-0.1-0.5-0.1l0,0
			c-0.1,0-0.1,0-0.2,0l0,0c0,0,0,0-0.1,0l0,0c0,0,0,0,0,0l0,0C230.4-18.9,230.4-18.9,230.4-18.8L230.4-18.8
			C230.4-18.8,230.4-18.8,230.4-18.8L230.4-18.8z"/>
	</g>
</g>
<g>
	<circle fill="none" stroke="#BFA63C" stroke-width="0.5" stroke-miterlimit="10" cx="4" cy="3.3" r="0.9"/>
	<circle fill="none" stroke="#BFA63C" stroke-width="0.5" stroke-miterlimit="10" cx="8.5" cy="3.3" r="0.9"/>
	<circle fill="none" stroke="#BFA63C" stroke-width="0.5" stroke-miterlimit="10" cx="13.1" cy="3.3" r="0.9"/>
</g>
</svg>
