<?xml version="1.0" encoding="utf-8"?>
<!-- Generator: Adobe Illustrator 18.0.0, SVG Export Plug-In . SVG Version: 6.00 Build 0)  -->
<!DOCTYPE svg PUBLIC "-//W3C//DTD SVG 1.1//EN" "http://www.w3.org/Graphics/SVG/1.1/DTD/svg11.dtd">
<svg version="1.1" id="Layer_1" xmlns="http://www.w3.org/2000/svg" xmlns:xlink="http://www.w3.org/1999/xlink" x="0px" y="0px"
	 viewBox="0 0 14 11.9" enable-background="new 0 0 14 11.9" xml:space="preserve">
<g>
	<g>
		<path fill="#BFA63C" d="M1.5,1.3C1.2,1.4,0.8,1.1,0.7,0.8C0.7,0.4,0.9,0.1,1.3,0C1.7-0.1,2,0.2,2.1,0.5C2.1,0.9,1.9,1.2,1.5,1.3z"
			/>
	</g>
	<g>
		<path fill="#BFA63C" d="M13.5,4.3c-0.4,0.1-0.7-0.2-0.8-0.5c-0.1-0.4,0.2-0.7,0.6-0.8C13.6,2.9,14,3.1,14,3.5
			C14.1,3.8,13.8,4.2,13.5,4.3z"/>
	</g>
	<g>
		<path fill="#BFA63C" d="M11,9.5c-0.4,0-0.7-0.3-0.7-0.7c0-0.4,0.3-0.6,0.7-0.6c0.4,0,0.7,0.3,0.7,0.7C11.7,9.2,11.4,9.5,11,9.5z"
			/>
	</g>
	<g>
		<path fill="#BFA63C" d="M11.1,8.8c-0.1,0-0.2,0-0.3,0.2c-0.5,2.4-2.5,2.8-4.8,2.3c-2-0.5-3.2-2.7-2.7-5c0.2-0.8,0.6-1.7,1.4-2.4
			c1.9-1.9,4.6-1.6,6-1.3c0.6,0.1,0.9,0.3,0.9,0.3c0,0,0.9,0.3,1.9,1.1c0-0.2,0.1-0.3,0.1-0.5c-1-0.7-1.8-1-1.9-1c0,0-0.4-0.1-1-0.3
			C9.3,1.8,6.4,1.5,4.3,3.6C3.5,4.4,3,5.3,2.8,6.2c-0.6,2.4,0.8,5,3.1,5.5c2.4,0.5,4.8,0,5.4-2.6C11.3,9,11.2,8.8,11.1,8.8z"/>
	</g>
	<g>
		<path fill="#BFA63C" d="M4.3,4.2c0,0-1.2,0.5-2.4,0.2l0,0C1.3,4.3,0.7,3.9,0.4,3.3l0,0C0,2.7-0.1,2.2,0,1.8l0,0
			c0.2-0.9,1.1-1.2,1.1-1.2l0,0c0.1,0,0.2,0,0.3,0.1l0,0c0,0.1,0,0.2-0.1,0.3l0,0c0,0-0.2,0.1-0.4,0.2l0,0C0.7,1.3,0.5,1.5,0.5,1.9
			l0,0c-0.1,0.3,0,0.7,0.3,1.2l0,0C1.1,3.6,1.5,3.8,2,4l0,0c1,0.2,2.2-0.2,2.2-0.2l0,0l0,0c0.1,0,0.2,0,0.3,0.1l0,0c0,0,0,0.1,0,0.1
			l0,0C4.4,4.1,4.4,4.1,4.3,4.2L4.3,4.2z"/>
		<path fill="#BFA63C" d="M4.3,4C4.3,4,4.3,3.9,4.3,4L4.3,4c0-0.1,0-0.1-0.1-0.1l0,0c0,0,0,0,0,0l0,0c0,0,0,0-0.1,0l0,0
			c0,0-0.1,0-0.1,0l0,0C3.9,4,3.7,4,3.5,4.1l0,0c-0.4,0.1-1,0.1-1.5,0l0,0c0,0,0,0,0,0l0,0C1.5,4,1,3.7,0.7,3.2l0,0
			c-0.3-0.6-0.4-1-0.3-1.3l0,0c0,0,0,0,0,0l0,0l0,0l0,0c0.1-0.3,0.3-0.6,0.5-0.7l0,0C1,1,1.1,0.9,1.2,0.8l0,0l0,0l0.1,0
			c0,0,0.1,0,0.1-0.1l0,0c0,0,0,0,0-0.1l0,0c0,0,0-0.1-0.1-0.1l0,0c0,0,0,0,0,0l0,0c-0.1,0-0.1,0-0.2,0.1l0,0C1,0.7,0.8,0.8,0.7,0.9
			l0,0C0.5,1.1,0.3,1.4,0.2,1.8l0,0c-0.1,0.4,0,0.9,0.3,1.5l0,0c0.3,0.6,0.9,0.9,1.4,1l0,0c0,0,0,0,0,0l0,0l0,0.1l0-0.1
			C3,4.5,4.1,4.1,4.3,4L4.3,4L4.3,4C4.3,4,4.3,4,4.3,4L4.3,4z"/>
	</g>
</g>
</svg>
