<?xml version="1.0" encoding="utf-8"?>
<!-- Generator: Adobe Illustrator 18.0.0, SVG Export Plug-In . SVG Version: 6.00 Build 0)  -->
<!DOCTYPE svg PUBLIC "-//W3C//DTD SVG 1.1//EN" "http://www.w3.org/Graphics/SVG/1.1/DTD/svg11.dtd">
<svg version="1.1" id="Layer_1" xmlns="http://www.w3.org/2000/svg" xmlns:xlink="http://www.w3.org/1999/xlink" x="0px" y="0px"
	 viewBox="0 0 51.3 26" enable-background="new 0 0 51.3 26" xml:space="preserve">
<g>
	<g>
		<path fill="#BFA63C" d="M91-25.8c0,0,0-0.1-0.5-0.3L90-25.9l0.4,0.3c0,0,12.8,9.2,30.8,4.5l-0.1-0.4C105.1-17.4,93.3-24.3,91-25.8
			z"/>
	</g>
	<g>
		<path fill="#BFA63C" d="M90.9-25.5l0.1-0.4c0,0,3.7,1.2,9.3,1.8l0,0c5.6,0.6,13.2,0.6,21-1.8l0,0c3.7-1.1,7.4-2.8,11-5.2l0,0
			l0.3,0.4c-3.6,2.4-7.4,4.1-11.1,5.3l0,0C105.7-20.5,90.9-25.5,90.9-25.5L90.9-25.5z"/>
	</g>
	<g>
		<path fill="#BFA63C" d="M90.9-25.5L90.8-26c0,0,9.2,2,21.1-1.7l0,0c3.3-1,6.9-2.5,10.6-4.6l0,0l0,0l0.2,0.4
			c-3.7,2.1-7.3,3.6-10.6,4.7l0,0C100-23.5,91-25.5,90.9-25.5L90.9-25.5z"/>
	</g>
	<g>
		<path fill="#BFA63C" d="M132.1-31.1c-0.1-0.4,0.2-0.7,0.5-0.8c0.4-0.1,0.7,0.2,0.8,0.6c0.1,0.4-0.2,0.7-0.5,0.8
			C132.5-30.5,132.2-30.8,132.1-31.1z"/>
	</g>
	<g>
		<path fill="#BFA63C" d="M120.7-21.4c-0.1-0.4,0.2-0.7,0.5-0.8c0.4-0.1,0.7,0.2,0.8,0.6c0.1,0.4-0.2,0.7-0.5,0.8
			C121.1-20.8,120.8-21,120.7-21.4z"/>
	</g>
	<g>
		<path fill="#BFA63C" d="M122.2-32.1c-0.1-0.4,0.2-0.7,0.5-0.8c0.4-0.1,0.7,0.2,0.8,0.6c0.1,0.4-0.2,0.7-0.5,0.8
			C122.6-31.5,122.2-31.7,122.2-32.1z"/>
	</g>
</g>
<g>
	<g>
		<path fill="#BFA63C" d="M46.8,12.8c0,0,0-0.1,0.5-0.3l0.6,0.2L47.4,13c0,0-12.8,9.2-30.8,4.5l0.1-0.4
			C32.7,21.2,44.5,14.3,46.8,12.8z"/>
	</g>
	<g>
		<path fill="#BFA63C" d="M46.9,13.1l-0.1-0.4c0,0-3.7,1.2-9.3,1.8l0,0c-5.6,0.6-13.2,0.6-21-1.8l0,0c-3.7-1.1-7.4-2.8-11-5.2l0,0
			L5.2,7.9c3.6,2.4,7.4,4.1,11.1,5.3l0,0C32.1,18.1,46.8,13.2,46.9,13.1L46.9,13.1z"/>
	</g>
	<g>
		<path fill="#BFA63C" d="M46.8,13.2l0.2-0.5c0,0-9.2,2-21.1-1.7l0,0c-3.3-1-6.9-2.5-10.6-4.6l0,0l0,0l-0.2,0.4
			c3.7,2.1,7.3,3.6,10.6,4.7l0,0C37.8,15.1,46.8,13.2,46.8,13.2L46.8,13.2z"/>
	</g>
	<g>
		<path fill="#BFA63C" d="M5.7,7.5c0.1-0.4-0.2-0.7-0.5-0.8C4.8,6.6,4.4,6.9,4.4,7.3C4.3,7.6,4.5,8,4.9,8C5.3,8.1,5.6,7.9,5.7,7.5z"
			/>
	</g>
	<g>
		<path fill="#BFA63C" d="M17,17.2c0.1-0.4-0.2-0.7-0.5-0.8c-0.4-0.1-0.7,0.2-0.8,0.6c-0.1,0.4,0.2,0.7,0.5,0.8
			C16.6,17.8,17,17.6,17,17.2z"/>
	</g>
	<g>
		<path fill="#BFA63C" d="M15.6,6.5c0.1-0.4-0.2-0.7-0.5-0.8c-0.4-0.1-0.7,0.2-0.8,0.6c-0.1,0.4,0.2,0.7,0.5,0.8
			C15.2,7.2,15.6,6.9,15.6,6.5z"/>
	</g>
</g>
<g>
	<g>
		<path fill="#BFA63C" d="M202.7-21.4c-0.4,0.1-0.7-0.2-0.8-0.5c-0.1-0.4,0.2-0.7,0.6-0.8c0.4-0.1,0.7,0.2,0.8,0.5
			C203.3-21.9,203.1-21.5,202.7-21.4z"/>
	</g>
	<g>
		<path fill="#BFA63C" d="M214.6-18.5c-0.4,0.1-0.7-0.2-0.8-0.5c-0.1-0.4,0.2-0.7,0.6-0.8c0.4-0.1,0.7,0.2,0.8,0.5
			C215.2-18.9,215-18.6,214.6-18.5z"/>
	</g>
	<g>
		<path fill="#BFA63C" d="M212.1-13.3c-0.4,0-0.7-0.3-0.7-0.7c0-0.4,0.3-0.6,0.7-0.6c0.4,0,0.7,0.3,0.7,0.7
			C212.8-13.6,212.5-13.3,212.1-13.3z"/>
	</g>
	<g>
		<path fill="#BFA63C" d="M212.2-14c-0.1,0-0.2,0-0.3,0.2c-0.5,2.4-2.5,2.8-4.8,2.3c-2-0.5-3.2-2.7-2.7-5c0.2-0.8,0.6-1.7,1.4-2.4
			c1.9-1.9,4.6-1.6,6-1.3c0.6,0.1,0.9,0.3,0.9,0.3c0,0,0.9,0.3,1.9,1.1c0-0.2,0.1-0.3,0.1-0.5c-1-0.7-1.8-1-1.9-1c0,0-0.4-0.1-1-0.3
			c-1.5-0.3-4.4-0.6-6.4,1.4c-0.8,0.8-1.3,1.7-1.5,2.6c-0.6,2.4,0.8,5,3.1,5.5c2.4,0.5,4.8,0,5.4-2.6
			C212.4-13.8,212.4-13.9,212.2-14z"/>
	</g>
	<g>
		<path fill="#BFA63C" d="M205.5-18.6c0,0-1.2,0.5-2.4,0.2l0,0c-0.6-0.1-1.1-0.4-1.5-1.1l0,0c-0.4-0.6-0.4-1.1-0.3-1.6l0,0
			c0.2-0.9,1.1-1.2,1.1-1.2l0,0c0.1,0,0.2,0,0.3,0.1l0,0c0,0.1,0,0.2-0.1,0.3l0,0c0,0-0.2,0.1-0.4,0.2l0,0c-0.2,0.1-0.4,0.4-0.5,0.7
			l0,0c-0.1,0.3,0,0.7,0.3,1.2l0,0c0.3,0.5,0.7,0.8,1.2,0.9l0,0c1,0.2,2.2-0.2,2.2-0.2l0,0l0,0c0.1,0,0.2,0,0.3,0.1l0,0
			c0,0,0,0.1,0,0.1l0,0C205.6-18.7,205.6-18.6,205.5-18.6L205.5-18.6z"/>
		<path fill="#BFA63C" d="M205.5-18.8C205.5-18.8,205.5-18.8,205.5-18.8L205.5-18.8c0-0.1,0-0.1-0.1-0.1l0,0c0,0,0,0,0,0l0,0
			c0,0,0,0-0.1,0l0,0c0,0-0.1,0-0.1,0l0,0c-0.1,0-0.3,0.1-0.5,0.1l0,0c-0.4,0.1-1,0.1-1.5,0l0,0c0,0,0,0,0,0l0,0
			c-0.5-0.1-1-0.4-1.3-0.9l0,0c-0.3-0.6-0.4-1-0.3-1.3l0,0c0,0,0,0,0,0l0,0l0,0l0,0c0.1-0.3,0.3-0.6,0.5-0.7l0,0
			c0.1-0.1,0.3-0.2,0.3-0.2l0,0l0,0l0.1,0c0,0,0.1,0,0.1-0.1l0,0c0,0,0,0,0-0.1l0,0c0,0,0-0.1-0.1-0.1l0,0c0,0,0,0,0,0l0,0
			c-0.1,0-0.1,0-0.2,0.1l0,0c-0.1,0-0.2,0.1-0.3,0.2l0,0c-0.2,0.2-0.5,0.5-0.6,0.9l0,0c-0.1,0.4,0,0.9,0.3,1.5l0,0
			c0.3,0.6,0.9,0.9,1.4,1l0,0c0,0,0,0,0,0l0,0l0,0.1l0-0.1C204.2-18.3,205.3-18.7,205.5-18.8L205.5-18.8L205.5-18.8
			C205.5-18.7,205.5-18.8,205.5-18.8L205.5-18.8z"/>
	</g>
</g>
<g>
	<g>
		<path fill="#BFA63C" d="M233.2-21.4c0.4,0.1,0.7-0.2,0.8-0.5c0.1-0.4-0.2-0.7-0.6-0.8c-0.4-0.1-0.7,0.2-0.8,0.5
			C232.5-21.9,232.8-21.5,233.2-21.4z"/>
	</g>
	<g>
		<path fill="#BFA63C" d="M221.2-18.5c0.4,0.1,0.7-0.2,0.8-0.5c0.1-0.4-0.2-0.7-0.6-0.8c-0.4-0.1-0.7,0.2-0.8,0.5
			C220.6-18.9,220.9-18.6,221.2-18.5z"/>
	</g>
	<g>
		<path fill="#BFA63C" d="M223.7-13.3c0.4,0,0.7-0.3,0.7-0.7c0-0.4-0.3-0.6-0.7-0.6c-0.4,0-0.7,0.3-0.7,0.7
			C223-13.6,223.3-13.3,223.7-13.3z"/>
	</g>
	<g>
		<path fill="#BFA63C" d="M223.6-14c0.1,0,0.2,0,0.3,0.2c0.5,2.4,2.5,2.8,4.8,2.3c2-0.5,3.2-2.7,2.7-5c-0.2-0.8-0.6-1.7-1.4-2.4
			c-1.9-1.9-4.6-1.6-6-1.3c-0.6,0.1-0.9,0.3-0.9,0.3c0,0-0.9,0.3-1.9,1.1c0-0.2-0.1-0.3-0.1-0.5c1-0.7,1.8-1,1.9-1
			c0,0,0.4-0.1,1-0.3c1.5-0.3,4.4-0.6,6.4,1.4c0.8,0.8,1.3,1.7,1.5,2.6c0.6,2.4-0.8,5-3.1,5.5c-2.4,0.5-4.8,0-5.4-2.6
			C223.4-13.8,223.5-13.9,223.6-14z"/>
	</g>
	<g>
		<path fill="#BFA63C" d="M230.4-18.6c0,0,1.2,0.5,2.4,0.2l0,0c0.6-0.1,1.1-0.4,1.5-1.1l0,0c0.4-0.6,0.4-1.1,0.3-1.6l0,0
			c-0.2-0.9-1.1-1.2-1.1-1.2l0,0c-0.1,0-0.2,0-0.3,0.1l0,0c0,0.1,0,0.2,0.1,0.3l0,0c0,0,0.2,0.1,0.4,0.2l0,0
			c0.2,0.1,0.4,0.4,0.5,0.7l0,0c0.1,0.3,0,0.7-0.3,1.2l0,0c-0.3,0.5-0.7,0.8-1.2,0.9l0,0c-1,0.2-2.2-0.2-2.2-0.2l0,0v0
			c-0.1,0-0.2,0-0.3,0.1l0,0c0,0,0,0.1,0,0.1l0,0C230.3-18.7,230.3-18.6,230.4-18.6L230.4-18.6z"/>
		<path fill="#BFA63C" d="M230.4-18.8C230.4-18.8,230.4-18.7,230.4-18.8L230.4-18.8L230.4-18.8c0.2,0.1,1.3,0.5,2.4,0.3l0,0.1l0-0.1
			l0,0c0,0,0,0,0,0l0,0c0.5-0.1,1.1-0.4,1.4-1l0,0c0.4-0.6,0.4-1.1,0.3-1.5l0,0c-0.1-0.4-0.3-0.7-0.6-0.9l0,0
			c-0.1-0.1-0.2-0.2-0.3-0.2l0,0c-0.1-0.1-0.1,0-0.2-0.1l0,0c0,0,0,0,0,0l0,0c0,0-0.1,0-0.1,0.1l0,0c0,0,0,0,0,0.1l0,0
			c0,0,0,0.1,0.1,0.1l0.1,0l0,0l0,0c0.1,0,0.2,0.1,0.3,0.2l0,0c0.2,0.2,0.4,0.4,0.5,0.7l0,0l0,0l0,0c0,0,0,0,0,0l0,0
			c0.1,0.3,0,0.7-0.3,1.3l0,0c-0.3,0.5-0.8,0.8-1.3,0.9l0,0c0,0,0,0,0,0l0,0c-0.5,0.1-1.1,0.1-1.5,0l0,0c-0.2,0-0.4-0.1-0.5-0.1l0,0
			c-0.1,0-0.1,0-0.2,0l0,0c0,0,0,0-0.1,0l0,0c0,0,0,0,0,0l0,0C230.4-18.9,230.4-18.9,230.4-18.8L230.4-18.8
			C230.4-18.8,230.4-18.8,230.4-18.8L230.4-18.8z"/>
	</g>
</g>
<g>
	<circle fill="none" stroke="#BFA63C" stroke-miterlimit="10" cx="160.8" cy="-13.3" r="0.9"/>
	<circle fill="none" stroke="#BFA63C" stroke-miterlimit="10" cx="165.4" cy="-13.3" r="0.9"/>
	<circle fill="none" stroke="#BFA63C" stroke-miterlimit="10" cx="169.9" cy="-13.3" r="0.9"/>
</g>
</svg>
