<?xml version="1.0" encoding="utf-8"?>
<!-- Generator: Adobe Illustrator 18.0.0, SVG Export Plug-In . SVG Version: 6.00 Build 0)  -->
<!DOCTYPE svg PUBLIC "-//W3C//DTD SVG 1.1//EN" "http://www.w3.org/Graphics/SVG/1.1/DTD/svg11.dtd">
<svg version="1.1" id="Layer_1" xmlns="http://www.w3.org/2000/svg" xmlns:xlink="http://www.w3.org/1999/xlink" x="0px" y="0px"
	 viewBox="0 0 90 87.5" enable-background="new 0 0 90 87.5" xml:space="preserve">
<g>
	<defs>
		<rect id="SVGID_1_" x="3" y="3" width="90" height="87.5"/>
	</defs>
	<clipPath id="SVGID_2_">
		<use xlink:href="#SVGID_1_"  overflow="visible"/>
	</clipPath>
	<g clip-path="url(#SVGID_2_)">
		<defs>
			<rect id="SVGID_3_" x="3" y="3" width="666.1" height="468.9"/>
		</defs>
		<clipPath id="SVGID_4_">
			<use xlink:href="#SVGID_3_"  overflow="visible"/>
		</clipPath>
		<path clip-path="url(#SVGID_4_)" fill="none" stroke="#BFA63C" stroke-width="0.494" stroke-miterlimit="10" d="M661.6,1007.6
			c0,5.9-4.8,10.7-10.7,10.7H21.2c-5.9,0-10.7-4.8-10.7-10.7V21.2c0-5.9,4.8-10.7,10.7-10.7h629.7c5.9,0,10.7,4.8,10.7,10.7V1007.6z
			"/>
		<path clip-path="url(#SVGID_4_)" fill="#FFFFFF" d="M35.8,1018.3c0,0.3-0.3,0.6-0.6,0.6c-0.3,0-0.6-0.3-0.6-0.6
			c0-0.3,0.3-0.6,0.6-0.6C35.6,1017.7,35.8,1017.9,35.8,1018.3"/>
		<path clip-path="url(#SVGID_4_)" fill="none" stroke="#BFA63C" stroke-width="0.247" stroke-miterlimit="10" d="M35.8,1018.3
			c0,0.3-0.3,0.6-0.6,0.6c-0.3,0-0.6-0.3-0.6-0.6c0-0.3,0.3-0.6,0.6-0.6C35.6,1017.7,35.8,1017.9,35.8,1018.3z"/>
		<path clip-path="url(#SVGID_4_)" fill="#BFA63C" d="M8.5,6.4c1,2.4,1.6,5,2.1,7.5c0.5,2.5,0.8,5,1.5,7.4c0.7,2.4,1.7,4.7,3.4,6.6
			c0.9,0.9,1.9,1.7,3,2.3c0.6,0.3,1.1,0.6,1.7,0.8c0.6,0.3,1.2,0.4,2,0c0.6-0.3,1.3-0.1,1.7,0.5c0.3,0.6,0.1,1.3-0.5,1.7
			c-0.6,0.3-1.3,0.1-1.7-0.5c0,0,0,0,0,0l0,0c-0.4-0.8-1-1.1-1.6-1.4c-0.6-0.3-1.2-0.5-1.7-0.9c-1.1-0.6-2.2-1.3-3.1-2.2
			c-1.9-1.7-3.2-4.1-4-6.5c-0.8-2.5-1.2-5-1.8-7.5C9,11.6,8.3,9.2,7.3,6.9C7.2,6.6,7.3,6.2,7.6,6C8,5.9,8.4,6,8.5,6.4
			C8.5,6.4,8.5,6.4,8.5,6.4L8.5,6.4z"/>
		<path clip-path="url(#SVGID_4_)" fill="#BFA63C" d="M8.3,5.9c2.4,1,4.6,2.4,6.7,3.8c2.1,1.4,4.1,3,6.3,4.2
			c2.2,1.2,4.6,2.1,7.1,2.2c1.3,0,2.5-0.1,3.7-0.5c0.6-0.2,1.2-0.4,1.8-0.6c0.6-0.2,1.1-0.6,1.4-1.4c0.2-0.6,0.9-1,1.5-0.8
			c0.7,0.2,1,0.9,0.8,1.5c-0.2,0.7-0.9,1-1.5,0.8c0,0,0,0,0,0l0,0c-0.9-0.3-1.5-0.1-2.1,0.1c-0.6,0.2-1.2,0.4-1.8,0.6
			c-1.2,0.3-2.5,0.6-3.8,0.6c-2.6,0.1-5.2-0.6-7.5-1.8c-2.3-1.2-4.4-2.6-6.5-4C12.3,9.3,10.1,8,7.8,7.2C7.4,7.1,7.3,6.7,7.4,6.3
			C7.5,6,7.9,5.8,8.3,5.9C8.2,5.9,8.3,5.9,8.3,5.9L8.3,5.9z"/>
		<path clip-path="url(#SVGID_4_)" fill="#BFA63C" d="M8.5,6.2c1.7,2,3,4.2,4.2,6.5c1.2,2.2,2.3,4.5,3.7,6.6c1.4,2.1,3.1,4,5.3,5.2
			c1.1,0.6,2.3,1,3.5,1.3c0.6,0.1,1.2,0.2,1.9,0.3c0.6,0.1,1.3,0,1.9-0.6c0.5-0.5,1.2-0.5,1.7-0.1c0.5,0.5,0.5,1.2,0.1,1.7
			c-0.5,0.5-1.2,0.5-1.7,0.1c0,0,0,0,0,0l0,0c-0.7-0.7-1.3-0.8-1.9-0.8c-0.6-0.1-1.3-0.2-1.9-0.3c-1.3-0.3-2.5-0.6-3.7-1.2
			c-2.3-1.1-4.3-2.9-5.8-5c-1.5-2.1-2.7-4.4-4-6.6C10.5,11,9.1,8.9,7.5,7.1c-0.2-0.3-0.2-0.7,0-0.9C7.8,5.9,8.2,5.9,8.5,6.2
			C8.5,6.2,8.5,6.2,8.5,6.2L8.5,6.2z"/>
		<path clip-path="url(#SVGID_4_)" fill="#BFA63C" d="M7.3,6.8c0.8,2.5,2,4.8,3.3,7c1.3,2.2,2.7,4.3,3.7,6.6
			c1.1,2.2,1.8,4.7,1.7,7.2c-0.1,1.3-0.3,2.5-0.7,3.7c-0.2,0.6-0.5,1.2-0.8,1.7c-0.3,0.6-0.7,1.1-1.5,1.3c-0.7,0.1-1.1,0.8-0.9,1.5
			c0.1,0.7,0.8,1.1,1.5,0.9c0.7-0.1,1.1-0.8,0.9-1.5c0,0,0,0,0,0l0,0c-0.2-0.9,0-1.5,0.3-2.1c0.3-0.6,0.5-1.2,0.7-1.8
			c0.4-1.2,0.8-2.4,0.9-3.7c0.3-2.6-0.2-5.2-1.2-7.6c-1-2.4-2.3-4.6-3.5-6.8c-1.2-2.2-2.3-4.5-3-6.9C8.5,6.1,8.1,5.9,7.8,6
			C7.4,6.1,7.2,6.5,7.3,6.8C7.3,6.8,7.3,6.8,7.3,6.8L7.3,6.8z"/>
		<path clip-path="url(#SVGID_4_)" fill="#BFA63C" d="M7.7,7.1c2.3,1.2,4.8,2,7.3,2.6c2.5,0.6,4.9,1.2,7.3,2.1
			c2.3,0.8,4.6,2,6.3,3.9c0.8,0.9,1.6,2,2.1,3.1c0.3,0.6,0.5,1.2,0.7,1.8c0.2,0.6,0.3,1.2-0.2,2c-0.4,0.6-0.2,1.3,0.4,1.7
			c0.6,0.4,1.3,0.2,1.7-0.4c0.4-0.6,0.2-1.3-0.4-1.7c0,0,0,0,0,0l0,0c-0.8-0.5-1.1-1-1.3-1.7c-0.2-0.6-0.5-1.2-0.7-1.8
			c-0.5-1.2-1.2-2.3-2-3.3c-1.6-2-3.8-3.5-6.2-4.5c-2.4-1-4.9-1.6-7.3-2.3c-2.4-0.7-4.8-1.5-7-2.7C8,5.8,7.6,5.9,7.4,6.2
			C7.3,6.5,7.4,6.9,7.7,7.1C7.7,7.1,7.7,7.1,7.7,7.1L7.7,7.1z"/>
		<path clip-path="url(#SVGID_4_)" fill="#BFA63C" d="M7.5,7.1c1.8,1.8,4,3.3,6.2,4.7c2.2,1.4,4.3,2.6,6.3,4.2
			c2,1.5,3.8,3.3,4.8,5.6c0.5,1.1,0.9,2.4,1,3.6c0.1,0.6,0.1,1.3,0.1,1.9c0,0.6-0.1,1.3-0.8,1.8c-0.5,0.4-0.6,1.2-0.2,1.7
			c0.4,0.5,1.2,0.6,1.7,0.2c0.5-0.4,0.6-1.2,0.2-1.7c0,0,0,0,0,0l0,0c-0.6-0.7-0.7-1.3-0.7-2c0-0.6-0.1-1.3-0.2-1.9
			c-0.2-1.3-0.4-2.5-0.9-3.7c-0.9-2.4-2.6-4.5-4.6-6.2c-2-1.7-4.2-3-6.3-4.4c-2.1-1.4-4.1-2.9-5.8-4.7c-0.3-0.3-0.7-0.3-0.9,0
			C7.3,6.3,7.3,6.8,7.5,7.1C7.5,7,7.5,7,7.5,7.1L7.5,7.1z"/>
		<path clip-path="url(#SVGID_4_)" fill="#FFFFFF" d="M36.1,10.5c0,0.5-0.4,0.8-0.8,0.8c-0.5,0-0.8-0.4-0.8-0.8
			c0-0.5,0.4-0.8,0.8-0.8C35.8,9.7,36.1,10,36.1,10.5"/>
		
			<circle clip-path="url(#SVGID_4_)" fill="none" stroke="#BFA63C" stroke-width="0.741" stroke-miterlimit="10" cx="35.3" cy="10.5" r="0.8"/>
		<path clip-path="url(#SVGID_4_)" fill="#BFA63C" d="M52.9,10.5c0,0.5-0.4,1-1,1c-0.5,0-1-0.4-1-1c0-0.5,0.4-1,1-1
			C52.4,9.5,52.9,10,52.9,10.5"/>
		
			<circle clip-path="url(#SVGID_4_)" fill="none" stroke="#BFA63C" stroke-width="0.494" stroke-miterlimit="10" cx="51.9" cy="10.5" r="1"/>
		<path clip-path="url(#SVGID_4_)" fill="#BFA63C" d="M56.6,10.5c0,0.5-0.4,1-1,1c-0.5,0-1-0.4-1-1c0-0.5,0.4-1,1-1
			C56.2,9.5,56.6,10,56.6,10.5"/>
		
			<circle clip-path="url(#SVGID_4_)" fill="none" stroke="#BFA63C" stroke-width="0.494" stroke-miterlimit="10" cx="55.7" cy="10.5" r="1"/>
		<path clip-path="url(#SVGID_4_)" fill="#BFA63C" d="M49.1,10.5c0,0.5-0.4,1-1,1s-1-0.4-1-1c0-0.5,0.4-1,1-1S49.1,10,49.1,10.5"/>
		
			<circle clip-path="url(#SVGID_4_)" fill="none" stroke="#BFA63C" stroke-width="0.494" stroke-miterlimit="10" cx="48.1" cy="10.5" r="1"/>
		<path clip-path="url(#SVGID_4_)" fill="#FFFFFF" d="M10.4,34.2c-0.5,0-0.8-0.4-0.8-0.8c0-0.5,0.4-0.8,0.8-0.8
			c0.5,0,0.8,0.4,0.8,0.8C11.2,33.8,10.8,34.2,10.4,34.2"/>
		
			<circle clip-path="url(#SVGID_4_)" fill="none" stroke="#BFA63C" stroke-width="0.741" stroke-miterlimit="10" cx="10.4" cy="33.4" r="0.8"/>
		<path clip-path="url(#SVGID_4_)" fill="#BFA63C" d="M10.4,50.9c-0.5,0-1-0.4-1-1c0-0.5,0.4-1,1-1c0.5,0,1,0.4,1,1
			C11.4,50.5,10.9,50.9,10.4,50.9"/>
		
			<circle clip-path="url(#SVGID_4_)" fill="none" stroke="#BFA63C" stroke-width="0.494" stroke-miterlimit="10" cx="10.4" cy="49.9" r="1"/>
		<path clip-path="url(#SVGID_4_)" fill="#BFA63C" d="M10.4,54.7c-0.5,0-1-0.4-1-1s0.4-1,1-1c0.5,0,1,0.4,1,1S10.9,54.7,10.4,54.7"
			/>
		
			<circle clip-path="url(#SVGID_4_)" fill="none" stroke="#BFA63C" stroke-width="0.494" stroke-miterlimit="10" cx="10.4" cy="53.7" r="1"/>
		<path clip-path="url(#SVGID_4_)" fill="#BFA63C" d="M10.4,47.1c-0.5,0-1-0.4-1-1s0.4-1,1-1c0.5,0,1,0.4,1,1S10.9,47.1,10.4,47.1"
			/>
		
			<circle clip-path="url(#SVGID_4_)" fill="none" stroke="#BFA63C" stroke-width="0.494" stroke-miterlimit="10" cx="10.4" cy="46.2" r="1"/>
		<rect x="10" y="73.7" clip-path="url(#SVGID_4_)" fill="#FFFFFF" width="1" height="16.8"/>
	</g>
	<g clip-path="url(#SVGID_2_)">
		<defs>
			<rect id="SVGID_5_" x="3" y="3" width="666.1" height="468.8"/>
		</defs>
		<clipPath id="SVGID_6_">
			<use xlink:href="#SVGID_5_"  overflow="visible"/>
		</clipPath>
		<path clip-path="url(#SVGID_6_)" fill="#BFA63C" d="M18,80.9c0-0.3-0.3-0.6-0.6-0.6c-0.3,0-0.6,0.3-0.6,0.6c0,0.1,0.1,0.3,0.1,0.4
			c-0.4,0.2-0.8,0.3-0.8,0.3c-0.3,0.1-0.6,0.1-0.8,0.1c-1.1,0-2-0.6-2.6-1.3c-0.6-0.7-0.9-1.3-0.9-1.4c-0.6-1.1-0.9-3.2-1-5.4
			c0.1,0.4,0.2,0.8,0.4,1.3c0.7,2,1.8,4.1,3.7,4.1c0.3,0,0.6-0.1,0.9-0.2l0,0c0.3-0.1,0.4-0.3,0.4-0.6c0-0.3-0.3-0.6-0.6-0.6
			c-0.3,0-0.6,0.3-0.6,0.6c0,0.1,0,0.2,0,0.2c-0.1,0-0.2,0-0.2,0c-1.5,0.1-2.6-1.8-3.2-3.7c-0.6-1.9-0.9-3.9-0.9-3.9v0l0,0
			c0-0.3,0-0.6,0-0.8c-0.1,0-0.2,0-0.3,0c-0.1,0-0.1,0-0.2,0c0,0.4,0,0.9,0,1.4c0,2.9,0.3,6.2,1.1,7.9c0,0,1.4,2.9,3.9,2.9
			c0.3,0,0.6-0.1,1-0.2c0,0,0.7-0.1,1.4-0.6c0,0,0,0,0,0c0,0,0.1,0,0.1-0.1l0,0C17.9,81.2,18,81,18,80.9"/>
		<path clip-path="url(#SVGID_6_)" fill="#BFA63C" d="M3,80.9c0-0.3,0.3-0.6,0.6-0.6c0.3,0,0.6,0.3,0.6,0.6c0,0.1-0.1,0.3-0.1,0.4
			c0.4,0.2,0.8,0.3,0.8,0.3c0.3,0.1,0.6,0.1,0.8,0.1c1.1,0,2-0.6,2.6-1.3C8.8,79.7,9.2,79,9.2,79c0.6-1.1,0.9-3.2,1-5.4
			c-0.1,0.4-0.2,0.8-0.4,1.3c-0.7,2-1.8,4.1-3.7,4.1c-0.3,0-0.6-0.1-0.9-0.2l0,0c-0.3-0.1-0.4-0.3-0.4-0.6c0-0.3,0.3-0.6,0.6-0.6
			c0.3,0,0.6,0.3,0.6,0.6c0,0.1,0,0.2,0,0.2c0.1,0,0.2,0,0.2,0c1.5,0.1,2.6-1.8,3.2-3.7c0.6-1.9,0.9-3.9,0.9-3.9v0l0,0
			c0-0.3,0-0.6,0-0.8c0.1,0,0.2,0,0.3,0c0.1,0,0.1,0,0.2,0c0,0.4,0,0.9,0,1.4c0,2.9-0.3,6.2-1.1,7.9c0,0-1.4,2.9-3.9,2.9
			c-0.3,0-0.6-0.1-1-0.2c0,0-0.7-0.1-1.4-0.6c0,0,0,0,0,0c0,0-0.1,0-0.1-0.1l0,0C3.1,81.2,3,81,3,80.9"/>
	</g>
	<g clip-path="url(#SVGID_2_)">
		<defs>
			<rect id="SVGID_7_" x="3" y="3" width="666.1" height="468.9"/>
		</defs>
		<clipPath id="SVGID_8_">
			<use xlink:href="#SVGID_7_"  overflow="visible"/>
		</clipPath>
		<path clip-path="url(#SVGID_8_)" fill="#BFA63C" d="M10.5,87.8"/>
	</g>
	<g clip-path="url(#SVGID_2_)">
		<defs>
			<rect id="SVGID_9_" x="3" y="3" width="666.1" height="468.8"/>
		</defs>
		<clipPath id="SVGID_10_">
			<use xlink:href="#SVGID_9_"  overflow="visible"/>
		</clipPath>
		<rect x="76.6" y="10" clip-path="url(#SVGID_10_)" fill="#FFFFFF" width="16.8" height="1"/>
		<path clip-path="url(#SVGID_10_)" fill="#BFA63C" d="M83.8,3c-0.3,0-0.6,0.3-0.6,0.6c0,0.3,0.3,0.6,0.6,0.6c0.1,0,0.3-0.1,0.4-0.1
			c0.2,0.4,0.3,0.8,0.3,0.8c0.1,0.3,0.1,0.6,0.1,0.8c0,1.1-0.6,2-1.3,2.6c-0.7,0.6-1.3,0.9-1.3,0.9c-1.1,0.6-3.2,0.9-5.4,1
			c0.4-0.1,0.8-0.2,1.3-0.4c2-0.7,4.1-1.8,4.1-3.7c0-0.3-0.1-0.6-0.2-0.9l0,0c-0.1-0.3-0.3-0.4-0.6-0.4c-0.3,0-0.6,0.3-0.6,0.6
			c0,0.3,0.3,0.6,0.6,0.6c0.1,0,0.2,0,0.2,0c0,0.1,0,0.2,0,0.2c0.1,1.5-1.8,2.6-3.7,3.2c-1.9,0.6-3.9,0.9-3.9,0.9h0l0,0
			c-0.3,0-0.6,0-0.8,0c0,0.1,0,0.2,0,0.3c0,0.1,0,0.1,0,0.2c0.4,0,0.9,0,1.4,0c2.9,0,6.2-0.3,7.9-1.1c0,0,2.9-1.4,2.9-3.9
			c0-0.3-0.1-0.6-0.2-1c0,0-0.1-0.7-0.6-1.4c0,0,0,0,0,0c0,0,0-0.1-0.1-0.1l0,0C84.1,3.1,84,3,83.8,3"/>
	</g>
	<g clip-path="url(#SVGID_2_)">
		<defs>
			<rect id="SVGID_11_" x="3" y="3" width="666.1" height="468.9"/>
		</defs>
		<clipPath id="SVGID_12_">
			<use xlink:href="#SVGID_11_"  overflow="visible"/>
		</clipPath>
		<path clip-path="url(#SVGID_12_)" fill="#BFA63C" d="M83.8,18c-0.3,0-0.6-0.3-0.6-0.6c0-0.3,0.3-0.6,0.6-0.6
			c0.1,0,0.3,0.1,0.4,0.1c0.2-0.4,0.3-0.8,0.3-0.8c0.1-0.3,0.1-0.6,0.1-0.8c0-1.1-0.6-2-1.3-2.6c-0.7-0.6-1.3-0.9-1.3-0.9
			c-1.1-0.6-3.2-0.9-5.4-1c0.4,0.1,0.8,0.2,1.3,0.4c2,0.7,4.1,1.8,4.1,3.7c0,0.3-0.1,0.6-0.2,0.9l0,0c-0.1,0.3-0.3,0.4-0.6,0.4
			c-0.3,0-0.6-0.3-0.6-0.6c0-0.3,0.3-0.6,0.6-0.6c0.1,0,0.2,0,0.2,0c0-0.1,0-0.2,0-0.2c0.1-1.5-1.8-2.6-3.7-3.2
			c-1.9-0.6-3.9-0.9-3.9-0.9h0l0,0c-0.3,0-0.6,0-0.8,0c0-0.1,0-0.2,0-0.3c0-0.1,0-0.1,0-0.2c0.4,0,0.9,0,1.4,0
			c2.9,0,6.2,0.3,7.9,1.1c0,0,2.9,1.4,2.9,3.9c0,0.3-0.1,0.6-0.2,1c0,0-0.1,0.7-0.6,1.4c0,0,0,0,0,0c0,0,0,0.1-0.1,0.1l0,0
			C84.1,17.9,84,18,83.8,18"/>
		<path clip-path="url(#SVGID_12_)" fill="#BFA63C" d="M663.6,6.4c-1,2.4-1.6,5-2.1,7.5c-0.5,2.5-0.8,5-1.5,7.4
			c-0.7,2.4-1.7,4.7-3.4,6.6c-0.9,0.9-1.9,1.7-3,2.3c-0.6,0.3-1.1,0.6-1.7,0.8c-0.6,0.3-1.2,0.4-2,0c-0.6-0.3-1.3-0.1-1.7,0.5
			c-0.3,0.6-0.1,1.3,0.5,1.7c0.6,0.3,1.3,0.1,1.7-0.5c0,0,0,0,0,0l0,0c0.4-0.8,1-1.1,1.6-1.4c0.6-0.3,1.2-0.5,1.7-0.9
			c1.1-0.6,2.2-1.3,3.1-2.2c1.9-1.7,3.2-4.1,4-6.5c0.8-2.5,1.2-5,1.8-7.5c0.5-2.5,1.2-4.9,2.2-7.2c0.2-0.3,0-0.7-0.3-0.9
			C664.2,5.9,663.8,6,663.6,6.4C663.6,6.4,663.6,6.4,663.6,6.4L663.6,6.4z"/>
		<path clip-path="url(#SVGID_12_)" fill="#BFA63C" d="M663.9,5.9c-2.4,1-4.6,2.4-6.7,3.8c-2.1,1.4-4.1,3-6.3,4.2
			c-2.2,1.2-4.6,2.1-7.1,2.2c-1.3,0-2.5-0.1-3.7-0.5c-0.6-0.2-1.2-0.4-1.8-0.6c-0.6-0.2-1.1-0.6-1.4-1.4c-0.2-0.6-0.9-1-1.5-0.8
			c-0.7,0.2-1,0.9-0.8,1.5c0.2,0.7,0.9,1,1.5,0.8c0,0,0,0,0,0l0,0c0.9-0.3,1.5-0.1,2.1,0.1c0.6,0.2,1.2,0.4,1.8,0.6
			c1.2,0.3,2.5,0.6,3.8,0.6c2.6,0.1,5.2-0.6,7.5-1.8c2.3-1.2,4.4-2.6,6.5-4c2.1-1.4,4.3-2.6,6.6-3.5c0.3-0.1,0.5-0.5,0.4-0.9
			C664.6,6,664.2,5.8,663.9,5.9C663.9,5.9,663.9,5.9,663.9,5.9L663.9,5.9z"/>
		<path clip-path="url(#SVGID_12_)" fill="#BFA63C" d="M663.7,6.2c-1.7,2-3,4.2-4.2,6.5c-1.2,2.2-2.3,4.5-3.7,6.6
			c-1.4,2.1-3.1,4-5.3,5.2c-1.1,0.6-2.3,1-3.5,1.3c-0.6,0.1-1.2,0.2-1.9,0.3c-0.6,0.1-1.3,0-1.9-0.6c-0.5-0.5-1.2-0.5-1.7-0.1
			c-0.5,0.5-0.5,1.2-0.1,1.7c0.5,0.5,1.2,0.5,1.7,0.1c0,0,0,0,0,0l0,0c0.7-0.7,1.3-0.8,1.9-0.8c0.6-0.1,1.3-0.2,1.9-0.3
			c1.2-0.3,2.5-0.6,3.7-1.2c2.3-1.1,4.3-2.9,5.8-5c1.5-2.1,2.7-4.4,4-6.6c1.3-2.2,2.6-4.3,4.3-6.1c0.2-0.3,0.2-0.7,0-0.9
			C664.4,5.9,663.9,5.9,663.7,6.2C663.7,6.2,663.7,6.2,663.7,6.2L663.7,6.2z"/>
		<path clip-path="url(#SVGID_12_)" fill="#BFA63C" d="M664.8,6.8c-0.8,2.5-2,4.8-3.3,7c-1.3,2.2-2.6,4.3-3.7,6.6
			c-1.1,2.2-1.8,4.7-1.7,7.2c0.1,1.3,0.3,2.5,0.7,3.7c0.2,0.6,0.5,1.2,0.8,1.7c0.3,0.6,0.7,1.1,1.5,1.3c0.7,0.1,1.1,0.8,0.9,1.5
			c-0.1,0.7-0.8,1.1-1.5,0.9c-0.7-0.1-1.1-0.8-0.9-1.5c0,0,0,0,0,0l0,0c0.2-0.9,0-1.5-0.3-2.1c-0.3-0.6-0.5-1.2-0.7-1.8
			c-0.4-1.2-0.8-2.4-0.9-3.7c-0.3-2.6,0.2-5.2,1.2-7.6c1-2.4,2.3-4.6,3.5-6.8c1.2-2.2,2.3-4.5,3-6.9c0.1-0.4,0.5-0.6,0.8-0.5
			C664.7,6.1,664.9,6.5,664.8,6.8C664.8,6.8,664.8,6.8,664.8,6.8L664.8,6.8z"/>
		<path clip-path="url(#SVGID_12_)" fill="#BFA63C" d="M664.4,7.1c-2.3,1.2-4.8,2-7.3,2.6c-2.5,0.6-4.9,1.2-7.3,2.1
			c-2.3,0.8-4.6,2-6.3,3.9c-0.8,0.9-1.6,2-2.1,3.1c-0.3,0.6-0.5,1.2-0.7,1.8c-0.2,0.6-0.3,1.2,0.2,2c0.4,0.6,0.2,1.3-0.4,1.7
			c-0.6,0.4-1.3,0.2-1.7-0.4c-0.4-0.6-0.2-1.3,0.4-1.7c0,0,0,0,0,0l0,0c0.8-0.5,1.1-1,1.3-1.7c0.2-0.6,0.5-1.2,0.7-1.8
			c0.5-1.2,1.2-2.3,2-3.3c1.6-2,3.9-3.5,6.2-4.5c2.4-1,4.9-1.6,7.3-2.3c2.4-0.7,4.8-1.5,7-2.7c0.3-0.2,0.7-0.1,0.9,0.3
			C664.9,6.5,664.8,6.9,664.4,7.1C664.4,7.1,664.4,7.1,664.4,7.1L664.4,7.1z"/>
		<path clip-path="url(#SVGID_12_)" fill="#BFA63C" d="M664.6,7.1c-1.8,1.8-4,3.3-6.2,4.7c-2.2,1.4-4.3,2.6-6.3,4.2
			c-2,1.5-3.8,3.3-4.8,5.6c-0.5,1.1-0.9,2.4-1,3.6c-0.1,0.6-0.1,1.3-0.1,1.9c0,0.6,0.1,1.3,0.8,1.8c0.5,0.4,0.6,1.2,0.2,1.7
			c-0.4,0.5-1.2,0.6-1.7,0.2c-0.5-0.4-0.6-1.2-0.2-1.7c0,0,0,0,0,0l0,0c0.6-0.7,0.7-1.3,0.7-2c0-0.6,0.1-1.3,0.2-1.9
			c0.2-1.3,0.4-2.5,0.9-3.7c0.9-2.4,2.6-4.5,4.6-6.2c2-1.7,4.2-3,6.2-4.4c2.1-1.4,4.1-2.9,5.8-4.7c0.3-0.3,0.7-0.3,0.9,0
			C664.9,6.3,664.9,6.8,664.6,7.1C664.6,7,664.6,7,664.6,7.1L664.6,7.1z"/>
		<path clip-path="url(#SVGID_12_)" fill="#FFFFFF" d="M636,10.5c0,0.5,0.4,0.8,0.8,0.8c0.5,0,0.8-0.4,0.8-0.8
			c0-0.5-0.4-0.8-0.8-0.8C636.4,9.7,636,10,636,10.5"/>
		
			<circle clip-path="url(#SVGID_12_)" fill="none" stroke="#BFA63C" stroke-width="0.741" stroke-miterlimit="10" cx="636.8" cy="10.5" r="0.8"/>
		<path clip-path="url(#SVGID_12_)" fill="#BFA63C" d="M619.3,10.5c0,0.5,0.4,1,1,1c0.5,0,1-0.4,1-1c0-0.5-0.4-1-1-1
			C619.7,9.5,619.3,10,619.3,10.5"/>
		
			<circle clip-path="url(#SVGID_12_)" fill="none" stroke="#BFA63C" stroke-width="0.494" stroke-miterlimit="10" cx="620.3" cy="10.5" r="1"/>
		<path clip-path="url(#SVGID_12_)" fill="#BFA63C" d="M615.5,10.5c0,0.5,0.4,1,1,1s1-0.4,1-1c0-0.5-0.4-1-1-1S615.5,10,615.5,10.5"
			/>
		
			<circle clip-path="url(#SVGID_12_)" fill="none" stroke="#BFA63C" stroke-width="0.494" stroke-miterlimit="10" cx="616.5" cy="10.5" r="1"/>
		<path clip-path="url(#SVGID_12_)" fill="#BFA63C" d="M623.1,10.5c0,0.5,0.4,1,1,1s1-0.4,1-1c0-0.5-0.4-1-1-1S623.1,10,623.1,10.5"
			/>
		
			<circle clip-path="url(#SVGID_12_)" fill="none" stroke="#BFA63C" stroke-width="0.494" stroke-miterlimit="10" cx="624" cy="10.5" r="1"/>
		<path clip-path="url(#SVGID_12_)" fill="#FFFFFF" d="M661.8,34.2c0.5,0,0.8-0.4,0.8-0.8c0-0.5-0.4-0.8-0.8-0.8
			c-0.5,0-0.8,0.4-0.8,0.8C660.9,33.8,661.3,34.2,661.8,34.2"/>
		
			<circle clip-path="url(#SVGID_12_)" fill="none" stroke="#BFA63C" stroke-width="0.741" stroke-miterlimit="10" cx="661.8" cy="33.4" r="0.8"/>
		<path clip-path="url(#SVGID_12_)" fill="#BFA63C" d="M661.8,50.9c0.5,0,1-0.4,1-1c0-0.5-0.4-1-1-1c-0.5,0-1,0.4-1,1
			C660.8,50.5,661.2,50.9,661.8,50.9"/>
		
			<circle clip-path="url(#SVGID_12_)" fill="none" stroke="#BFA63C" stroke-width="0.494" stroke-miterlimit="10" cx="661.8" cy="49.9" r="1"/>
		<path clip-path="url(#SVGID_12_)" fill="#BFA63C" d="M661.8,54.7c0.5,0,1-0.4,1-1s-0.4-1-1-1c-0.5,0-1,0.4-1,1
			S661.2,54.7,661.8,54.7"/>
		
			<circle clip-path="url(#SVGID_12_)" fill="none" stroke="#BFA63C" stroke-width="0.494" stroke-miterlimit="10" cx="661.8" cy="53.7" r="1"/>
		<path clip-path="url(#SVGID_12_)" fill="#BFA63C" d="M661.8,47.1c0.5,0,1-0.4,1-1s-0.4-1-1-1c-0.5,0-1,0.4-1,1
			S661.2,47.1,661.8,47.1"/>
		
			<circle clip-path="url(#SVGID_12_)" fill="none" stroke="#BFA63C" stroke-width="0.494" stroke-miterlimit="10" cx="661.8" cy="46.2" r="1"/>
		<rect x="661.2" y="73.7" clip-path="url(#SVGID_12_)" fill="#FBF6E7" width="1" height="13.2"/>
	</g>
	<g clip-path="url(#SVGID_2_)">
		<defs>
			<rect id="SVGID_13_" x="3" y="3" width="666.1" height="468.8"/>
		</defs>
		<clipPath id="SVGID_14_">
			<use xlink:href="#SVGID_13_"  overflow="visible"/>
		</clipPath>
		<path clip-path="url(#SVGID_14_)" fill="#BFA63C" d="M654.1,80.9c0-0.3,0.3-0.6,0.6-0.6c0.3,0,0.6,0.3,0.6,0.6
			c0,0.1-0.1,0.3-0.1,0.4c0.4,0.2,0.8,0.3,0.8,0.3c0.3,0.1,0.6,0.1,0.8,0.1c1.1,0,2-0.6,2.6-1.3c0.6-0.7,0.9-1.3,0.9-1.4
			c0.6-1.1,0.9-3.2,1-5.4c-0.1,0.4-0.2,0.8-0.4,1.3c-0.7,2-1.8,4.1-3.7,4.1c-0.3,0-0.6-0.1-0.9-0.2l0,0c-0.3-0.1-0.4-0.3-0.4-0.6
			c0-0.3,0.3-0.6,0.6-0.6c0.3,0,0.6,0.3,0.6,0.6c0,0.1,0,0.2,0,0.2c0.1,0,0.2,0,0.2,0c1.5,0.1,2.6-1.8,3.2-3.7
			c0.6-1.9,0.9-3.9,0.9-3.9v0l0,0c0-0.3,0-0.6,0-0.8c0.1,0,0.2,0,0.3,0c0.1,0,0.1,0,0.2,0c0,0.4,0,0.9,0,1.4c0,2.9-0.3,6.2-1.1,7.9
			c0,0-1.4,2.9-3.9,2.9c-0.3,0-0.6-0.1-1-0.2c0,0-0.7-0.1-1.4-0.6c0,0,0,0,0,0c0,0-0.1,0-0.1-0.1l0,0
			C654.3,81.2,654.1,81,654.1,80.9"/>
		<path clip-path="url(#SVGID_14_)" fill="#BFA63C" d="M669.1,80.9c0-0.3-0.3-0.6-0.6-0.6c-0.3,0-0.6,0.3-0.6,0.6
			c0,0.1,0.1,0.3,0.1,0.4c-0.4,0.2-0.8,0.3-0.8,0.3c-0.3,0.1-0.6,0.1-0.8,0.1c-1.1,0-2-0.6-2.6-1.3c-0.6-0.7-0.9-1.3-0.9-1.4
			c-0.6-1.1-0.9-3.2-1-5.4c0.1,0.4,0.2,0.8,0.4,1.3c0.7,2,1.8,4.1,3.7,4.1c0.3,0,0.6-0.1,0.9-0.2l0,0c0.3-0.1,0.4-0.3,0.4-0.6
			c0-0.3-0.3-0.6-0.6-0.6c-0.3,0-0.6,0.3-0.6,0.6c0,0.1,0,0.2,0,0.2c-0.1,0-0.2,0-0.2,0c-1.5,0.1-2.6-1.8-3.2-3.7
			c-0.6-1.9-0.9-3.9-0.9-3.9v0l0,0c0-0.3,0-0.6,0-0.8c-0.1,0-0.2,0-0.3,0c-0.1,0-0.1,0-0.2,0c0,0.4,0,0.9,0,1.4
			c0,2.9,0.3,6.2,1.1,7.9c0,0,1.4,2.9,3.9,2.9c0.3,0,0.6-0.1,1-0.2c0,0,0.7-0.1,1.4-0.6c0,0,0,0,0,0c0,0,0.1,0,0.1-0.1l0,0
			C669,81.2,669.1,81,669.1,80.9"/>
	</g>
	<g clip-path="url(#SVGID_2_)">
		<defs>
			<rect id="SVGID_15_" x="3" y="3" width="666.1" height="468.9"/>
		</defs>
		<clipPath id="SVGID_16_">
			<use xlink:href="#SVGID_15_"  overflow="visible"/>
		</clipPath>
		<path clip-path="url(#SVGID_16_)" fill="#BFA63C" d="M661.7,87.8c0.4,0,0.7-0.3,0.7-0.7c0-0.4-0.3-0.7-0.7-0.7
			c-0.4,0-0.7,0.3-0.7,0.7C661,87.4,661.3,87.8,661.7,87.8"/>
	</g>
	<g clip-path="url(#SVGID_2_)">
		<defs>
			<rect id="SVGID_17_" x="3" y="3" width="666.1" height="468.8"/>
		</defs>
		<clipPath id="SVGID_18_">
			<use xlink:href="#SVGID_17_"  overflow="visible"/>
		</clipPath>
		<rect x="582.3" y="10" clip-path="url(#SVGID_18_)" fill="#FBF6E7" width="13.2" height="1"/>
		<path clip-path="url(#SVGID_18_)" fill="#BFA63C" d="M588.4,3c0.3,0,0.6,0.3,0.6,0.6c0,0.3-0.3,0.6-0.6,0.6
			c-0.1,0-0.3-0.1-0.4-0.1c-0.2,0.4-0.3,0.8-0.3,0.8c-0.1,0.3-0.1,0.6-0.1,0.8c0,1.1,0.6,2,1.3,2.6c0.7,0.6,1.3,0.9,1.4,0.9
			c1.1,0.6,3.2,0.9,5.4,1c-0.4-0.1-0.8-0.2-1.3-0.4c-2-0.7-4.1-1.8-4.1-3.7c0-0.3,0.1-0.6,0.2-0.9l0,0c0.1-0.3,0.3-0.4,0.6-0.4
			c0.3,0,0.6,0.3,0.6,0.6c0,0.3-0.3,0.6-0.6,0.6c-0.1,0-0.2,0-0.2,0c0,0.1,0,0.2,0,0.2c-0.1,1.5,1.8,2.6,3.7,3.2
			c1.9,0.6,3.9,0.9,3.9,0.9h0l0,0c0.3,0,0.6,0,0.8,0c0,0.1,0,0.2,0,0.3c0,0.1,0,0.1,0,0.2c-0.4,0-0.9,0-1.4,0
			c-2.9,0-6.2-0.3-7.9-1.1c0,0-2.9-1.4-2.9-3.9c0-0.3,0.1-0.6,0.2-1c0,0,0.1-0.7,0.6-1.4c0,0,0,0,0,0c0,0,0-0.1,0.1-0.1l0,0
			C588,3.1,588.2,3,588.4,3"/>
	</g>
	<g clip-path="url(#SVGID_2_)">
		<defs>
			<rect id="SVGID_19_" x="3" y="3" width="666.1" height="468.9"/>
		</defs>
		<clipPath id="SVGID_20_">
			<use xlink:href="#SVGID_19_"  overflow="visible"/>
		</clipPath>
		<path clip-path="url(#SVGID_20_)" fill="#BFA63C" d="M588.4,18c0.3,0,0.6-0.3,0.6-0.6c0-0.3-0.3-0.6-0.6-0.6
			c-0.1,0-0.3,0.1-0.4,0.1c-0.2-0.4-0.3-0.8-0.3-0.8c-0.1-0.3-0.1-0.6-0.1-0.8c0-1.1,0.6-2,1.3-2.6c0.7-0.6,1.3-0.9,1.4-0.9
			c1.1-0.6,3.2-0.9,5.4-1c-0.4,0.1-0.8,0.2-1.3,0.4c-2,0.7-4.1,1.8-4.1,3.7c0,0.3,0.1,0.6,0.2,0.9l0,0c0.1,0.3,0.3,0.4,0.6,0.4
			c0.3,0,0.6-0.3,0.6-0.6c0-0.3-0.3-0.6-0.6-0.6c-0.1,0-0.2,0-0.2,0c0-0.1,0-0.2,0-0.2c-0.1-1.5,1.8-2.6,3.7-3.2
			c1.9-0.6,3.9-0.9,3.9-0.9h0l0,0c0.3,0,0.6,0,0.8,0c0-0.1,0-0.2,0-0.3c0-0.1,0-0.1,0-0.2c-0.4,0-0.9,0-1.4,0
			c-2.9,0-6.2,0.3-7.9,1.1c0,0-2.9,1.4-2.9,3.9c0,0.3,0.1,0.6,0.2,1c0,0,0.1,0.7,0.6,1.4c0,0,0,0,0,0c0,0,0,0.1,0.1,0.1l0,0
			C588,17.9,588.2,18,588.4,18"/>
		<path clip-path="url(#SVGID_20_)" fill="#BFA63C" d="M581.5,10.5c0,0.4,0.3,0.7,0.7,0.7c0.4,0,0.7-0.3,0.7-0.7s-0.3-0.7-0.7-0.7
			C581.8,9.9,581.5,10.2,581.5,10.5"/>
		<path clip-path="url(#SVGID_20_)" fill="#BFA63C" d="M8.6,1022.5c1-2.4,1.6-5,2.1-7.5c0.5-2.5,0.8-5,1.5-7.4
			c0.7-2.4,1.7-4.7,3.4-6.6c0.9-0.9,1.9-1.7,3-2.3c0.6-0.3,1.1-0.6,1.7-0.8c0.6-0.3,1.2-0.4,2,0c0.6,0.3,1.3,0.1,1.7-0.5
			c0.3-0.6,0.1-1.3-0.5-1.7c-0.6-0.3-1.3-0.1-1.7,0.5c0,0,0,0,0,0l0,0c-0.4,0.8-1,1.1-1.6,1.4c-0.6,0.3-1.2,0.5-1.7,0.9
			c-1.1,0.6-2.2,1.3-3.1,2.2c-1.9,1.7-3.2,4.1-4,6.5c-0.8,2.5-1.2,5-1.8,7.5c-0.5,2.5-1.2,4.9-2.2,7.2c-0.2,0.3,0,0.7,0.3,0.9
			C8,1023,8.4,1022.8,8.6,1022.5C8.6,1022.5,8.6,1022.5,8.6,1022.5L8.6,1022.5z"/>
		<path clip-path="url(#SVGID_20_)" fill="#BFA63C" d="M8.3,1022.9c2.4-1,4.6-2.4,6.7-3.8c2.1-1.5,4.1-3,6.3-4.2
			c2.2-1.2,4.6-2.1,7.1-2.2c1.3,0,2.5,0.1,3.7,0.5c0.6,0.2,1.2,0.4,1.8,0.6c0.6,0.2,1.1,0.6,1.4,1.4c0.2,0.7,0.9,1,1.5,0.8
			c0.7-0.2,1-0.9,0.8-1.5c-0.2-0.7-0.9-1-1.5-0.8c0,0,0,0,0,0l0,0c-0.9,0.3-1.5,0.1-2.1-0.1c-0.6-0.2-1.2-0.4-1.8-0.6
			c-1.2-0.3-2.5-0.6-3.8-0.6c-2.6-0.1-5.2,0.6-7.5,1.8c-2.3,1.2-4.4,2.6-6.5,4c-2.1,1.4-4.3,2.6-6.6,3.5c-0.3,0.1-0.5,0.5-0.4,0.9
			C7.6,1022.9,7.9,1023,8.3,1022.9C8.3,1022.9,8.3,1022.9,8.3,1022.9L8.3,1022.9z"/>
		<path clip-path="url(#SVGID_20_)" fill="#BFA63C" d="M8.5,1022.6c1.7-2,3-4.2,4.2-6.5c1.2-2.2,2.3-4.5,3.7-6.6
			c1.4-2.1,3.1-4,5.3-5.2c1.1-0.6,2.3-1,3.5-1.3c0.6-0.1,1.2-0.2,1.9-0.3c0.6-0.1,1.3,0,1.9,0.7c0.5,0.5,1.2,0.5,1.7,0.1
			c0.5-0.5,0.5-1.2,0.1-1.7c-0.5-0.5-1.2-0.5-1.7,0c0,0,0,0,0,0l0,0c-0.7,0.7-1.3,0.8-1.9,0.8c-0.6,0.1-1.3,0.2-1.9,0.3
			c-1.3,0.3-2.5,0.6-3.7,1.2c-2.3,1.1-4.3,2.9-5.8,5c-1.5,2.1-2.7,4.4-4,6.6c-1.3,2.2-2.6,4.3-4.3,6.1c-0.2,0.3-0.2,0.7,0,0.9
			C7.8,1023,8.2,1022.9,8.5,1022.6C8.5,1022.7,8.5,1022.7,8.5,1022.6L8.5,1022.6z"/>
		<path clip-path="url(#SVGID_20_)" fill="#BFA63C" d="M7.4,1022c0.8-2.5,2-4.8,3.3-7c1.3-2.2,2.7-4.3,3.7-6.6
			c1.1-2.2,1.8-4.7,1.7-7.2c-0.1-1.3-0.3-2.5-0.7-3.7c-0.2-0.6-0.5-1.2-0.8-1.7c-0.3-0.6-0.7-1.1-1.5-1.3c-0.7-0.1-1.1-0.8-0.9-1.5
			c0.1-0.7,0.8-1.1,1.5-0.9c0.7,0.1,1.1,0.8,0.9,1.5c0,0,0,0,0,0l0,0c-0.2,0.9,0,1.5,0.3,2.1c0.3,0.6,0.5,1.2,0.7,1.8
			c0.4,1.2,0.8,2.4,0.9,3.7c0.3,2.6-0.2,5.2-1.2,7.6c-1,2.4-2.3,4.6-3.5,6.8c-1.2,2.2-2.3,4.5-3,6.9c-0.1,0.3-0.5,0.6-0.8,0.5
			C7.4,1022.7,7.2,1022.4,7.4,1022C7.3,1022,7.3,1022,7.4,1022L7.4,1022z"/>
		<path clip-path="url(#SVGID_20_)" fill="#BFA63C" d="M7.8,1021.7c2.3-1.2,4.8-1.9,7.3-2.6c2.5-0.7,4.9-1.2,7.3-2.1
			c2.3-0.8,4.6-2,6.3-3.9c0.8-0.9,1.6-2,2.1-3.1c0.3-0.6,0.5-1.2,0.7-1.8c0.2-0.6,0.3-1.2-0.2-2c-0.4-0.6-0.2-1.3,0.4-1.7
			c0.6-0.4,1.3-0.2,1.7,0.4c0.4,0.6,0.2,1.3-0.4,1.7c0,0,0,0,0,0l0,0c-0.8,0.5-1.1,1-1.3,1.7c-0.2,0.6-0.5,1.2-0.7,1.8
			c-0.5,1.2-1.2,2.3-2,3.3c-1.6,2-3.8,3.5-6.2,4.5c-2.4,1-4.9,1.6-7.3,2.3c-2.4,0.7-4.8,1.5-7,2.7c-0.3,0.2-0.7,0.1-0.9-0.3
			C7.3,1022.3,7.4,1021.9,7.8,1021.7C7.8,1021.7,7.8,1021.7,7.8,1021.7L7.8,1021.7z"/>
		<path clip-path="url(#SVGID_20_)" fill="#BFA63C" d="M7.6,1021.8c1.8-1.8,4-3.3,6.2-4.7c2.2-1.4,4.3-2.6,6.3-4.2
			c2-1.5,3.8-3.3,4.8-5.6c0.5-1.1,0.9-2.4,1-3.6c0.1-0.6,0.1-1.3,0.1-1.9c0-0.6-0.1-1.3-0.8-1.8c-0.5-0.4-0.6-1.2-0.2-1.7
			c0.4-0.5,1.2-0.6,1.7-0.2c0.5,0.4,0.6,1.2,0.2,1.7c0,0,0,0,0,0l0,0c-0.6,0.7-0.7,1.3-0.7,2c0,0.6-0.1,1.3-0.2,1.9
			c-0.2,1.3-0.4,2.5-0.9,3.7c-0.9,2.4-2.6,4.5-4.6,6.2c-2,1.7-4.2,3-6.3,4.4c-2.1,1.4-4.1,2.9-5.8,4.7c-0.3,0.3-0.7,0.3-0.9,0
			C7.3,1022.5,7.3,1022.1,7.6,1021.8C7.6,1021.8,7.6,1021.8,7.6,1021.8L7.6,1021.8z"/>
		<path clip-path="url(#SVGID_20_)" fill="#FFFFFF" d="M36.2,1018.3c0-0.5-0.4-0.8-0.8-0.8c-0.5,0-0.8,0.4-0.8,0.8
			c0,0.5,0.4,0.8,0.8,0.8C35.8,1019.2,36.2,1018.8,36.2,1018.3"/>
		
			<circle clip-path="url(#SVGID_20_)" fill="none" stroke="#BFA63C" stroke-width="0.741" stroke-miterlimit="10" cx="35.4" cy="1018.3" r="0.8"/>
		<path clip-path="url(#SVGID_20_)" fill="#BFA63C" d="M52.9,1018.3c0-0.5-0.4-1-1-1c-0.5,0-1,0.4-1,1c0,0.6,0.4,1,1,1
			C52.5,1019.3,52.9,1018.9,52.9,1018.3"/>
		<path clip-path="url(#SVGID_20_)" fill="none" stroke="#BFA63C" stroke-width="0.494" stroke-miterlimit="10" d="M52.9,1018.3
			c0-0.5-0.4-1-1-1c-0.5,0-1,0.4-1,1c0,0.6,0.4,1,1,1C52.5,1019.3,52.9,1018.9,52.9,1018.3z"/>
		<path clip-path="url(#SVGID_20_)" fill="#BFA63C" d="M56.7,1018.3c0-0.5-0.4-1-1-1c-0.5,0-1,0.4-1,1c0,0.6,0.4,1,1,1
			C56.3,1019.3,56.7,1018.9,56.7,1018.3"/>
		<path clip-path="url(#SVGID_20_)" fill="none" stroke="#BFA63C" stroke-width="0.494" stroke-miterlimit="10" d="M56.7,1018.3
			c0-0.5-0.4-1-1-1c-0.5,0-1,0.4-1,1c0,0.6,0.4,1,1,1C56.3,1019.3,56.7,1018.9,56.7,1018.3z"/>
		<path clip-path="url(#SVGID_20_)" fill="#BFA63C" d="M49.1,1018.3c0-0.5-0.4-1-1-1s-1,0.4-1,1c0,0.6,0.4,1,1,1
			S49.1,1018.9,49.1,1018.3"/>
		<path clip-path="url(#SVGID_20_)" fill="none" stroke="#BFA63C" stroke-width="0.494" stroke-miterlimit="10" d="M49.1,1018.3
			c0-0.5-0.4-1-1-1s-1,0.4-1,1c0,0.6,0.4,1,1,1S49.1,1018.9,49.1,1018.3z"/>
		<path clip-path="url(#SVGID_20_)" fill="#FFFFFF" d="M10.4,994.6c-0.5,0-0.8,0.4-0.8,0.8c0,0.5,0.4,0.8,0.8,0.8
			c0.5,0,0.8-0.4,0.8-0.8C11.2,995,10.9,994.6,10.4,994.6"/>
		<path clip-path="url(#SVGID_20_)" fill="none" stroke="#BFA63C" stroke-width="0.741" stroke-miterlimit="10" d="M10.4,994.6
			c-0.5,0-0.8,0.4-0.8,0.8c0,0.5,0.4,0.8,0.8,0.8c0.5,0,0.8-0.4,0.8-0.8C11.2,995,10.9,994.6,10.4,994.6z"/>
		<path clip-path="url(#SVGID_20_)" fill="#BFA63C" d="M10.4,977.9c-0.5,0-1,0.4-1,1c0,0.5,0.4,1,1,1c0.5,0,1-0.4,1-1
			C11.4,978.4,11,977.9,10.4,977.9"/>
		
			<circle clip-path="url(#SVGID_20_)" fill="none" stroke="#BFA63C" stroke-width="0.494" stroke-miterlimit="10" cx="10.4" cy="978.9" r="1"/>
		<path clip-path="url(#SVGID_20_)" fill="#BFA63C" d="M10.4,974.1c-0.5,0-1,0.4-1,1c0,0.5,0.4,1,1,1c0.5,0,1-0.4,1-1
			C11.4,974.6,11,974.1,10.4,974.1"/>
		
			<circle clip-path="url(#SVGID_20_)" fill="none" stroke="#BFA63C" stroke-width="0.494" stroke-miterlimit="10" cx="10.4" cy="975.1" r="1"/>
		<path clip-path="url(#SVGID_20_)" fill="#BFA63C" d="M10.4,981.7c-0.5,0-1,0.4-1,1c0,0.5,0.4,1,1,1c0.5,0,1-0.4,1-1
			C11.4,982.1,11,981.7,10.4,981.7"/>
		
			<circle clip-path="url(#SVGID_20_)" fill="none" stroke="#BFA63C" stroke-width="0.494" stroke-miterlimit="10" cx="10.4" cy="982.7" r="1"/>
		<rect x="10" y="941.9" clip-path="url(#SVGID_20_)" fill="#FBF6E7" width="1" height="13.2"/>
		<path clip-path="url(#SVGID_20_)" fill="#BFA63C" d="M18,948c0,0.3-0.3,0.6-0.6,0.6c-0.3,0-0.6-0.3-0.6-0.6c0-0.1,0.1-0.3,0.1-0.4
			c-0.4-0.2-0.8-0.3-0.8-0.3c-0.3-0.1-0.6-0.1-0.8-0.1c-1.1,0-2,0.6-2.6,1.3c-0.6,0.7-0.9,1.3-0.9,1.3c-0.6,1.1-0.9,3.2-1,5.4
			c0.1-0.4,0.2-0.8,0.4-1.3c0.7-2,1.8-4.1,3.7-4.1c0.3,0,0.6,0.1,0.9,0.2l0,0c0.3,0.1,0.4,0.3,0.4,0.6c0,0.3-0.3,0.6-0.6,0.6
			c-0.3,0-0.6-0.3-0.6-0.6c0-0.1,0-0.2,0-0.2c-0.1,0-0.2,0-0.2,0c-1.5-0.1-2.6,1.8-3.2,3.7c-0.6,1.9-0.9,3.9-0.9,3.9v0l0,0
			c0,0.3,0,0.6,0,0.8c-0.1,0-0.2,0-0.3,0c-0.1,0-0.1,0-0.2,0c0-0.4,0-0.9,0-1.4c0-2.9,0.3-6.2,1.1-7.9c0,0,1.4-2.9,3.9-2.9
			c0.3,0,0.6,0.1,1,0.2c0,0,0.7,0.1,1.4,0.6c0,0,0,0,0,0c0,0,0.1,0,0.1,0.1l0,0C17.9,947.6,18,947.8,18,948"/>
		<path clip-path="url(#SVGID_20_)" fill="#BFA63C" d="M3,948c0,0.3,0.3,0.6,0.6,0.6c0.3,0,0.6-0.3,0.6-0.6c0-0.1-0.1-0.3-0.1-0.4
			c0.4-0.2,0.8-0.3,0.8-0.3c0.3-0.1,0.6-0.1,0.8-0.1c1.1,0,2,0.6,2.6,1.3c0.6,0.7,0.9,1.3,0.9,1.3c0.6,1.1,0.9,3.2,1,5.4
			c-0.1-0.4-0.2-0.8-0.4-1.3c-0.7-2-1.8-4.1-3.7-4.1c-0.3,0-0.6,0.1-0.9,0.2l0,0c-0.3,0.1-0.4,0.3-0.4,0.6c0,0.3,0.3,0.6,0.6,0.6
			c0.3,0,0.6-0.3,0.6-0.6c0-0.1,0-0.2,0-0.2c0.1,0,0.2,0,0.2,0c1.5-0.1,2.6,1.8,3.2,3.7c0.6,1.9,0.9,3.9,0.9,3.9v0l0,0
			c0,0.3,0,0.6,0,0.8c0.1,0,0.2,0,0.3,0c0.1,0,0.1,0,0.2,0c0-0.4,0-0.9,0-1.4c0-2.9-0.3-6.2-1.1-7.9c0,0-1.4-2.9-3.9-2.9
			c-0.3,0-0.6,0.1-1,0.2c0,0-0.7,0.1-1.4,0.6c0,0,0,0,0,0c0,0-0.1,0-0.1,0.1l0,0C3.1,947.6,3,947.8,3,948"/>
		<path clip-path="url(#SVGID_20_)" fill="#BFA63C" d="M10.5,941.1c-0.4,0-0.7,0.3-0.7,0.7c0,0.4,0.3,0.7,0.7,0.7s0.7-0.3,0.7-0.7
			C11.2,941.4,10.9,941.1,10.5,941.1"/>
		<rect x="76.6" y="1017.8" clip-path="url(#SVGID_20_)" fill="#FBF6E7" width="13.2" height="1"/>
		<path clip-path="url(#SVGID_20_)" fill="#BFA63C" d="M83.8,1025.8c-0.3,0-0.6-0.3-0.6-0.6c0-0.3,0.3-0.6,0.6-0.6
			c0.1,0,0.3,0.1,0.4,0.1c0.2-0.4,0.3-0.8,0.3-0.8c0.1-0.3,0.1-0.6,0.1-0.8c0-1.1-0.6-2-1.3-2.6c-0.7-0.6-1.3-0.9-1.3-0.9
			c-1.1-0.6-3.2-0.9-5.4-1c0.4,0.1,0.8,0.2,1.3,0.4c2,0.7,4.1,1.8,4.1,3.7c0,0.3-0.1,0.6-0.2,0.9h0c-0.1,0.2-0.3,0.4-0.6,0.4
			c-0.3,0-0.6-0.3-0.6-0.6c0-0.3,0.3-0.6,0.6-0.6c0.1,0,0.2,0,0.2,0c0-0.1,0-0.2,0-0.2c0.1-1.5-1.8-2.6-3.7-3.2
			c-1.9-0.7-3.9-0.9-3.9-0.9h0l0,0h-0.8c0-0.1,0-0.2,0-0.3c0-0.1,0-0.1,0-0.2h1.4c2.9,0,6.2,0.3,7.9,1.1c0,0,2.9,1.4,2.9,3.9
			c0,0.3-0.1,0.6-0.2,0.9c0,0-0.1,0.7-0.6,1.4c0,0,0,0,0,0c0,0,0,0.1-0.1,0.1h0C84.2,1025.7,84,1025.8,83.8,1025.8"/>
		<path clip-path="url(#SVGID_20_)" fill="#BFA63C" d="M83.8,1010.9c-0.3,0-0.6,0.3-0.6,0.6c0,0.3,0.3,0.6,0.6,0.6
			c0.1,0,0.3-0.1,0.4-0.1c0.2,0.4,0.3,0.8,0.3,0.8c0.1,0.3,0.1,0.6,0.1,0.8c0,1.1-0.6,1.9-1.3,2.6c-0.7,0.6-1.3,0.9-1.3,0.9
			c-1.1,0.6-3.2,0.9-5.4,1c0.4-0.1,0.8-0.2,1.3-0.4c2-0.7,4.1-1.8,4.1-3.7c0-0.3-0.1-0.6-0.2-0.9l0,0c-0.1-0.2-0.3-0.4-0.6-0.4
			c-0.3,0-0.6,0.3-0.6,0.6c0,0.3,0.3,0.6,0.6,0.6c0.1,0,0.2,0,0.2,0c0,0.1,0,0.2,0,0.2c0.1,1.5-1.8,2.6-3.7,3.2
			c-1.9,0.7-3.9,0.9-3.9,0.9h0l0,0c-0.3,0-0.6,0-0.8,0c0,0.1,0,0.2,0,0.3c0,0.1,0,0.1,0,0.2c0.4,0,0.9,0,1.4,0
			c2.9,0,6.2-0.3,7.9-1.1c0,0,2.9-1.4,2.9-3.9c0-0.3-0.1-0.6-0.2-0.9c0,0-0.1-0.7-0.6-1.4c0,0,0,0,0,0c0,0,0,0-0.1-0.1h0
			C84.2,1011,84,1010.8,83.8,1010.9"/>
		<path clip-path="url(#SVGID_20_)" fill="#BFA63C" d="M90.7,1018.3c0-0.4-0.3-0.7-0.7-0.7c-0.4,0-0.7,0.3-0.7,0.7
			c0,0.4,0.3,0.7,0.7,0.7C90.4,1019,90.7,1018.7,90.7,1018.3"/>
		<path clip-path="url(#SVGID_20_)" fill="#BFA63C" d="M663.6,1022.5c-1-2.4-1.6-5-2.1-7.5c-0.5-2.5-0.8-5-1.5-7.4
			c-0.7-2.4-1.7-4.7-3.4-6.6c-0.9-0.9-1.9-1.7-3-2.3c-0.6-0.3-1.1-0.6-1.7-0.8c-0.6-0.3-1.2-0.4-2,0c-0.6,0.3-1.3,0.1-1.7-0.5
			c-0.3-0.6-0.1-1.3,0.5-1.7c0.6-0.3,1.3-0.1,1.7,0.5c0,0,0,0,0,0l0,0c0.4,0.8,1,1.1,1.6,1.4c0.6,0.3,1.2,0.5,1.7,0.9
			c1.1,0.6,2.2,1.3,3.1,2.2c1.9,1.7,3.2,4.1,4,6.5c0.8,2.5,1.2,5,1.8,7.5c0.5,2.5,1.2,4.9,2.2,7.2c0.2,0.3,0,0.7-0.3,0.9
			C664.2,1023,663.8,1022.8,663.6,1022.5C663.6,1022.5,663.6,1022.5,663.6,1022.5L663.6,1022.5z"/>
		<path clip-path="url(#SVGID_20_)" fill="#BFA63C" d="M663.9,1022.9c-2.4-1-4.6-2.4-6.7-3.8c-2.1-1.5-4.1-3-6.3-4.2
			c-2.2-1.2-4.6-2.2-7.1-2.2c-1.3,0-2.5,0.1-3.7,0.5c-0.6,0.2-1.2,0.4-1.8,0.6c-0.6,0.2-1.1,0.6-1.4,1.4c-0.2,0.7-0.9,1-1.5,0.8
			c-0.7-0.2-1-0.9-0.8-1.5c0.2-0.7,0.9-1,1.5-0.8c0,0,0,0,0,0l0,0c0.9,0.3,1.5,0.1,2.1-0.1c0.6-0.2,1.2-0.4,1.8-0.6
			c1.2-0.3,2.5-0.6,3.8-0.6c2.6-0.1,5.2,0.6,7.5,1.8c2.3,1.2,4.4,2.6,6.5,4c2.1,1.4,4.3,2.6,6.6,3.5c0.3,0.1,0.5,0.5,0.4,0.9
			C664.6,1022.9,664.2,1023,663.9,1022.9C663.9,1022.9,663.9,1022.9,663.9,1022.9L663.9,1022.9z"/>
		<path clip-path="url(#SVGID_20_)" fill="#BFA63C" d="M663.7,1022.6c-1.7-2-3-4.2-4.2-6.5c-1.2-2.2-2.3-4.5-3.7-6.6
			c-1.4-2.1-3.1-4-5.3-5.2c-1.1-0.6-2.3-1-3.5-1.3c-0.6-0.1-1.2-0.2-1.9-0.3c-0.6-0.1-1.3,0-1.9,0.7c-0.5,0.5-1.2,0.5-1.7,0.1
			c-0.5-0.5-0.5-1.2-0.1-1.7c0.5-0.5,1.2-0.5,1.7,0c0,0,0,0,0,0l0,0c0.7,0.7,1.3,0.8,1.9,0.8c0.6,0.1,1.3,0.2,1.9,0.3
			c1.3,0.3,2.5,0.6,3.7,1.2c2.3,1.1,4.3,2.9,5.8,5c1.5,2.1,2.7,4.4,4,6.6c1.3,2.2,2.6,4.3,4.3,6.1c0.2,0.3,0.2,0.7,0,0.9
			C664.4,1023,663.9,1022.9,663.7,1022.6C663.7,1022.7,663.7,1022.7,663.7,1022.6L663.7,1022.6z"/>
		<path clip-path="url(#SVGID_20_)" fill="#BFA63C" d="M664.8,1022c-0.8-2.5-2-4.8-3.3-7c-1.3-2.2-2.7-4.3-3.7-6.6
			c-1.1-2.2-1.8-4.7-1.7-7.2c0.1-1.3,0.3-2.5,0.7-3.7c0.2-0.6,0.5-1.2,0.8-1.7c0.3-0.6,0.7-1.1,1.5-1.3c0.7-0.1,1.1-0.8,0.9-1.5
			c-0.1-0.7-0.8-1.1-1.5-0.9c-0.7,0.1-1.1,0.8-0.9,1.5c0,0,0,0,0,0l0,0c0.2,0.9,0,1.5-0.3,2.1c-0.3,0.6-0.5,1.2-0.7,1.8
			c-0.4,1.2-0.8,2.4-0.9,3.7c-0.3,2.6,0.2,5.2,1.2,7.6c1,2.4,2.3,4.6,3.5,6.8c1.2,2.2,2.3,4.5,3,6.9c0.1,0.4,0.5,0.6,0.8,0.5
			C664.8,1022.8,665,1022.4,664.8,1022C664.9,1022,664.9,1022,664.8,1022L664.8,1022z"/>
		<path clip-path="url(#SVGID_20_)" fill="#BFA63C" d="M664.4,1021.7c-2.3-1.2-4.8-1.9-7.3-2.6c-2.5-0.7-4.9-1.2-7.3-2.1
			c-2.3-0.8-4.6-2-6.3-3.9c-0.8-0.9-1.6-2-2.1-3.1c-0.3-0.6-0.5-1.2-0.7-1.8c-0.2-0.6-0.3-1.2,0.2-2c0.4-0.6,0.2-1.3-0.4-1.7
			c-0.6-0.4-1.3-0.2-1.7,0.4c-0.4,0.6-0.2,1.3,0.4,1.7c0,0,0,0,0,0l0,0c0.8,0.5,1.1,1,1.3,1.7c0.2,0.6,0.5,1.2,0.7,1.8
			c0.5,1.2,1.2,2.3,2,3.3c1.6,2,3.8,3.5,6.2,4.5c2.4,1,4.9,1.6,7.3,2.3c2.4,0.7,4.8,1.5,7,2.7c0.3,0.2,0.7,0.1,0.9-0.3
			C664.9,1022.3,664.8,1021.9,664.4,1021.7C664.4,1021.7,664.4,1021.7,664.4,1021.7L664.4,1021.7z"/>
		<path clip-path="url(#SVGID_20_)" fill="#BFA63C" d="M664.6,1021.8c-1.8-1.8-4-3.3-6.2-4.7c-2.2-1.4-4.3-2.6-6.3-4.2
			c-2-1.5-3.8-3.3-4.8-5.6c-0.5-1.1-0.9-2.4-1-3.6c-0.1-0.6-0.1-1.3-0.1-1.9c0-0.6,0.1-1.3,0.8-1.8c0.5-0.4,0.6-1.2,0.2-1.7
			c-0.4-0.5-1.2-0.6-1.7-0.2c-0.5,0.4-0.6,1.2-0.2,1.7c0,0,0,0,0,0l0,0c0.6,0.7,0.7,1.3,0.7,2c0,0.6,0.1,1.3,0.2,1.9
			c0.2,1.3,0.4,2.5,0.9,3.7c0.9,2.4,2.6,4.5,4.6,6.2c2,1.7,4.2,3,6.2,4.4c2.1,1.4,4.1,2.9,5.8,4.7c0.3,0.3,0.7,0.3,0.9,0
			C664.9,1022.5,664.9,1022.1,664.6,1021.8C664.6,1021.8,664.6,1021.8,664.6,1021.8L664.6,1021.8z"/>
		<path clip-path="url(#SVGID_20_)" fill="#FFFFFF" d="M636,1018.3c0-0.5,0.4-0.8,0.8-0.8c0.5,0,0.8,0.4,0.8,0.8
			c0,0.5-0.4,0.8-0.8,0.8C636.4,1019.2,636,1018.8,636,1018.3"/>
		
			<circle clip-path="url(#SVGID_20_)" fill="none" stroke="#BFA63C" stroke-width="0.741" stroke-miterlimit="10" cx="636.8" cy="1018.3" r="0.8"/>
		<path clip-path="url(#SVGID_20_)" fill="#BFA63C" d="M619.3,1018.3c0-0.5,0.4-1,1-1s1,0.4,1,1c0,0.6-0.4,1-1,1
			S619.3,1018.9,619.3,1018.3"/>
		<path clip-path="url(#SVGID_20_)" fill="none" stroke="#BFA63C" stroke-width="0.494" stroke-miterlimit="10" d="M619.3,1018.3
			c0-0.5,0.4-1,1-1s1,0.4,1,1c0,0.6-0.4,1-1,1S619.3,1018.9,619.3,1018.3z"/>
		<path clip-path="url(#SVGID_20_)" fill="#BFA63C" d="M615.5,1018.3c0-0.5,0.4-1,1-1c0.5,0,1,0.4,1,1c0,0.6-0.4,1-1,1
			C615.9,1019.3,615.5,1018.9,615.5,1018.3"/>
		<path clip-path="url(#SVGID_20_)" fill="none" stroke="#BFA63C" stroke-width="0.494" stroke-miterlimit="10" d="M615.5,1018.3
			c0-0.5,0.4-1,1-1c0.5,0,1,0.4,1,1c0,0.6-0.4,1-1,1C615.9,1019.3,615.5,1018.9,615.5,1018.3z"/>
		<path clip-path="url(#SVGID_20_)" fill="#BFA63C" d="M623.1,1018.3c0-0.5,0.4-1,1-1c0.5,0,1,0.4,1,1c0,0.6-0.4,1-1,1
			C623.5,1019.3,623.1,1018.9,623.1,1018.3"/>
		<path clip-path="url(#SVGID_20_)" fill="none" stroke="#BFA63C" stroke-width="0.494" stroke-miterlimit="10" d="M623.1,1018.3
			c0-0.5,0.4-1,1-1c0.5,0,1,0.4,1,1c0,0.6-0.4,1-1,1C623.5,1019.3,623.1,1018.9,623.1,1018.3z"/>
		<path clip-path="url(#SVGID_20_)" fill="#FFFFFF" d="M661.8,994.6c0.5,0,0.8,0.4,0.8,0.8c0,0.5-0.4,0.8-0.8,0.8
			c-0.5,0-0.8-0.4-0.8-0.8C661,995,661.3,994.6,661.8,994.6"/>
		
			<circle clip-path="url(#SVGID_20_)" fill="none" stroke="#BFA63C" stroke-width="0.741" stroke-miterlimit="10" cx="661.8" cy="995.5" r="0.8"/>
		<path clip-path="url(#SVGID_20_)" fill="#BFA63C" d="M661.8,977.9c0.5,0,1,0.4,1,1c0,0.5-0.4,1-1,1c-0.5,0-1-0.4-1-1
			C660.8,978.4,661.2,977.9,661.8,977.9"/>
		
			<circle clip-path="url(#SVGID_20_)" fill="none" stroke="#BFA63C" stroke-width="0.494" stroke-miterlimit="10" cx="661.8" cy="978.9" r="1"/>
		<path clip-path="url(#SVGID_20_)" fill="#BFA63C" d="M661.8,974.1c0.5,0,1,0.4,1,1c0,0.5-0.4,1-1,1c-0.5,0-1-0.4-1-1
			C660.8,974.6,661.2,974.1,661.8,974.1"/>
		
			<circle clip-path="url(#SVGID_20_)" fill="none" stroke="#BFA63C" stroke-width="0.494" stroke-miterlimit="10" cx="661.8" cy="975.1" r="1"/>
		<path clip-path="url(#SVGID_20_)" fill="#BFA63C" d="M661.8,981.7c0.5,0,1,0.4,1,1c0,0.5-0.4,1-1,1c-0.5,0-1-0.4-1-1
			C660.8,982.1,661.2,981.7,661.8,981.7"/>
		
			<circle clip-path="url(#SVGID_20_)" fill="none" stroke="#BFA63C" stroke-width="0.494" stroke-miterlimit="10" cx="661.8" cy="982.7" r="1"/>
		<rect x="661.2" y="941.9" clip-path="url(#SVGID_20_)" fill="#FBF6E7" width="1" height="13.2"/>
	</g>
	<g clip-path="url(#SVGID_2_)">
		<defs>
			<rect id="SVGID_21_" x="3" y="3" width="666.1" height="468.8"/>
		</defs>
		<clipPath id="SVGID_22_">
			<use xlink:href="#SVGID_21_"  overflow="visible"/>
		</clipPath>
		<path clip-path="url(#SVGID_22_)" fill="#BFA63C" d="M654.2,948c0,0.3,0.3,0.6,0.6,0.6c0.3,0,0.6-0.3,0.6-0.6
			c0-0.1-0.1-0.3-0.1-0.4c0.4-0.2,0.8-0.3,0.8-0.3c0.3-0.1,0.6-0.1,0.8-0.1c1.1,0,2,0.6,2.6,1.3c0.6,0.7,0.9,1.3,0.9,1.3
			c0.6,1.1,0.9,3.2,1,5.4c-0.1-0.4-0.2-0.8-0.4-1.3c-0.7-2-1.8-4.1-3.7-4.1c-0.3,0-0.6,0.1-0.9,0.2l0,0c-0.3,0.1-0.4,0.3-0.4,0.6
			c0,0.3,0.3,0.6,0.6,0.6c0.3,0,0.6-0.3,0.6-0.6c0-0.1,0-0.2,0-0.2c0.1,0,0.2,0,0.2,0c1.5-0.1,2.6,1.8,3.2,3.7
			c0.6,1.9,0.9,3.9,0.9,3.9v0l0,0c0,0.3,0,0.6,0,0.8c0.1,0,0.2,0,0.3,0c0.1,0,0.1,0,0.2,0c0-0.4,0-0.9,0-1.4c0-2.9-0.3-6.2-1.1-7.9
			c0,0-1.4-2.9-3.9-2.9c-0.3,0-0.6,0.1-1,0.2c0,0-0.7,0.1-1.4,0.6c0,0,0,0,0,0c0,0-0.1,0-0.1,0.1l0,0
			C654.3,947.6,654.2,947.8,654.2,948"/>
		<path clip-path="url(#SVGID_22_)" fill="#BFA63C" d="M669.1,948c0,0.3-0.3,0.6-0.6,0.6c-0.3,0-0.6-0.3-0.6-0.6
			c0-0.1,0.1-0.3,0.1-0.4c-0.4-0.2-0.8-0.3-0.8-0.3c-0.3-0.1-0.6-0.1-0.8-0.1c-1.1,0-2,0.6-2.6,1.3c-0.6,0.7-0.9,1.3-0.9,1.3
			c-0.6,1.1-0.9,3.2-1,5.4c0.1-0.4,0.2-0.8,0.4-1.3c0.7-2,1.8-4.1,3.7-4.1c0.3,0,0.6,0.1,0.9,0.2l0,0c0.3,0.1,0.4,0.3,0.4,0.6
			c0,0.3-0.3,0.6-0.6,0.6c-0.3,0-0.6-0.3-0.6-0.6c0-0.1,0-0.2,0-0.2c-0.1,0-0.2,0-0.2,0c-1.5-0.1-2.6,1.8-3.2,3.7
			c-0.6,1.9-0.9,3.9-0.9,3.9v0l0,0c0,0.3,0,0.6,0,0.8c-0.1,0-0.2,0-0.3,0c-0.1,0-0.1,0-0.2,0c0-0.4,0-0.9,0-1.4
			c0-2.9,0.3-6.2,1.1-7.9c0,0,1.4-2.9,3.9-2.9c0.3,0,0.6,0.1,1,0.2c0,0,0.7,0.1,1.4,0.6c0,0,0,0,0,0c0,0,0.1,0,0.1,0.1l0,0
			C669,947.6,669.2,947.8,669.1,948"/>
	</g>
	<g clip-path="url(#SVGID_2_)">
		<defs>
			<rect id="SVGID_23_" x="3" y="3" width="666.1" height="468.9"/>
		</defs>
		<clipPath id="SVGID_24_">
			<use xlink:href="#SVGID_23_"  overflow="visible"/>
		</clipPath>
		<path clip-path="url(#SVGID_24_)" fill="#BFA63C" d="M661.7,941.1c0.4,0,0.7,0.3,0.7,0.7c0,0.4-0.3,0.7-0.7,0.7
			c-0.4,0-0.7-0.3-0.7-0.7C661,941.4,661.3,941.1,661.7,941.1"/>
		<rect x="582.3" y="1017.8" clip-path="url(#SVGID_24_)" fill="#FBF6E7" width="13.2" height="1"/>
		<path clip-path="url(#SVGID_24_)" fill="#BFA63C" d="M588.4,1025.8c0.3,0,0.6-0.3,0.6-0.6c0-0.3-0.3-0.6-0.6-0.6
			c-0.1,0-0.3,0.1-0.4,0.1c-0.2-0.4-0.3-0.8-0.3-0.8c-0.1-0.3-0.1-0.6-0.1-0.8c0-1.1,0.6-1.9,1.3-2.6c0.7-0.6,1.3-0.9,1.4-0.9
			c1.1-0.6,3.2-0.9,5.4-1c-0.4,0.1-0.8,0.2-1.3,0.4c-2,0.7-4.1,1.8-4.1,3.7c0,0.3,0.1,0.6,0.2,0.9l0,0c0.1,0.2,0.3,0.4,0.6,0.4
			c0.3,0,0.6-0.3,0.6-0.6c0-0.3-0.3-0.6-0.6-0.6c-0.1,0-0.2,0-0.2,0c0-0.1,0-0.2,0-0.2c-0.1-1.5,1.8-2.6,3.7-3.2
			c1.9-0.7,3.9-0.9,3.9-0.9h0l0,0h0.8c0-0.1,0-0.2,0-0.3c0-0.1,0-0.1,0-0.2c-0.4,0-0.9,0-1.4,0c-2.9,0-6.2,0.3-7.9,1.1
			c0,0-2.9,1.4-2.9,3.9c0,0.3,0.1,0.6,0.2,0.9c0,0,0.1,0.7,0.6,1.4c0,0,0,0,0,0c0,0,0,0.1,0.1,0.1h0
			C588,1025.7,588.2,1025.8,588.4,1025.8"/>
		<path clip-path="url(#SVGID_24_)" fill="#BFA63C" d="M588.4,1010.9c0.3,0,0.6,0.3,0.6,0.6c0,0.3-0.3,0.6-0.6,0.6
			c-0.1,0-0.3-0.1-0.4-0.1c-0.2,0.4-0.3,0.8-0.3,0.8c-0.1,0.3-0.1,0.6-0.1,0.8c0,1.1,0.6,2,1.3,2.6c0.7,0.6,1.3,0.9,1.4,0.9
			c1.1,0.6,3.2,0.9,5.4,1c-0.4-0.1-0.8-0.2-1.3-0.4c-2-0.7-4.1-1.8-4.1-3.7c0-0.3,0.1-0.6,0.2-0.9l0,0c0.1-0.2,0.3-0.4,0.6-0.4
			c0.3,0,0.6,0.3,0.6,0.6c0,0.3-0.3,0.6-0.6,0.6c-0.1,0-0.2,0-0.2,0c0,0.1,0,0.2,0,0.2c-0.1,1.5,1.8,2.6,3.7,3.2
			c1.9,0.7,3.9,0.9,3.9,0.9h0l0,0h0.8c0,0.1,0,0.2,0,0.3c0,0.1,0,0.1,0,0.2c-0.4,0-0.9,0-1.4,0c-2.9,0-6.2-0.3-7.9-1.1
			c0,0-2.9-1.4-2.9-3.9c0-0.3,0.1-0.6,0.2-1c0,0,0.1-0.7,0.6-1.4c0,0,0,0,0,0c0,0,0-0.1,0.1-0.1h0
			C588,1011,588.2,1010.9,588.4,1010.9"/>
		<path clip-path="url(#SVGID_24_)" fill="#BFA63C" d="M581.5,1018.3c0-0.4,0.3-0.7,0.7-0.7c0.4,0,0.7,0.3,0.7,0.7
			c0,0.4-0.3,0.7-0.7,0.7C581.8,1019,581.5,1018.7,581.5,1018.3"/>
	</g>
</g>
</svg>
