<?xml version="1.0" encoding="utf-8"?>
<!-- Generator: Adobe Illustrator 18.0.0, SVG Export Plug-In . SVG Version: 6.00 Build 0)  -->
<!DOCTYPE svg PUBLIC "-//W3C//DTD SVG 1.1//EN" "http://www.w3.org/Graphics/SVG/1.1/DTD/svg11.dtd">
<svg version="1.1" id="Layer_1" xmlns="http://www.w3.org/2000/svg" xmlns:xlink="http://www.w3.org/1999/xlink" x="0px" y="0px"
	 viewBox="0 0 216 34.7" enable-background="new 0 0 216 34.7" xml:space="preserve">
<text transform="matrix(1 0 0 1 233.5842 52.4564)" font-family="'BodoniSvtyTwoOSITCTTBookIt'" font-size="9.6974"> </text>
<line fill="none" stroke="#000000" stroke-linecap="round" stroke-linejoin="round" stroke-dasharray="0,1.92" x1="100.4" y1="10.7" x2="116.7" y2="10.7"/>
<path fill="none" stroke="#000000" stroke-linecap="round" stroke-linejoin="round" d="M117.7,10.7L117.7,10.7 M98.5,10.7L98.5,10.7
	"/>
<g>
	<defs>
		<rect id="SVGID_1_" x="-243.5" y="-698.7" width="702" height="1062"/>
	</defs>
	<clipPath id="SVGID_2_">
		<use xlink:href="#SVGID_1_"  overflow="visible"/>
	</clipPath>
	<path clip-path="url(#SVGID_2_)" d="M108.1,21.3c0.7,0,1.3-0.6,1.3-1.3c0-0.7-0.6-1.3-1.3-1.3c-0.7,0-1.3,0.6-1.3,1.3
		C106.8,20.8,107.4,21.3,108.1,21.3"/>
	<path clip-path="url(#SVGID_2_)" fill="#BAAA5C" d="M82.9,19.4c-2-1.3-4.2-2.2-6.6-2.7c-2.4-0.6-4.9-0.8-7.3-0.7
		c-2.5,0.1-4.9,0.5-7.2,1.3c-2.3,0.8-4.5,1.8-6.7,2.8c-2.2,1-4.5,2-7,2.6c-1.3,0.3-2.6,0.4-3.9,0.2c-1.3-0.1-2.6-0.4-3.8-0.9
		c-2.4-0.9-4.4-2.3-6.3-3.8c-1.8-1.5-3.5-3.3-4.3-5.4c-0.4-1.1-0.5-2.2-0.2-3.4c0.1-0.6,0.4-1.1,0.8-1.6c0.4-0.5,0.9-0.9,1.6-1.1
		c0.6-0.2,1.4-0.3,2-0.2c0.7,0.1,1.3,0.3,1.9,0.6c1.2,0.6,2,1.6,2.2,2.7c0.2,1.1,0,2.3-0.4,3.3c-0.5,1-1.2,2-2.1,2.8
		c-0.5,0.4-1,0.7-1.6,0.9c-0.6,0.2-1.2,0.3-1.9,0.4c-1.3,0.1-2.6-0.1-3.8-0.4c-2.4-0.7-4.6-1.8-6.9-2.6c-1.1-0.4-2.3-0.7-3.6-0.9
		c-1.2-0.1-2.5-0.1-3.7,0.2c-1.2,0.3-2.3,0.9-3.2,1.6c-0.9,0.7-1.7,1.6-2.4,2.5c-0.7,0.9-1.3,1.9-1.8,2.8c-0.3,0.5-0.5,1-0.8,1.5
		c-0.2,0.5-0.6,0.9-0.4,1.6c0.1,0.2-0.1,0.5-0.3,0.5c-0.3,0.1-0.6-0.1-0.6-0.3c-0.1-0.2,0-0.4,0.3-0.5c0.7-0.3,0.8-0.9,1.1-1.4
		c0.2-0.5,0.5-1,0.8-1.5c0.5-1,1.1-1.9,1.8-2.9c0.7-0.9,1.4-1.8,2.4-2.5c0.9-0.7,2-1.3,3.3-1.6c1.2-0.3,2.5-0.4,3.8-0.2
		c1.3,0.1,2.5,0.4,3.6,0.9c2.3,0.8,4.5,1.9,6.9,2.6c1.2,0.3,2.4,0.5,3.7,0.4c1.2-0.1,2.4-0.5,3.3-1.3c0.9-0.7,1.6-1.6,2-2.6
		c0.4-1,0.6-2.1,0.3-3.1c-0.2-1-1-1.9-2-2.4c-1-0.5-2.3-0.7-3.4-0.3c-1.1,0.4-1.7,1.4-1.9,2.3c-0.2,1-0.1,2.1,0.2,3
		c0.8,2,2.4,3.7,4.2,5.1c1.8,1.4,3.8,2.8,6.1,3.6c1.1,0.4,2.3,0.7,3.5,0.8c1.2,0.1,2.4,0,3.6-0.3c2.4-0.5,4.6-1.5,6.8-2.5
		c2.2-1,4.4-2.1,6.8-2.9c2.4-0.8,5-1.2,7.5-1.3c2.6-0.1,5.1,0.2,7.6,0.9c2.4,0.6,4.8,1.6,6.7,3.1l0,0c0.1,0.1,0.1,0.3,0,0.4
		C83.2,19.5,83,19.5,82.9,19.4"/>
	<path clip-path="url(#SVGID_2_)" fill="#BAAA5C" d="M52.1,21.2c-1.1,0.5-2.2,0.9-3.3,1.2c-1.1,0.3-2.3,0.6-3.4,1
		c-1.1,0.4-2.1,0.9-2.9,1.7c-0.4,0.4-0.7,0.8-0.9,1.3c-0.1,0.2-0.2,0.5-0.3,0.7c-0.1,0.2-0.1,0.5,0.1,0.8c0.2,0.2,0.1,0.5-0.1,0.7
		c-0.3,0.2-0.6,0.1-0.8-0.1c-0.2-0.2-0.1-0.5,0.1-0.7c0,0,0,0,0,0l0,0c0.4-0.2,0.5-0.4,0.6-0.7c0.1-0.2,0.2-0.5,0.3-0.7
		c0.2-0.5,0.5-0.9,0.9-1.3c0.7-0.8,1.7-1.5,2.8-1.9c1.1-0.4,2.2-0.7,3.4-1.1c1.1-0.3,2.2-0.7,3.2-1.2c0.1-0.1,0.3,0,0.4,0.1
		C52.3,21,52.2,21.1,52.1,21.2C52.1,21.2,52.1,21.2,52.1,21.2L52.1,21.2z"/>
	<path clip-path="url(#SVGID_2_)" fill="#BAAA5C" d="M40.7,25.2c-0.1,0.1-0.2,0.2-0.3,0.2c-0.1,0.1-0.2,0.1-0.3,0.1
		c-0.2,0.1-0.4,0.1-0.7,0c0,0-0.1,0-0.1-0.1c0,0,0,0,0,0c0.1-0.3,0.3-0.4,0.5-0.5c0.1,0,0.2,0,0.4,0C40.5,25,40.6,25.1,40.7,25.2
		L40.7,25.2C40.8,25.2,40.7,25.2,40.7,25.2"/>
	<path clip-path="url(#SVGID_2_)" fill="#BAAA5C" d="M82.7,16c-2,1.3-4.2,2.2-6.6,2.7c-2.4,0.6-4.9,0.8-7.3,0.7
		c-2.5-0.1-4.9-0.5-7.2-1.3c-2.3-0.8-4.5-1.8-6.7-2.8c-2.2-1-4.5-2-7-2.6c-1.3-0.3-2.6-0.4-3.9-0.2c-1.3,0.1-2.6,0.4-3.8,0.9
		c-2.4,0.9-4.4,2.3-6.3,3.8c-1.8,1.5-3.5,3.3-4.3,5.4c-0.4,1.1-0.5,2.2-0.2,3.4c0.1,0.6,0.4,1.1,0.8,1.6c0.4,0.5,0.9,0.9,1.6,1.1
		c0.6,0.2,1.4,0.3,2,0.2c0.7-0.1,1.3-0.3,1.9-0.6c1.2-0.6,2-1.6,2.2-2.7c0.2-1.1,0-2.3-0.4-3.3c-0.5-1-1.2-2-2.1-2.8
		c-0.5-0.4-1-0.7-1.6-0.9c-0.6-0.2-1.2-0.3-1.9-0.4c-1.3-0.1-2.6,0.1-3.8,0.4c-2.4,0.7-4.6,1.8-6.9,2.6c-1.1,0.4-2.3,0.7-3.6,0.9
		c-1.2,0.1-2.5,0.1-3.7-0.2c-1.2-0.3-2.3-0.9-3.2-1.6c-0.9-0.7-1.7-1.6-2.4-2.5C7.6,17,7,16,6.5,15c-0.3-0.5-0.5-1-0.8-1.5
		C5.5,13,5,12.6,5.3,11.9c0.1-0.2-0.1-0.5-0.3-0.5c-0.3-0.1-0.6,0.1-0.6,0.3c-0.1,0.2,0,0.4,0.3,0.5c0.7,0.3,0.8,0.9,1.1,1.4
		c0.2,0.5,0.5,1,0.8,1.5c0.5,1,1.1,1.9,1.8,2.9c0.7,0.9,1.4,1.8,2.4,2.5c0.9,0.7,2,1.3,3.3,1.6c1.2,0.3,2.5,0.4,3.8,0.2
		c1.3-0.1,2.5-0.4,3.6-0.9c2.3-0.8,4.5-1.9,6.9-2.6c1.2-0.3,2.4-0.5,3.7-0.4c1.2,0.1,2.4,0.5,3.3,1.3c0.9,0.7,1.6,1.6,2,2.6
		c0.4,1,0.6,2.1,0.3,3.1c-0.2,1-1,1.9-2,2.4c-1,0.5-2.3,0.7-3.4,0.3c-1.1-0.4-1.7-1.4-1.9-2.3c-0.2-1-0.1-2.1,0.2-3
		c0.8-2,2.4-3.7,4.2-5.1c1.8-1.4,3.8-2.8,6.1-3.6c1.1-0.4,2.3-0.7,3.5-0.8c1.2-0.1,2.4,0,3.6,0.3c2.4,0.5,4.6,1.5,6.8,2.5
		c2.2,1,4.4,2.1,6.8,2.9c2.4,0.8,5,1.2,7.5,1.3c2.6,0.1,5.1-0.2,7.6-0.9c2.4-0.6,4.8-1.6,6.7-3.1l0,0c0.1-0.1,0.1-0.3,0-0.4
		C83,15.9,82.8,15.9,82.7,16"/>
	<path clip-path="url(#SVGID_2_)" fill="#BAAA5C" d="M51.9,14.2c-1.1-0.5-2.2-0.9-3.3-1.2c-1.1-0.3-2.3-0.6-3.4-1
		c-1.1-0.4-2.1-0.9-2.9-1.7C42,10,41.7,9.5,41.4,9.1c-0.1-0.2-0.2-0.5-0.3-0.7c-0.1-0.2-0.1-0.5,0.1-0.8c0.2-0.2,0.1-0.5-0.1-0.7
		c-0.3-0.2-0.6-0.1-0.8,0.1c-0.2,0.2-0.1,0.5,0.1,0.7c0,0,0,0,0,0l0,0c0.4,0.2,0.5,0.4,0.6,0.7c0.1,0.2,0.2,0.5,0.3,0.7
		c0.2,0.5,0.5,0.9,0.9,1.3c0.7,0.8,1.7,1.5,2.8,1.9c1.1,0.4,2.2,0.7,3.4,1.1c1.1,0.3,2.2,0.7,3.2,1.2c0.1,0.1,0.3,0,0.4-0.1
		C52.1,14.4,52,14.3,51.9,14.2C51.9,14.2,51.9,14.2,51.9,14.2L51.9,14.2z"/>
	<path clip-path="url(#SVGID_2_)" fill="#BAAA5C" d="M40.6,10.2c-0.1-0.1-0.2-0.2-0.3-0.2c-0.1-0.1-0.2-0.1-0.3-0.1
		c-0.2-0.1-0.4-0.1-0.7,0c0,0-0.1,0-0.1,0.1c0,0,0,0,0,0c0.1,0.3,0.3,0.4,0.5,0.5c0.1,0,0.2,0,0.4,0C40.3,10.4,40.5,10.3,40.6,10.2
		L40.6,10.2C40.6,10.2,40.6,10.2,40.6,10.2"/>
	<path clip-path="url(#SVGID_2_)" fill="#BAAA5C" d="M133.1,19.9c2-1.3,4.2-2.2,6.6-2.7c2.4-0.6,4.9-0.8,7.3-0.7
		c2.5,0.1,4.9,0.5,7.2,1.3c2.3,0.8,4.5,1.8,6.7,2.8c2.2,1,4.5,2,7,2.6c1.3,0.3,2.6,0.4,3.9,0.2c1.3-0.1,2.6-0.4,3.8-0.9
		c2.4-0.9,4.4-2.3,6.3-3.8c1.8-1.5,3.5-3.3,4.3-5.4c0.4-1.1,0.5-2.2,0.2-3.4c-0.1-0.6-0.4-1.1-0.8-1.6c-0.4-0.5-0.9-0.9-1.6-1.1
		c-0.6-0.2-1.4-0.3-2-0.2c-0.7,0.1-1.3,0.3-1.9,0.6c-1.2,0.6-2,1.6-2.2,2.7c-0.2,1.1,0,2.3,0.4,3.3c0.5,1,1.2,2,2.1,2.8
		c0.5,0.4,1,0.7,1.6,0.9c0.6,0.2,1.2,0.3,1.9,0.4c1.3,0.1,2.6-0.1,3.8-0.4c2.4-0.7,4.6-1.8,6.9-2.6c1.1-0.4,2.3-0.7,3.6-0.9
		c1.2-0.1,2.5-0.1,3.7,0.2c1.2,0.3,2.3,0.9,3.2,1.6c0.9,0.7,1.7,1.6,2.4,2.5c0.7,0.9,1.3,1.9,1.8,2.8c0.3,0.5,0.5,1,0.8,1.5
		c0.2,0.5,0.6,0.9,0.4,1.6c-0.1,0.2,0.1,0.5,0.3,0.5c0.3,0.1,0.6-0.1,0.6-0.3c0.1-0.2,0-0.4-0.3-0.5c-0.7-0.3-0.8-0.9-1.1-1.4
		c-0.2-0.5-0.5-1-0.8-1.5c-0.5-1-1.1-1.9-1.8-2.9c-0.7-0.9-1.4-1.8-2.4-2.5c-0.9-0.7-2-1.3-3.3-1.6c-1.2-0.3-2.5-0.4-3.8-0.2
		c-1.3,0.1-2.5,0.4-3.6,0.9c-2.3,0.8-4.5,1.9-6.9,2.6c-1.2,0.3-2.4,0.5-3.7,0.4c-1.2-0.1-2.4-0.5-3.3-1.3c-0.9-0.7-1.6-1.6-2-2.6
		c-0.4-1-0.6-2.1-0.3-3.1c0.2-1,1-1.9,2-2.4c1-0.5,2.3-0.7,3.4-0.3c1.1,0.4,1.7,1.4,1.9,2.3c0.2,1,0.1,2.1-0.2,3
		c-0.8,2-2.4,3.7-4.2,5.1c-1.8,1.4-3.8,2.8-6.1,3.6c-1.1,0.4-2.3,0.7-3.5,0.8c-1.2,0.1-2.4,0-3.6-0.3c-2.4-0.5-4.6-1.5-6.8-2.5
		c-2.2-1-4.4-2.1-6.8-2.9c-2.4-0.8-5-1.2-7.5-1.3c-2.6-0.1-5.1,0.2-7.6,0.9c-2.4,0.6-4.8,1.6-6.7,3.1l0,0c-0.1,0.1-0.1,0.3,0,0.4
		C132.8,20,132.9,20,133.1,19.9"/>
	<path clip-path="url(#SVGID_2_)" fill="#BAAA5C" d="M163.9,21.7c1.1,0.5,2.2,0.9,3.3,1.2c1.1,0.3,2.3,0.6,3.4,1
		c1.1,0.4,2.1,0.9,2.9,1.7c0.4,0.4,0.7,0.8,0.9,1.3c0.1,0.2,0.2,0.5,0.3,0.7c0.1,0.2,0.1,0.5-0.1,0.8c-0.2,0.2-0.1,0.5,0.1,0.7
		c0.3,0.2,0.6,0.1,0.8-0.1c0.2-0.2,0.1-0.5-0.1-0.7c0,0,0,0,0,0l0,0c-0.4-0.2-0.5-0.4-0.6-0.7c-0.1-0.2-0.2-0.5-0.3-0.7
		c-0.2-0.5-0.5-0.9-0.9-1.3c-0.7-0.8-1.7-1.5-2.8-1.9c-1.1-0.4-2.2-0.7-3.4-1.1c-1.1-0.3-2.2-0.7-3.2-1.2c-0.1-0.1-0.3,0-0.4,0.1
		C163.7,21.5,163.7,21.6,163.9,21.7C163.9,21.7,163.9,21.7,163.9,21.7L163.9,21.7z"/>
	<path clip-path="url(#SVGID_2_)" fill="#BAAA5C" d="M175.2,25.7c0.1,0.1,0.2,0.2,0.3,0.2c0.1,0.1,0.2,0.1,0.3,0.1
		c0.2,0.1,0.4,0.1,0.7,0c0,0,0.1,0,0.1-0.1c0,0,0,0,0,0c-0.1-0.3-0.3-0.4-0.5-0.5c-0.1,0-0.2,0-0.4,0
		C175.4,25.5,175.3,25.6,175.2,25.7L175.2,25.7C175.2,25.7,175.2,25.7,175.2,25.7"/>
	<path clip-path="url(#SVGID_2_)" fill="#BAAA5C" d="M133.2,16.5c2,1.3,4.2,2.2,6.6,2.7c2.4,0.6,4.9,0.8,7.3,0.7
		c2.5-0.1,4.9-0.5,7.2-1.3c2.3-0.8,4.5-1.8,6.7-2.8c2.2-1,4.5-2,7-2.6c1.3-0.3,2.6-0.4,3.9-0.2c1.3,0.1,2.6,0.4,3.8,0.9
		c2.4,0.9,4.4,2.3,6.3,3.8c1.8,1.5,3.5,3.3,4.3,5.4c0.4,1.1,0.5,2.2,0.2,3.4c-0.1,0.6-0.4,1.1-0.8,1.6c-0.4,0.5-0.9,0.9-1.6,1.1
		c-0.6,0.2-1.4,0.3-2,0.2c-0.7-0.1-1.3-0.3-1.9-0.6c-1.2-0.6-2-1.6-2.2-2.7c-0.2-1.1,0-2.3,0.4-3.3c0.5-1,1.2-2,2.1-2.8
		c0.5-0.4,1-0.7,1.6-0.9c0.6-0.2,1.2-0.3,1.9-0.4c1.3-0.1,2.6,0.1,3.8,0.4c2.4,0.7,4.6,1.8,6.9,2.6c1.1,0.4,2.3,0.7,3.6,0.9
		c1.2,0.1,2.5,0.1,3.7-0.2c1.2-0.3,2.3-0.9,3.2-1.6c0.9-0.7,1.7-1.6,2.4-2.5c0.7-0.9,1.3-1.9,1.8-2.8c0.3-0.5,0.5-1,0.8-1.5
		c0.2-0.5,0.6-0.9,0.4-1.6c-0.1-0.2,0.1-0.5,0.3-0.5c0.3-0.1,0.6,0.1,0.6,0.3c0.1,0.2,0,0.4-0.3,0.5c-0.7,0.3-0.8,0.9-1.1,1.4
		c-0.2,0.5-0.5,1-0.8,1.5c-0.5,1-1.1,1.9-1.8,2.9c-0.7,0.9-1.4,1.8-2.4,2.5c-0.9,0.7-2,1.3-3.3,1.6c-1.2,0.3-2.5,0.4-3.8,0.2
		c-1.3-0.1-2.5-0.4-3.6-0.9c-2.3-0.8-4.5-1.9-6.9-2.6c-1.2-0.3-2.4-0.5-3.7-0.4c-1.2,0.1-2.4,0.5-3.3,1.3c-0.9,0.7-1.6,1.6-2,2.6
		c-0.4,1-0.6,2.1-0.3,3.1c0.2,1,1,1.9,2,2.4c1,0.5,2.3,0.7,3.4,0.3c1.1-0.4,1.7-1.4,1.9-2.3c0.2-1,0.1-2.1-0.2-3
		c-0.8-2-2.4-3.7-4.2-5.1c-1.8-1.4-3.8-2.8-6.1-3.6c-1.1-0.4-2.3-0.7-3.5-0.8c-1.2-0.1-2.4,0-3.6,0.3c-2.4,0.5-4.6,1.5-6.8,2.5
		c-2.2,1-4.4,2.1-6.8,2.9c-2.4,0.8-5,1.2-7.5,1.3c-2.6,0.1-5.1-0.2-7.6-0.9c-2.4-0.6-4.8-1.6-6.7-3.1l0,0c-0.1-0.1-0.1-0.3,0-0.4
		C132.9,16.4,133.1,16.4,133.2,16.5"/>
	<path clip-path="url(#SVGID_2_)" fill="#BAAA5C" d="M164.1,14.7c1.1-0.5,2.2-0.9,3.3-1.2c1.1-0.3,2.3-0.6,3.4-1
		c1.1-0.4,2.1-0.9,2.9-1.7c0.4-0.4,0.7-0.8,0.9-1.3c0.1-0.2,0.2-0.5,0.3-0.7c0.1-0.2,0.1-0.5-0.1-0.8c-0.2-0.2-0.1-0.5,0.1-0.7
		c0.3-0.2,0.6-0.1,0.8,0.1c0.2,0.2,0.1,0.5-0.1,0.7c0,0,0,0,0,0l0,0c-0.4,0.2-0.5,0.4-0.6,0.7c-0.1,0.2-0.2,0.5-0.3,0.7
		c-0.2,0.5-0.5,0.9-0.9,1.3c-0.7,0.8-1.7,1.5-2.8,1.9c-1.1,0.4-2.2,0.7-3.4,1.1c-1.1,0.3-2.2,0.7-3.2,1.2c-0.1,0.1-0.3,0-0.4-0.1
		C163.8,14.9,163.9,14.8,164.1,14.7C164,14.7,164,14.7,164.1,14.7L164.1,14.7z"/>
	<path clip-path="url(#SVGID_2_)" fill="#BAAA5C" d="M175.4,10.7c0.1-0.1,0.2-0.2,0.3-0.2c0.1-0.1,0.2-0.1,0.3-0.1
		c0.2-0.1,0.4-0.1,0.7,0c0,0,0.1,0,0.1,0.1c0,0,0,0,0,0c-0.1,0.3-0.3,0.4-0.5,0.5c-0.1,0-0.2,0-0.4,0
		C175.6,10.9,175.5,10.8,175.4,10.7L175.4,10.7C175.4,10.7,175.4,10.7,175.4,10.7"/>
</g>
</svg>
