<?xml version="1.0" encoding="utf-8"?>
<!-- Generator: Adobe Illustrator 18.0.0, SVG Export Plug-In . SVG Version: 6.00 Build 0)  -->
<!DOCTYPE svg PUBLIC "-//W3C//DTD SVG 1.1//EN" "http://www.w3.org/Graphics/SVG/1.1/DTD/svg11.dtd">
<svg version="1.1" id="Layer_1" xmlns="http://www.w3.org/2000/svg" xmlns:xlink="http://www.w3.org/1999/xlink" x="0px" y="0px"
	 viewBox="0 0 14 11.9" enable-background="new 0 0 14 11.9" xml:space="preserve">
<g>
	<g>
		<path fill="#BFA63C" d="M25-29.9c-0.4,0.1-0.7-0.2-0.8-0.5c-0.1-0.4,0.2-0.7,0.6-0.8c0.4-0.1,0.7,0.2,0.8,0.5
			C25.6-30.3,25.4-29.9,25-29.9z"/>
	</g>
	<g>
		<path fill="#BFA63C" d="M36.9-26.9c-0.4,0.1-0.7-0.2-0.8-0.5c-0.1-0.4,0.2-0.7,0.6-0.8c0.4-0.1,0.7,0.2,0.8,0.5
			C37.6-27.3,37.3-27,36.9-26.9z"/>
	</g>
	<g>
		<path fill="#BFA63C" d="M34.5-21.7c-0.4,0-0.7-0.3-0.7-0.7c0-0.4,0.3-0.6,0.7-0.6c0.4,0,0.7,0.3,0.7,0.7
			C35.2-22,34.8-21.7,34.5-21.7z"/>
	</g>
	<g>
		<path fill="#BFA63C" d="M34.6-22.4c-0.1,0-0.2,0-0.3,0.2c-0.5,2.4-2.5,2.8-4.8,2.3c-2-0.5-3.2-2.7-2.7-5c0.2-0.8,0.6-1.7,1.4-2.4
			c1.9-1.9,4.6-1.6,6-1.3c0.6,0.1,0.9,0.3,0.9,0.3c0,0,0.9,0.3,1.9,1.1c0-0.2,0.1-0.3,0.1-0.5c-1-0.7-1.8-1-1.9-1c0,0-0.4-0.1-1-0.3
			c-1.5-0.3-4.4-0.6-6.4,1.4c-0.8,0.8-1.3,1.7-1.5,2.6c-0.6,2.4,0.8,5,3.1,5.5c2.4,0.5,4.8,0,5.4-2.6C34.8-22.2,34.7-22.3,34.6-22.4
			z"/>
	</g>
	<g>
		<path fill="#BFA63C" d="M27.8-27c0,0-1.2,0.5-2.4,0.2l0,0c-0.6-0.1-1.1-0.4-1.5-1.1l0,0c-0.4-0.6-0.4-1.1-0.3-1.6l0,0
			c0.2-0.9,1.1-1.2,1.1-1.2l0,0c0.1,0,0.2,0,0.3,0.1l0,0c0,0.1,0,0.2-0.1,0.3l0,0c0,0-0.2,0.1-0.4,0.2l0,0c-0.2,0.1-0.4,0.4-0.5,0.7
			l0,0c-0.1,0.3,0,0.7,0.3,1.2l0,0c0.3,0.5,0.7,0.8,1.2,0.9l0,0c1,0.2,2.2-0.2,2.2-0.2l0,0l0,0c0.1,0,0.2,0,0.3,0.1l0,0
			c0,0,0,0.1,0,0.1l0,0C27.9-27.1,27.9-27.1,27.8-27L27.8-27z"/>
		<path fill="#BFA63C" d="M27.8-27.2C27.8-27.2,27.8-27.2,27.8-27.2L27.8-27.2c0-0.1,0-0.1-0.1-0.1l0,0c0,0,0,0,0,0l0,0
			c0,0,0,0-0.1,0l0,0c0,0-0.1,0-0.1,0l0,0c-0.1,0-0.3,0.1-0.5,0.1l0,0c-0.4,0.1-1,0.1-1.5,0l0,0c0,0,0,0,0,0l0,0
			c-0.5-0.1-1-0.4-1.3-0.9l0,0c-0.3-0.6-0.4-1-0.3-1.3l0,0c0,0,0,0,0,0l0,0l0,0l0,0c0.1-0.3,0.3-0.6,0.5-0.7l0,0
			c0.1-0.1,0.3-0.2,0.3-0.2l0,0l0,0l0.1,0c0,0,0.1,0,0.1-0.1l0,0c0,0,0,0,0-0.1l0,0c0,0,0-0.1-0.1-0.1l0,0c0,0,0,0,0,0l0,0
			c-0.1,0-0.1,0-0.2,0.1l0,0c-0.1,0-0.2,0.1-0.3,0.2l0,0c-0.2,0.2-0.5,0.5-0.6,0.9l0,0c-0.1,0.4,0,0.9,0.3,1.5l0,0
			c0.3,0.6,0.9,0.9,1.4,1l0,0c0,0,0,0,0,0l0,0l0,0.1l0-0.1C26.5-26.7,27.6-27.1,27.8-27.2L27.8-27.2L27.8-27.2
			C27.8-27.2,27.8-27.2,27.8-27.2L27.8-27.2z"/>
	</g>
</g>
<g>
	<g>
		<path fill="#BFA63C" d="M12.5,1.3c0.4,0.1,0.7-0.2,0.8-0.5c0.1-0.4-0.2-0.7-0.6-0.8c-0.4-0.1-0.7,0.2-0.8,0.5
			C11.9,0.9,12.1,1.2,12.5,1.3z"/>
	</g>
	<g>
		<path fill="#BFA63C" d="M0.6,4.3c0.4,0.1,0.7-0.2,0.8-0.5C1.4,3.4,1.2,3,0.8,2.9C0.4,2.9,0.1,3.1,0,3.5C-0.1,3.8,0.2,4.2,0.6,4.3z
			"/>
	</g>
	<g>
		<path fill="#BFA63C" d="M3,9.5c0.4,0,0.7-0.3,0.7-0.7c0-0.4-0.3-0.6-0.7-0.6c-0.4,0-0.7,0.3-0.7,0.7C2.3,9.2,2.7,9.5,3,9.5z"/>
	</g>
	<g>
		<path fill="#BFA63C" d="M2.9,8.8c0.1,0,0.2,0,0.3,0.2c0.5,2.4,2.5,2.8,4.8,2.3c2-0.5,3.2-2.7,2.7-5c-0.2-0.8-0.6-1.7-1.4-2.4
			C7.5,2,4.8,2.3,3.4,2.6C2.8,2.7,2.5,2.8,2.5,2.8c0,0-0.9,0.3-1.9,1.1c0-0.2-0.1-0.3-0.1-0.5c1-0.7,1.8-1,1.9-1c0,0,0.4-0.1,1-0.3
			c1.5-0.3,4.4-0.6,6.4,1.4c0.8,0.8,1.3,1.7,1.5,2.6c0.6,2.4-0.8,5-3.1,5.5c-2.4,0.5-4.8,0-5.4-2.6C2.8,9,2.8,8.8,2.9,8.8z"/>
	</g>
	<g>
		<path fill="#BFA63C" d="M9.7,4.2c0,0,1.2,0.5,2.4,0.2l0,0c0.6-0.1,1.1-0.4,1.5-1.1l0,0C14,2.7,14.1,2.2,14,1.8l0,0
			c-0.2-0.9-1.1-1.2-1.1-1.2l0,0c-0.1,0-0.2,0-0.3,0.1l0,0c0,0.1,0,0.2,0.1,0.3l0,0c0,0,0.2,0.1,0.4,0.2l0,0
			c0.2,0.1,0.4,0.4,0.5,0.7l0,0c0.1,0.3,0,0.7-0.3,1.2l0,0C13,3.6,12.5,3.8,12,4l0,0c-1,0.2-2.2-0.2-2.2-0.2l0,0v0
			c-0.1,0-0.2,0-0.3,0.1l0,0c0,0,0,0.1,0,0.1l0,0C9.6,4.1,9.6,4.1,9.7,4.2L9.7,4.2z"/>
		<path fill="#BFA63C" d="M9.7,4C9.7,4,9.7,4,9.7,4L9.7,4L9.7,4c0.2,0.1,1.3,0.5,2.4,0.3l0,0.1l0-0.1l0,0c0,0,0,0,0,0l0,0
			c0.5-0.1,1.1-0.4,1.4-1l0,0c0.4-0.6,0.4-1.1,0.3-1.5l0,0c-0.1-0.4-0.3-0.7-0.6-0.9l0,0c-0.1-0.1-0.2-0.2-0.3-0.2l0,0
			c-0.1-0.1-0.1,0-0.2-0.1l0,0c0,0,0,0,0,0l0,0c0,0-0.1,0-0.1,0.1l0,0c0,0,0,0,0,0.1l0,0c0,0,0,0.1,0.1,0.1l0.1,0l0,0l0,0
			c0.1,0,0.2,0.1,0.3,0.2l0,0c0.2,0.2,0.4,0.4,0.5,0.7l0,0l0,0l0,0c0,0,0,0,0,0l0,0c0.1,0.3,0,0.7-0.3,1.3l0,0
			c-0.3,0.5-0.8,0.8-1.3,0.9l0,0c0,0,0,0,0,0l0,0c-0.5,0.1-1.1,0.1-1.5,0l0,0C10.3,4,10.2,4,10,3.9l0,0c-0.1,0-0.1,0-0.2,0l0,0
			c0,0,0,0-0.1,0l0,0c0,0,0,0,0,0l0,0C9.7,3.9,9.7,3.9,9.7,4L9.7,4C9.7,3.9,9.7,4,9.7,4L9.7,4z"/>
	</g>
</g>
</svg>
