<?xml version="1.0" encoding="utf-8"?>
<!-- Generator: Adobe Illustrator 18.0.0, SVG Export Plug-In . SVG Version: 6.00 Build 0)  -->
<!DOCTYPE svg PUBLIC "-//W3C//DTD SVG 1.1//EN" "http://www.w3.org/Graphics/SVG/1.1/DTD/svg11.dtd">
<svg version="1.1" id="Layer_1" xmlns="http://www.w3.org/2000/svg" xmlns:xlink="http://www.w3.org/1999/xlink" x="0px" y="0px"
	 viewBox="0 0 95.4 95.4" enable-background="new 0 0 95.4 95.4" xml:space="preserve">
<g>
	<defs>
		<rect id="SVGID_1_" y="0" width="95.4" height="95.4"/>
	</defs>
	<clipPath id="SVGID_2_">
		<use xlink:href="#SVGID_1_"  overflow="visible"/>
	</clipPath>
	<g clip-path="url(#SVGID_2_)">
		<path fill="#FBF6E7" d="M47.7,94.9c26.1,0,47.3-21.2,47.3-47.3c0-26.1-21.2-47.3-47.3-47.3C21.6,0.4,0.4,21.6,0.4,47.7
			C0.4,73.8,21.6,94.9,47.7,94.9"/>
	</g>
	<g clip-path="url(#SVGID_2_)">
		<path fill="#BAAA5C" d="M47.7,95.4C21.4,95.4,0,74,0,47.7C0,21.4,21.4,0,47.7,0s47.7,21.4,47.7,47.7C95.4,74,74,95.4,47.7,95.4z
			 M47.7,0.8c-25.8,0-46.8,21-46.8,46.9c0,25.8,21,46.8,46.8,46.8c25.8,0,46.8-21,46.8-46.8C94.5,21.8,73.5,0.8,47.7,0.8z"/>
	</g>
</g>
<g>
	<defs>
		<rect id="SVGID_3_" y="0" width="95.4" height="95.4"/>
	</defs>
	<clipPath id="SVGID_4_">
		<use xlink:href="#SVGID_3_"  overflow="visible"/>
	</clipPath>
	<g clip-path="url(#SVGID_4_)">
		<path fill="#FBF6E7" d="M47.7,92.5c24.8,0,44.8-20.1,44.8-44.8c0-24.8-20.1-44.8-44.8-44.8C22.9,2.8,2.8,22.9,2.8,47.7
			C2.8,72.4,22.9,92.5,47.7,92.5"/>
	</g>
	<g clip-path="url(#SVGID_4_)">
		<path fill="#BAAA5C" d="M47.7,92.8c-24.9,0-45.1-20.2-45.1-45.1c0-24.9,20.2-45.1,45.1-45.1s45.1,20.2,45.1,45.1
			C92.8,72.5,72.5,92.8,47.7,92.8z M47.7,3.1c-24.6,0-44.6,20-44.6,44.6c0,24.6,20,44.6,44.6,44.6c24.6,0,44.6-20,44.6-44.6
			C92.3,23.1,72.3,3.1,47.7,3.1z"/>
	</g>
	<g clip-path="url(#SVGID_4_)">
		<path fill="#C0A73C" d="M48.3,47.2c2.3,1.9,4.2,4.3,6,6.6c1.8,2.3,3.5,4.7,5.4,6.8c1.9,2.1,4.2,4,6.9,5c1.4,0.5,2.8,0.8,4.3,0.8
			c0.7,0,1.5,0,2.2,0c0.7,0,1.5-0.2,2-1.1c0.4-0.6,1.3-0.8,2-0.4c0.6,0.4,0.8,1.3,0.4,2c-0.4,0.6-1.3,0.8-2,0.4c0,0,0,0,0,0l0,0
			c-0.9-0.6-1.6-0.7-2.3-0.6c-0.7,0-1.5,0-2.2,0c-1.5-0.1-2.9-0.3-4.4-0.7c-2.9-0.8-5.4-2.5-7.5-4.6c-2.1-2.1-3.9-4.5-5.7-6.7
			c-1.8-2.3-3.7-4.4-6-6.2c-0.3-0.3-0.4-0.7-0.1-1.1C47.5,47,48,47,48.3,47.2C48.3,47.2,48.3,47.2,48.3,47.2L48.3,47.2z"/>
	</g>
	<g clip-path="url(#SVGID_4_)">
		<path fill="#C0A73C" d="M47,48.1c-2.3-1.9-4.2-4.3-6-6.6c-1.8-2.3-3.5-4.7-5.4-6.8c-1.9-2.1-4.2-4-6.9-5c-1.4-0.5-2.8-0.8-4.3-0.8
			c-0.7,0-1.5,0-2.2,0c-0.7,0-1.5,0.2-2,1.1c-0.4,0.6-1.3,0.8-2,0.4c-0.6-0.4-0.8-1.3-0.4-2c0.4-0.6,1.3-0.8,2-0.4c0,0,0,0,0,0l0,0
			c0.9,0.6,1.6,0.7,2.3,0.6c0.7,0,1.5,0,2.2,0c1.5,0.1,2.9,0.3,4.4,0.7c2.9,0.8,5.4,2.5,7.5,4.6c2.1,2.1,3.9,4.5,5.7,6.7
			c1.8,2.3,3.7,4.4,6,6.2c0.3,0.3,0.4,0.7,0.1,1.1C47.9,48.3,47.4,48.4,47,48.1C47.1,48.1,47.1,48.1,47,48.1L47,48.1z"/>
	</g>
	<g clip-path="url(#SVGID_4_)">
		<path fill="#C0A73C" d="M48.1,48.3c-1.9,2.3-4.3,4.2-6.6,6c-2.3,1.8-4.7,3.5-6.8,5.4c-2.1,1.9-4,4.2-5,6.9
			c-0.5,1.4-0.8,2.8-0.8,4.3c0,0.7,0,1.5,0,2.2c0,0.7,0.2,1.5,1.1,2c0.6,0.4,0.8,1.3,0.4,2c-0.4,0.6-1.3,0.8-2,0.4
			c-0.6-0.4-0.8-1.3-0.4-2c0,0,0,0,0,0l0,0c0.6-0.9,0.7-1.6,0.6-2.3c0-0.7,0-1.5,0-2.2c0.1-1.5,0.3-2.9,0.7-4.4
			c0.8-2.9,2.5-5.4,4.6-7.5c2.1-2.1,4.5-3.9,6.7-5.7c2.3-1.8,4.4-3.7,6.2-6c0.3-0.3,0.7-0.4,1.1-0.1C48.3,47.5,48.4,48,48.1,48.3
			C48.1,48.3,48.1,48.3,48.1,48.3L48.1,48.3z"/>
	</g>
	<g clip-path="url(#SVGID_4_)">
		<path fill="#C0A73C" d="M47.3,47c1.9-2.3,4.3-4.2,6.6-6c2.3-1.8,4.7-3.5,6.8-5.4c2.1-1.9,4-4.2,5-6.9c0.5-1.4,0.8-2.8,0.8-4.3
			c0-0.7,0-1.5,0-2.2c0-0.7-0.2-1.5-1.1-2c-0.6-0.4-0.8-1.3-0.4-2c0.4-0.6,1.3-0.8,2-0.4c0.6,0.4,0.8,1.3,0.4,2c0,0,0,0,0,0l0,0
			c-0.6,0.9-0.7,1.6-0.6,2.3c0,0.7,0,1.5,0,2.2c-0.1,1.5-0.3,2.9-0.7,4.4c-0.8,2.9-2.5,5.4-4.6,7.5c-2.1,2.1-4.5,3.9-6.7,5.7
			c-2.3,1.8-4.4,3.7-6.2,6c-0.3,0.3-0.7,0.4-1.1,0.1C47,47.9,47,47.4,47.3,47C47.2,47.1,47.2,47.1,47.3,47L47.3,47z"/>
	</g>
	<g clip-path="url(#SVGID_4_)">
		<path fill="#C0A73C" d="M48.4,47.8c0.3,3,0,6-0.4,8.9c-0.4,2.9-0.9,5.8-1,8.7c-0.1,2.9,0.2,5.8,1.4,8.4c0.6,1.3,1.4,2.5,2.4,3.6
			c0.5,0.5,1,1,1.6,1.5c0.5,0.5,1.2,0.9,2.2,0.7c0.8-0.1,1.5,0.4,1.7,1.1c0.1,0.8-0.4,1.5-1.1,1.7c-0.8,0.1-1.5-0.4-1.7-1.1
			c0,0,0,0,0-0.1l0,0c-0.2-1.1-0.6-1.6-1.2-2.1c-0.6-0.5-1.1-1-1.6-1.6c-1-1.1-1.9-2.3-2.6-3.6c-1.5-2.6-2.1-5.6-2.1-8.6
			c0-3,0.4-5.9,0.7-8.8c0.3-2.9,0.5-5.8,0.2-8.6c0-0.4,0.3-0.8,0.7-0.8C48,47.1,48.4,47.4,48.4,47.8C48.4,47.8,48.4,47.8,48.4,47.8
			L48.4,47.8z"/>
	</g>
	<g clip-path="url(#SVGID_4_)">
		<path fill="#C0A73C" d="M46.9,47.5c-0.2-3,0-6,0.4-8.9c0.4-2.9,0.9-5.8,1-8.7c0.1-2.9-0.2-5.8-1.4-8.4c-0.6-1.3-1.4-2.5-2.4-3.6
			c-0.5-0.5-1-1-1.6-1.5c-0.5-0.5-1.2-0.9-2.2-0.7c-0.8,0.1-1.5-0.4-1.7-1.1c-0.1-0.8,0.4-1.5,1.1-1.7c0.8-0.1,1.5,0.4,1.7,1.1
			c0,0,0,0,0,0.1l0,0c0.2,1.1,0.6,1.6,1.2,2.1c0.6,0.5,1.1,1,1.6,1.6c1,1.1,1.9,2.3,2.6,3.6c1.5,2.6,2.1,5.6,2.1,8.6
			c0,3-0.4,5.9-0.7,8.8c-0.3,2.9-0.5,5.8-0.2,8.6c0,0.4-0.3,0.8-0.7,0.9C47.4,48.3,47,48,46.9,47.5C46.9,47.6,46.9,47.6,46.9,47.5
			L46.9,47.5z"/>
	</g>
	<g clip-path="url(#SVGID_4_)">
		<path fill="#C0A73C" d="M47.5,48.4c-3,0.3-6,0-8.9-0.4c-2.9-0.4-5.8-0.9-8.7-1c-2.9-0.1-5.8,0.2-8.4,1.4c-1.3,0.6-2.5,1.4-3.6,2.4
			c-0.5,0.5-1,1-1.5,1.6c-0.5,0.5-0.9,1.2-0.7,2.2c0.1,0.8-0.4,1.5-1.1,1.7c-0.8,0.1-1.5-0.4-1.7-1.1c-0.1-0.8,0.4-1.5,1.1-1.7
			c0,0,0,0,0.1,0l0,0c1.1-0.2,1.6-0.6,2.1-1.2c0.5-0.6,1-1.1,1.6-1.6c1.1-1,2.3-1.9,3.6-2.6C24,46.6,27,46,30,46
			c3,0,5.9,0.4,8.8,0.7c2.9,0.3,5.8,0.5,8.6,0.2c0.4,0,0.8,0.3,0.9,0.7C48.3,48,48,48.4,47.5,48.4C47.6,48.4,47.5,48.4,47.5,48.4
			L47.5,48.4z"/>
	</g>
	<g clip-path="url(#SVGID_4_)">
		<path fill="#C0A73C" d="M47.8,46.9c3-0.3,6,0,8.9,0.4c2.9,0.4,5.8,0.9,8.7,1c2.9,0.1,5.8-0.2,8.4-1.4c1.3-0.6,2.5-1.4,3.6-2.4
			c0.5-0.5,1-1,1.5-1.6c0.5-0.5,0.9-1.2,0.7-2.2c-0.1-0.8,0.4-1.5,1.1-1.7c0.8-0.1,1.5,0.4,1.7,1.1c0.1,0.8-0.4,1.5-1.1,1.7
			c0,0,0,0-0.1,0l0,0c-1.1,0.2-1.6,0.6-2.1,1.2c-0.5,0.6-1,1.1-1.6,1.6c-1.1,1-2.3,1.9-3.6,2.6c-2.6,1.5-5.6,2.1-8.6,2.1
			c-3,0-5.9-0.4-8.8-0.7c-2.9-0.3-5.8-0.5-8.6-0.2c-0.4,0-0.8-0.3-0.8-0.7C47.1,47.4,47.4,47,47.8,46.9
			C47.8,46.9,47.8,46.9,47.8,46.9L47.8,46.9z"/>
	</g>
	<g clip-path="url(#SVGID_4_)">
		<path fill="#C0A73C" d="M48.4,47.6c1.2,2.8,1.8,5.7,2.3,8.6c0.5,2.9,0.9,5.8,1.7,8.6c0.7,2.8,1.9,5.5,3.9,7.6c1,1.1,2.1,2,3.4,2.7
			c0.6,0.4,1.3,0.7,2,1c0.7,0.3,1.4,0.5,2.3,0c0.7-0.4,1.5-0.1,1.9,0.6c0.4,0.7,0.1,1.5-0.6,1.9c-0.7,0.4-1.5,0.1-1.9-0.6
			c0,0,0,0,0,0l0,0c-0.5-1-1.1-1.3-1.8-1.6c-0.7-0.3-1.3-0.6-2-1c-1.3-0.7-2.5-1.6-3.6-2.6c-2.2-2-3.7-4.7-4.6-7.6
			c-0.9-2.8-1.4-5.8-2-8.6c-0.6-2.8-1.3-5.6-2.5-8.3c-0.2-0.4,0-0.8,0.4-1C47.8,47,48.3,47.2,48.4,47.6
			C48.4,47.6,48.4,47.6,48.4,47.6L48.4,47.6z"/>
	</g>
	<g clip-path="url(#SVGID_4_)">
		<path fill="#C0A73C" d="M46.9,47.8c-1.2-2.8-1.8-5.7-2.3-8.6c-0.5-2.9-0.9-5.8-1.7-8.6C42.2,27.8,41,25.1,39,23
			c-1-1.1-2.1-2-3.4-2.7c-0.6-0.4-1.3-0.7-2-1c-0.7-0.3-1.4-0.5-2.3,0c-0.7,0.4-1.5,0.1-1.9-0.6c-0.4-0.7-0.1-1.5,0.6-1.9
			c0.7-0.4,1.5-0.1,1.9,0.6c0,0,0,0,0,0l0,0c0.5,1,1.1,1.3,1.8,1.6c0.7,0.3,1.3,0.6,2,1c1.3,0.7,2.5,1.6,3.6,2.6
			c2.2,2,3.7,4.7,4.6,7.6c0.9,2.8,1.4,5.8,2,8.6c0.6,2.9,1.3,5.6,2.5,8.3c0.2,0.4,0,0.8-0.4,1C47.6,48.4,47.1,48.2,46.9,47.8
			C46.9,47.8,46.9,47.8,46.9,47.8L46.9,47.8z"/>
	</g>
	<g clip-path="url(#SVGID_4_)">
		<path fill="#C0A73C" d="M47.8,48.4c-2.8,1.2-5.7,1.8-8.6,2.3c-2.9,0.5-5.8,0.9-8.6,1.7c-2.8,0.7-5.5,1.9-7.6,3.9
			c-1.1,1-2,2.1-2.7,3.4c-0.4,0.6-0.7,1.3-1,2c-0.3,0.7-0.5,1.4,0,2.3c0.4,0.7,0.1,1.5-0.6,1.9c-0.7,0.4-1.5,0.1-1.9-0.6
			c-0.4-0.7-0.1-1.5,0.6-1.9c0,0,0,0,0,0l0,0c1-0.5,1.3-1.1,1.6-1.8c0.3-0.7,0.6-1.3,1-2c0.7-1.3,1.6-2.5,2.6-3.6
			c2-2.2,4.7-3.7,7.6-4.6c2.8-0.9,5.8-1.4,8.6-2c2.9-0.6,5.6-1.3,8.3-2.5c0.4-0.2,0.8,0,1,0.4C48.4,47.8,48.2,48.3,47.8,48.4
			C47.8,48.4,47.8,48.4,47.8,48.4L47.8,48.4z"/>
	</g>
	<g clip-path="url(#SVGID_4_)">
		<path fill="#C0A73C" d="M47.6,46.9c2.8-1.2,5.7-1.8,8.6-2.3c2.9-0.5,5.8-0.9,8.6-1.7c2.8-0.7,5.5-1.9,7.6-3.9c1.1-1,2-2.1,2.7-3.4
			c0.4-0.6,0.7-1.3,1-2c0.3-0.7,0.5-1.4,0-2.3c-0.4-0.7-0.1-1.5,0.6-1.9c0.7-0.4,1.5-0.1,1.9,0.6c0.4,0.7,0.1,1.5-0.6,1.9
			c0,0,0,0-0.1,0l0,0c-1,0.5-1.3,1.1-1.6,1.8c-0.3,0.7-0.6,1.3-1,2c-0.7,1.3-1.6,2.5-2.6,3.6c-2,2.2-4.7,3.7-7.6,4.6
			c-2.8,0.9-5.8,1.4-8.6,2c-2.9,0.6-5.6,1.3-8.3,2.5c-0.4,0.2-0.8,0-1-0.4C47,47.6,47.2,47.1,47.6,46.9
			C47.6,46.9,47.6,46.9,47.6,46.9L47.6,46.9z"/>
	</g>
	<g clip-path="url(#SVGID_4_)">
		<path fill="#C0A73C" d="M48.3,48.2c-1.1,2.8-2.8,5.3-4.5,7.7c-1.7,2.4-3.4,4.7-4.9,7.2c-1.4,2.5-2.5,5.2-2.6,8.1
			c-0.1,1.4,0.1,2.9,0.5,4.3c0.2,0.7,0.4,1.4,0.7,2.1c0.2,0.7,0.7,1.3,1.7,1.6c0.7,0.2,1.2,1,1,1.8c-0.2,0.7-1,1.2-1.8,1
			c-0.7-0.2-1.2-1-1-1.8c0,0,0,0,0-0.1l0,0c0.3-1,0.2-1.7-0.1-2.4c-0.3-0.7-0.5-1.4-0.7-2.1c-0.4-1.4-0.7-2.9-0.7-4.4
			c-0.1-3,0.7-6,2.1-8.6c1.4-2.6,3.1-5,4.7-7.5c1.6-2.4,3.1-4.9,4.1-7.6c0.1-0.4,0.6-0.6,1-0.4C48.2,47.3,48.4,47.7,48.3,48.2
			C48.3,48.1,48.3,48.1,48.3,48.2L48.3,48.2z"/>
	</g>
	<g clip-path="url(#SVGID_4_)">
		<path fill="#C0A73C" d="M47.1,47.2c1.1-2.8,2.8-5.3,4.5-7.7c1.7-2.4,3.4-4.7,4.9-7.2c1.4-2.5,2.5-5.2,2.6-8.1
			c0.1-1.4-0.1-2.9-0.5-4.3c-0.2-0.7-0.4-1.4-0.7-2.1c-0.2-0.7-0.7-1.3-1.7-1.6c-0.8-0.2-1.2-1-1-1.8c0.2-0.7,1-1.2,1.8-1
			c0.7,0.2,1.2,1,1,1.8c0,0,0,0,0,0.1l0,0c-0.3,1-0.2,1.7,0.1,2.4c0.3,0.7,0.5,1.4,0.7,2.1c0.4,1.4,0.7,2.9,0.7,4.4
			c0.1,3-0.8,6-2.1,8.6c-1.4,2.6-3.1,5-4.7,7.5c-1.6,2.4-3.1,4.9-4.1,7.6c-0.2,0.4-0.6,0.6-1,0.4C47.1,48.1,46.9,47.6,47.1,47.2
			C47.1,47.2,47.1,47.2,47.1,47.2L47.1,47.2z"/>
	</g>
	<g clip-path="url(#SVGID_4_)">
		<path fill="#C0A73C" d="M47.2,48.3c-2.8-1.1-5.3-2.8-7.7-4.5c-2.4-1.7-4.7-3.4-7.2-4.9c-2.5-1.4-5.2-2.5-8.1-2.6
			c-1.4-0.1-2.9,0.1-4.3,0.5c-0.7,0.2-1.4,0.4-2.1,0.7c-0.7,0.2-1.3,0.7-1.6,1.7c-0.2,0.8-1,1.2-1.8,1c-0.7-0.2-1.2-1-1-1.8
			c0.2-0.7,1-1.2,1.8-1c0,0,0,0,0.1,0l0,0c1,0.4,1.7,0.2,2.4-0.1c0.7-0.3,1.4-0.5,2.1-0.7c1.4-0.4,2.9-0.7,4.4-0.7
			c3-0.1,6,0.8,8.6,2.1c2.6,1.4,5,3.1,7.5,4.7c2.4,1.6,4.9,3.1,7.6,4.1c0.4,0.2,0.6,0.6,0.4,1C48.1,48.2,47.6,48.4,47.2,48.3
			C47.2,48.3,47.2,48.3,47.2,48.3L47.2,48.3z"/>
	</g>
	<g clip-path="url(#SVGID_4_)">
		<path fill="#C0A73C" d="M48.2,47.1c2.8,1.1,5.3,2.8,7.7,4.5c2.4,1.7,4.7,3.4,7.2,4.9c2.5,1.4,5.2,2.5,8.1,2.6
			c1.4,0.1,2.9-0.1,4.3-0.5c0.7-0.2,1.4-0.4,2.1-0.7c0.7-0.2,1.3-0.7,1.6-1.7c0.2-0.7,1-1.2,1.8-1c0.7,0.2,1.2,1,1,1.8
			c-0.2,0.7-1,1.2-1.8,1c0,0,0,0-0.1,0l0,0c-1-0.4-1.7-0.2-2.4,0.1c-0.7,0.3-1.4,0.5-2.1,0.7c-1.4,0.4-2.9,0.7-4.4,0.7
			c-3,0.1-6-0.8-8.6-2.1c-2.7-1.4-5.1-3.1-7.5-4.7c-2.4-1.6-4.9-3.1-7.6-4.1c-0.4-0.2-0.6-0.6-0.4-1C47.3,47.1,47.7,46.9,48.2,47.1
			C48.1,47.1,48.1,47.1,48.2,47.1L48.2,47.1z"/>
	</g>
	<g clip-path="url(#SVGID_4_)">
		<path fill="#C0A73C" d="M48.3,47.2c2.3,1.9,4.2,4.3,6,6.6c1.8,2.3,3.5,4.7,5.4,6.8c1.9,2.1,4.2,4,6.9,5c1.4,0.5,2.8,0.8,4.3,0.8
			c0.7,0,1.5,0,2.2,0c0.7,0,1.5-0.2,2-1.1c0.4-0.6,1.3-0.8,2-0.4c0.6,0.4,0.8,1.3,0.4,2c-0.4,0.6-1.3,0.8-2,0.4c0,0,0,0,0,0l0,0
			c-0.9-0.6-1.6-0.7-2.3-0.6c-0.7,0-1.5,0-2.2,0c-1.5-0.1-2.9-0.3-4.4-0.7c-2.9-0.8-5.4-2.5-7.5-4.6c-2.1-2.1-3.9-4.5-5.7-6.7
			c-1.8-2.3-3.7-4.4-6-6.2c-0.3-0.3-0.4-0.7-0.1-1.1C47.5,47,48,47,48.3,47.2C48.3,47.2,48.3,47.2,48.3,47.2L48.3,47.2z"/>
	</g>
	<g clip-path="url(#SVGID_4_)">
		<path fill="#C0A73C" d="M47,48.1c-2.3-1.9-4.2-4.3-6-6.6c-1.8-2.3-3.5-4.7-5.4-6.8c-1.9-2.1-4.2-4-6.9-5c-1.4-0.5-2.8-0.8-4.3-0.8
			c-0.7,0-1.5,0-2.2,0c-0.7,0-1.5,0.2-2,1.1c-0.4,0.6-1.3,0.8-2,0.4c-0.6-0.4-0.8-1.3-0.4-2c0.4-0.6,1.3-0.8,2-0.4c0,0,0,0,0,0l0,0
			c0.9,0.6,1.6,0.7,2.3,0.6c0.7,0,1.5,0,2.2,0c1.5,0.1,2.9,0.3,4.4,0.7c2.9,0.8,5.4,2.5,7.5,4.6c2.1,2.1,3.9,4.5,5.7,6.7
			c1.8,2.3,3.7,4.4,6,6.2c0.3,0.3,0.4,0.7,0.1,1.1C47.9,48.3,47.4,48.4,47,48.1C47.1,48.1,47.1,48.1,47,48.1L47,48.1z"/>
	</g>
	<g clip-path="url(#SVGID_4_)">
		<path fill="#C0A73C" d="M48.1,48.3c-1.9,2.3-4.3,4.2-6.6,6c-2.3,1.8-4.7,3.5-6.8,5.4c-2.1,1.9-4,4.2-5,6.9
			c-0.5,1.4-0.8,2.8-0.8,4.3c0,0.7,0,1.5,0,2.2c0,0.7,0.2,1.5,1.1,2c0.6,0.4,0.8,1.3,0.4,2c-0.4,0.6-1.3,0.8-2,0.4
			c-0.6-0.4-0.8-1.3-0.4-2c0,0,0,0,0,0l0,0c0.6-0.9,0.7-1.6,0.6-2.3c0-0.7,0-1.5,0-2.2c0.1-1.5,0.3-2.9,0.7-4.4
			c0.8-2.9,2.5-5.4,4.6-7.5c2.1-2.1,4.5-3.9,6.7-5.7c2.3-1.8,4.4-3.7,6.2-6c0.3-0.3,0.7-0.4,1.1-0.1C48.3,47.5,48.4,48,48.1,48.3
			C48.1,48.3,48.1,48.3,48.1,48.3L48.1,48.3z"/>
	</g>
	<g clip-path="url(#SVGID_4_)">
		<path fill="#C0A73C" d="M47.3,47c1.9-2.3,4.3-4.2,6.6-6c2.3-1.8,4.7-3.5,6.8-5.4c2.1-1.9,4-4.2,5-6.9c0.5-1.4,0.8-2.8,0.8-4.3
			c0-0.7,0-1.5,0-2.2c0-0.7-0.2-1.5-1.1-2c-0.6-0.4-0.8-1.3-0.4-2c0.4-0.6,1.3-0.8,2-0.4c0.6,0.4,0.8,1.3,0.4,2c0,0,0,0,0,0l0,0
			c-0.6,0.9-0.7,1.6-0.6,2.3c0,0.7,0,1.5,0,2.2c-0.1,1.5-0.3,2.9-0.7,4.4c-0.8,2.9-2.5,5.4-4.6,7.5c-2.1,2.1-4.5,3.9-6.7,5.7
			c-2.3,1.8-4.4,3.7-6.2,6c-0.3,0.3-0.7,0.4-1.1,0.1C47,47.9,47,47.4,47.3,47C47.2,47.1,47.2,47.1,47.3,47L47.3,47z"/>
	</g>
	<g clip-path="url(#SVGID_4_)">
		<path fill="#C0A73C" d="M48.4,47.8c0.3,3,0,6-0.4,8.9c-0.4,2.9-0.9,5.8-1,8.7c-0.1,2.9,0.2,5.8,1.4,8.4c0.6,1.3,1.4,2.5,2.4,3.6
			c0.5,0.5,1,1,1.6,1.5c0.5,0.5,1.2,0.9,2.2,0.7c0.8-0.1,1.5,0.4,1.7,1.1c0.1,0.8-0.4,1.5-1.1,1.7c-0.8,0.1-1.5-0.4-1.7-1.1
			c0,0,0,0,0-0.1l0,0c-0.2-1.1-0.6-1.6-1.2-2.1c-0.6-0.5-1.1-1-1.6-1.6c-1-1.1-1.9-2.3-2.6-3.6c-1.5-2.6-2.1-5.6-2.1-8.6
			c0-3,0.4-5.9,0.7-8.8c0.3-2.9,0.5-5.8,0.2-8.6c0-0.4,0.3-0.8,0.7-0.8C48,47.1,48.4,47.4,48.4,47.8C48.4,47.8,48.4,47.8,48.4,47.8
			L48.4,47.8z"/>
	</g>
	<g clip-path="url(#SVGID_4_)">
		<path fill="#C0A73C" d="M46.9,47.5c-0.2-3,0-6,0.4-8.9c0.4-2.9,0.9-5.8,1-8.7c0.1-2.9-0.2-5.8-1.4-8.4c-0.6-1.3-1.4-2.5-2.4-3.6
			c-0.5-0.5-1-1-1.6-1.5c-0.5-0.5-1.2-0.9-2.2-0.7c-0.8,0.1-1.5-0.4-1.7-1.1c-0.1-0.8,0.4-1.5,1.1-1.7c0.8-0.1,1.5,0.4,1.7,1.1
			c0,0,0,0,0,0.1l0,0c0.2,1.1,0.6,1.6,1.2,2.1c0.6,0.5,1.1,1,1.6,1.6c1,1.1,1.9,2.3,2.6,3.6c1.5,2.6,2.1,5.6,2.1,8.6
			c0,3-0.4,5.9-0.7,8.8c-0.3,2.9-0.5,5.8-0.2,8.6c0,0.4-0.3,0.8-0.7,0.9C47.4,48.3,47,48,46.9,47.5C46.9,47.6,46.9,47.6,46.9,47.5
			L46.9,47.5z"/>
	</g>
	<g clip-path="url(#SVGID_4_)">
		<path fill="#C0A73C" d="M47.5,48.4c-3,0.3-6,0-8.9-0.4c-2.9-0.4-5.8-0.9-8.7-1c-2.9-0.1-5.8,0.2-8.4,1.4c-1.3,0.6-2.5,1.4-3.6,2.4
			c-0.5,0.5-1,1-1.5,1.6c-0.5,0.5-0.9,1.2-0.7,2.2c0.1,0.8-0.4,1.5-1.1,1.7c-0.8,0.1-1.5-0.4-1.7-1.1c-0.1-0.8,0.4-1.5,1.1-1.7
			c0,0,0,0,0.1,0l0,0c1.1-0.2,1.6-0.6,2.1-1.2c0.5-0.6,1-1.1,1.6-1.6c1.1-1,2.3-1.9,3.6-2.6C24,46.6,27,46,30,46
			c3,0,5.9,0.4,8.8,0.7c2.9,0.3,5.8,0.5,8.6,0.2c0.4,0,0.8,0.3,0.9,0.7C48.3,48,48,48.4,47.5,48.4C47.6,48.4,47.5,48.4,47.5,48.4
			L47.5,48.4z"/>
	</g>
	<g clip-path="url(#SVGID_4_)">
		<path fill="#C0A73C" d="M47.8,46.9c3-0.3,6,0,8.9,0.4c2.9,0.4,5.8,0.9,8.7,1c2.9,0.1,5.8-0.2,8.4-1.4c1.3-0.6,2.5-1.4,3.6-2.4
			c0.5-0.5,1-1,1.5-1.6c0.5-0.5,0.9-1.2,0.7-2.2c-0.1-0.8,0.4-1.5,1.1-1.7c0.8-0.1,1.5,0.4,1.7,1.1c0.1,0.8-0.4,1.5-1.1,1.7
			c0,0,0,0-0.1,0l0,0c-1.1,0.2-1.6,0.6-2.1,1.2c-0.5,0.6-1,1.1-1.6,1.6c-1.1,1-2.3,1.9-3.6,2.6c-2.6,1.5-5.6,2.1-8.6,2.1
			c-3,0-5.9-0.4-8.8-0.7c-2.9-0.3-5.8-0.5-8.6-0.2c-0.4,0-0.8-0.3-0.8-0.7C47.1,47.4,47.4,47,47.8,46.9
			C47.8,46.9,47.8,46.9,47.8,46.9L47.8,46.9z"/>
	</g>
	<g clip-path="url(#SVGID_4_)">
		<path fill="#C0A73C" d="M48.4,47.6c1.2,2.8,1.8,5.7,2.3,8.6c0.5,2.9,0.9,5.8,1.7,8.6c0.7,2.8,1.9,5.5,3.9,7.6c1,1.1,2.1,2,3.4,2.7
			c0.6,0.4,1.3,0.7,2,1c0.7,0.3,1.4,0.5,2.3,0c0.7-0.4,1.5-0.1,1.9,0.6c0.4,0.7,0.1,1.5-0.6,1.9c-0.7,0.4-1.5,0.1-1.9-0.6
			c0,0,0,0,0,0l0,0c-0.5-1-1.1-1.3-1.8-1.6c-0.7-0.3-1.3-0.6-2-1c-1.3-0.7-2.5-1.6-3.6-2.6c-2.2-2-3.7-4.7-4.6-7.6
			c-0.9-2.8-1.4-5.8-2-8.6c-0.6-2.8-1.3-5.6-2.5-8.3c-0.2-0.4,0-0.8,0.4-1C47.8,47,48.3,47.2,48.4,47.6
			C48.4,47.6,48.4,47.6,48.4,47.6L48.4,47.6z"/>
	</g>
	<g clip-path="url(#SVGID_4_)">
		<path fill="#C0A73C" d="M46.9,47.8c-1.2-2.8-1.8-5.7-2.3-8.6c-0.5-2.9-0.9-5.8-1.7-8.6C42.2,27.8,41,25.1,39,23
			c-1-1.1-2.1-2-3.4-2.7c-0.6-0.4-1.3-0.7-2-1c-0.7-0.3-1.4-0.5-2.3,0c-0.7,0.4-1.5,0.1-1.9-0.6c-0.4-0.7-0.1-1.5,0.6-1.9
			c0.7-0.4,1.5-0.1,1.9,0.6c0,0,0,0,0,0l0,0c0.5,1,1.1,1.3,1.8,1.6c0.7,0.3,1.3,0.6,2,1c1.3,0.7,2.5,1.6,3.6,2.6
			c2.2,2,3.7,4.7,4.6,7.6c0.9,2.8,1.4,5.8,2,8.6c0.6,2.9,1.3,5.6,2.5,8.3c0.2,0.4,0,0.8-0.4,1C47.6,48.4,47.1,48.2,46.9,47.8
			C46.9,47.8,46.9,47.8,46.9,47.8L46.9,47.8z"/>
	</g>
	<g clip-path="url(#SVGID_4_)">
		<path fill="#C0A73C" d="M47.8,48.4c-2.8,1.2-5.7,1.8-8.6,2.3c-2.9,0.5-5.8,0.9-8.6,1.7c-2.8,0.7-5.5,1.9-7.6,3.9
			c-1.1,1-2,2.1-2.7,3.4c-0.4,0.6-0.7,1.3-1,2c-0.3,0.7-0.5,1.4,0,2.3c0.4,0.7,0.1,1.5-0.6,1.9c-0.7,0.4-1.5,0.1-1.9-0.6
			c-0.4-0.7-0.1-1.5,0.6-1.9c0,0,0,0,0,0l0,0c1-0.5,1.3-1.1,1.6-1.8c0.3-0.7,0.6-1.3,1-2c0.7-1.3,1.6-2.5,2.6-3.6
			c2-2.2,4.7-3.7,7.6-4.6c2.8-0.9,5.8-1.4,8.6-2c2.9-0.6,5.6-1.3,8.3-2.5c0.4-0.2,0.8,0,1,0.4C48.4,47.8,48.2,48.3,47.8,48.4
			C47.8,48.4,47.8,48.4,47.8,48.4L47.8,48.4z"/>
	</g>
	<g clip-path="url(#SVGID_4_)">
		<path fill="#C0A73C" d="M47.6,46.9c2.8-1.2,5.7-1.8,8.6-2.3c2.9-0.5,5.8-0.9,8.6-1.7c2.8-0.7,5.5-1.9,7.6-3.9c1.1-1,2-2.1,2.7-3.4
			c0.4-0.6,0.7-1.3,1-2c0.3-0.7,0.5-1.4,0-2.3c-0.4-0.7-0.1-1.5,0.6-1.9c0.7-0.4,1.5-0.1,1.9,0.6c0.4,0.7,0.1,1.5-0.6,1.9
			c0,0,0,0-0.1,0l0,0c-1,0.5-1.3,1.1-1.6,1.8c-0.3,0.7-0.6,1.3-1,2c-0.7,1.3-1.6,2.5-2.6,3.6c-2,2.2-4.7,3.7-7.6,4.6
			c-2.8,0.9-5.8,1.4-8.6,2c-2.9,0.6-5.6,1.3-8.3,2.5c-0.4,0.2-0.8,0-1-0.4C47,47.6,47.2,47.1,47.6,46.9
			C47.6,46.9,47.6,46.9,47.6,46.9L47.6,46.9z"/>
	</g>
	<g clip-path="url(#SVGID_4_)">
		<path fill="#C0A73C" d="M48.3,48.2c-1.1,2.8-2.8,5.3-4.5,7.7c-1.7,2.4-3.4,4.7-4.9,7.2c-1.4,2.5-2.5,5.2-2.6,8.1
			c-0.1,1.4,0.1,2.9,0.5,4.3c0.2,0.7,0.4,1.4,0.7,2.1c0.2,0.7,0.7,1.3,1.7,1.6c0.7,0.2,1.2,1,1,1.8c-0.2,0.7-1,1.2-1.8,1
			c-0.7-0.2-1.2-1-1-1.8c0,0,0,0,0-0.1l0,0c0.3-1,0.2-1.7-0.1-2.4c-0.3-0.7-0.5-1.4-0.7-2.1c-0.4-1.4-0.7-2.9-0.7-4.4
			c-0.1-3,0.7-6,2.1-8.6c1.4-2.6,3.1-5,4.7-7.5c1.6-2.4,3.1-4.9,4.1-7.6c0.1-0.4,0.6-0.6,1-0.4C48.2,47.3,48.4,47.7,48.3,48.2
			C48.3,48.1,48.3,48.1,48.3,48.2L48.3,48.2z"/>
	</g>
	<g clip-path="url(#SVGID_4_)">
		<path fill="#C0A73C" d="M47.1,47.2c1.1-2.8,2.8-5.3,4.5-7.7c1.7-2.4,3.4-4.7,4.9-7.2c1.4-2.5,2.5-5.2,2.6-8.1
			c0.1-1.4-0.1-2.9-0.5-4.3c-0.2-0.7-0.4-1.4-0.7-2.1c-0.2-0.7-0.7-1.3-1.7-1.6c-0.8-0.2-1.2-1-1-1.8c0.2-0.7,1-1.2,1.8-1
			c0.7,0.2,1.2,1,1,1.8c0,0,0,0,0,0.1l0,0c-0.3,1-0.2,1.7,0.1,2.4c0.3,0.7,0.5,1.4,0.7,2.1c0.4,1.4,0.7,2.9,0.7,4.4
			c0.1,3-0.8,6-2.1,8.6c-1.4,2.6-3.1,5-4.7,7.5c-1.6,2.4-3.1,4.9-4.1,7.6c-0.2,0.4-0.6,0.6-1,0.4C47.1,48.1,46.9,47.6,47.1,47.2
			C47.1,47.2,47.1,47.2,47.1,47.2L47.1,47.2z"/>
	</g>
	<g clip-path="url(#SVGID_4_)">
		<path fill="#C0A73C" d="M47.2,48.3c-2.8-1.1-5.3-2.8-7.7-4.5c-2.4-1.7-4.7-3.4-7.2-4.9c-2.5-1.4-5.2-2.5-8.1-2.6
			c-1.4-0.1-2.9,0.1-4.3,0.5c-0.7,0.2-1.4,0.4-2.1,0.7c-0.7,0.2-1.3,0.7-1.6,1.7c-0.2,0.8-1,1.2-1.8,1c-0.7-0.2-1.2-1-1-1.8
			c0.2-0.7,1-1.2,1.8-1c0,0,0,0,0.1,0l0,0c1,0.4,1.7,0.2,2.4-0.1c0.7-0.3,1.4-0.5,2.1-0.7c1.4-0.4,2.9-0.7,4.4-0.7
			c3-0.1,6,0.8,8.6,2.1c2.6,1.4,5,3.1,7.5,4.7c2.4,1.6,4.9,3.1,7.6,4.1c0.4,0.2,0.6,0.6,0.4,1C48.1,48.2,47.6,48.4,47.2,48.3
			C47.2,48.3,47.2,48.3,47.2,48.3L47.2,48.3z"/>
	</g>
	<g clip-path="url(#SVGID_4_)">
		<path fill="#C0A73C" d="M48.2,47.1c2.8,1.1,5.3,2.8,7.7,4.5c2.4,1.7,4.7,3.4,7.2,4.9c2.5,1.4,5.2,2.5,8.1,2.6
			c1.4,0.1,2.9-0.1,4.3-0.5c0.7-0.2,1.4-0.4,2.1-0.7c0.7-0.2,1.3-0.7,1.6-1.7c0.2-0.7,1-1.2,1.8-1c0.7,0.2,1.2,1,1,1.8
			c-0.2,0.7-1,1.2-1.8,1c0,0,0,0-0.1,0l0,0c-1-0.4-1.7-0.2-2.4,0.1c-0.7,0.3-1.4,0.5-2.1,0.7c-1.4,0.4-2.9,0.7-4.4,0.7
			c-3,0.1-6-0.8-8.6-2.1c-2.7-1.4-5.1-3.1-7.5-4.7c-2.4-1.6-4.9-3.1-7.6-4.1c-0.4-0.2-0.6-0.6-0.4-1C47.3,47.1,47.7,46.9,48.2,47.1
			C48.1,47.1,48.1,47.1,48.2,47.1L48.2,47.1z"/>
	</g>
	<g clip-path="url(#SVGID_4_)">
		<path fill="#C0A73C" d="M48.3,48c2.1-2.1,3.9-4.6,5.5-7c1.6-2.5,3.1-5,4.9-7.2c1.8-2.3,3.9-4.3,6.5-5.5c1.3-0.6,2.7-1,4.2-1.2
			c0.7-0.1,1.5-0.1,2.2-0.1c0.7,0,1.5,0.1,2.1,0.9c0.5,0.6,1.4,0.7,2,0.2c0.6-0.5,0.7-1.4,0.2-2c-0.5-0.6-1.4-0.7-2-0.2c0,0,0,0,0,0
			l0,0c-0.8,0.7-1.5,0.8-2.3,0.8c-0.7,0-1.5,0.1-2.2,0.2c-1.5,0.2-2.9,0.5-4.3,1c-2.8,1-5.2,2.9-7.2,5.2c-1.9,2.3-3.5,4.8-5.2,7.2
			c-1.7,2.4-3.4,4.7-5.5,6.6c-0.3,0.3-0.3,0.8,0,1.1C47.5,48.4,48,48.4,48.3,48C48.3,48.1,48.3,48.1,48.3,48L48.3,48z"/>
	</g>
	<g clip-path="url(#SVGID_4_)">
		<path fill="#C0A73C" d="M47,47.3c-2.1,2.1-3.9,4.6-5.5,7c-1.6,2.5-3.1,5-4.9,7.2c-1.8,2.3-3.9,4.3-6.5,5.5c-1.3,0.6-2.7,1-4.2,1.2
			c-0.7,0.1-1.5,0.1-2.2,0.1c-0.7,0-1.5-0.1-2.1-0.9c-0.5-0.6-1.4-0.7-2-0.2c-0.6,0.5-0.7,1.4-0.2,2c0.5,0.6,1.4,0.7,2,0.2
			c0,0,0,0,0,0l0,0c0.8-0.7,1.5-0.8,2.3-0.8c0.7,0,1.5-0.1,2.2-0.2c1.5-0.2,2.9-0.5,4.3-1c2.8-1,5.2-2.9,7.2-5.2
			c1.9-2.3,3.5-4.8,5.2-7.2c1.7-2.4,3.4-4.7,5.5-6.6c0.3-0.3,0.3-0.8,0-1.1C47.8,47,47.3,47,47,47.3C47,47.3,47,47.3,47,47.3
			L47,47.3z"/>
	</g>
	<g clip-path="url(#SVGID_4_)">
		<path fill="#C0A73C" d="M48.1,47c-2.1-2.1-4.6-3.9-7-5.5c-2.5-1.6-5-3.1-7.2-4.9c-2.3-1.8-4.3-3.9-5.5-6.5c-0.6-1.3-1-2.7-1.2-4.2
			c-0.1-0.7-0.1-1.5-0.1-2.2c0-0.7,0.1-1.5,0.9-2.1c0.6-0.5,0.7-1.4,0.2-2c-0.5-0.6-1.4-0.7-2-0.2c-0.6,0.5-0.7,1.4-0.2,2
			c0,0,0,0,0,0l0,0c0.7,0.8,0.8,1.5,0.8,2.3c0,0.7,0.1,1.5,0.2,2.2c0.2,1.5,0.5,2.9,1,4.3c1,2.8,2.9,5.2,5.2,7.2
			c2.3,1.9,4.8,3.5,7.2,5.2c2.4,1.7,4.7,3.4,6.6,5.5c0.3,0.3,0.8,0.3,1.1,0C48.4,47.8,48.4,47.3,48.1,47C48.1,47,48.1,47,48.1,47
			L48.1,47z"/>
	</g>
	<g clip-path="url(#SVGID_4_)">
		<path fill="#C0A73C" d="M47.3,48.3c2.1,2.1,4.6,3.9,7,5.5c2.5,1.6,5,3.1,7.2,4.9c2.3,1.8,4.3,3.9,5.5,6.5c0.6,1.3,1,2.7,1.2,4.2
			c0.1,0.7,0.1,1.5,0.1,2.2c0,0.7-0.1,1.5-0.9,2.1c-0.6,0.5-0.7,1.4-0.2,2c0.5,0.6,1.4,0.7,2,0.2c0.6-0.5,0.7-1.4,0.2-2c0,0,0,0,0,0
			l0,0c-0.7-0.8-0.8-1.5-0.8-2.3c0-0.7-0.1-1.5-0.2-2.2c-0.2-1.5-0.5-2.9-1-4.3c-1-2.8-2.9-5.2-5.2-7.2c-2.3-1.9-4.8-3.5-7.2-5.2
			c-2.4-1.7-4.7-3.4-6.6-5.5c-0.3-0.3-0.8-0.3-1.1,0C47,47.5,47,48,47.3,48.3C47.3,48.3,47.3,48.3,47.3,48.3L47.3,48.3z"/>
	</g>
	<g clip-path="url(#SVGID_4_)">
		<path fill="#C0A73C" d="M48.4,47.5c0-3-0.5-6-1.1-8.8c-0.6-2.9-1.3-5.7-1.7-8.6c-0.4-2.8-0.3-5.8,0.8-8.5c0.5-1.4,1.2-2.6,2.1-3.8
			c0.4-0.6,0.9-1.1,1.5-1.6c0.5-0.5,1.1-1,2.2-0.8c0.8,0.1,1.5-0.5,1.6-1.2c0.1-0.8-0.5-1.5-1.2-1.6c-0.8-0.1-1.5,0.5-1.6,1.2
			c0,0,0,0,0,0.1l0,0c-0.1,1.1-0.5,1.6-1.1,2.2c-0.5,0.5-1,1.1-1.4,1.7c-0.9,1.2-1.7,2.4-2.3,3.7c-1.3,2.7-1.6,5.8-1.4,8.7
			c0.2,3,0.9,5.9,1.4,8.7c0.5,2.9,0.9,5.7,0.8,8.6c0,0.4,0.3,0.8,0.7,0.8C48,48.3,48.4,47.9,48.4,47.5
			C48.4,47.5,48.4,47.5,48.4,47.5L48.4,47.5z"/>
	</g>
	<g clip-path="url(#SVGID_4_)">
		<path fill="#C0A73C" d="M46.9,47.9c0,3,0.5,6,1.1,8.8c0.6,2.9,1.3,5.7,1.7,8.6c0.4,2.8,0.3,5.8-0.8,8.5c-0.5,1.4-1.2,2.6-2.1,3.8
			c-0.5,0.6-0.9,1.1-1.5,1.6c-0.5,0.5-1.1,1-2.2,0.8c-0.8-0.1-1.5,0.5-1.6,1.2c-0.1,0.8,0.5,1.5,1.3,1.6c0.8,0.1,1.5-0.5,1.6-1.2
			c0,0,0,0,0-0.1l0,0c0.1-1.1,0.5-1.6,1.1-2.2c0.5-0.5,1-1.1,1.4-1.7c0.9-1.2,1.7-2.4,2.3-3.7c1.3-2.7,1.6-5.8,1.4-8.7
			c-0.2-3-0.9-5.9-1.4-8.7c-0.5-2.9-0.9-5.7-0.8-8.6c0-0.4-0.3-0.8-0.7-0.8C47.3,47.1,46.9,47.4,46.9,47.9L46.9,47.9L46.9,47.9z"/>
	</g>
	<g clip-path="url(#SVGID_4_)">
		<path fill="#C0A73C" d="M47.5,46.9c-3,0-6,0.5-8.8,1.1c-2.9,0.6-5.7,1.3-8.6,1.7c-2.8,0.4-5.8,0.3-8.5-0.8
			c-1.4-0.5-2.6-1.2-3.8-2.1c-0.6-0.4-1.1-0.9-1.6-1.5c-0.5-0.5-1-1.1-0.8-2.2c0.1-0.8-0.5-1.5-1.2-1.6c-0.8-0.1-1.5,0.5-1.6,1.2
			c-0.1,0.8,0.5,1.5,1.2,1.6c0,0,0,0,0.1,0h0c1.1,0.1,1.6,0.5,2.2,1.1c0.5,0.5,1.1,1,1.7,1.4c1.2,0.9,2.4,1.7,3.8,2.3
			c2.7,1.3,5.8,1.6,8.7,1.4c3-0.2,5.9-0.9,8.7-1.4c2.9-0.5,5.7-0.9,8.6-0.8c0.4,0,0.8-0.3,0.8-0.7C48.3,47.3,47.9,46.9,47.5,46.9
			L47.5,46.9L47.5,46.9z"/>
	</g>
	<g clip-path="url(#SVGID_4_)">
		<path fill="#C0A73C" d="M47.9,48.4c3,0,6-0.5,8.8-1.1c2.9-0.6,5.7-1.3,8.6-1.7c2.8-0.4,5.8-0.3,8.5,0.8c1.4,0.5,2.6,1.2,3.8,2.1
			c0.6,0.4,1.1,0.9,1.6,1.5c0.5,0.5,1,1.1,0.8,2.2c-0.1,0.8,0.5,1.5,1.2,1.6c0.8,0.1,1.5-0.5,1.6-1.2c0.1-0.8-0.5-1.5-1.2-1.6
			c0,0,0,0-0.1,0h0c-1.1-0.1-1.6-0.5-2.2-1.1c-0.5-0.5-1.1-1-1.7-1.4c-1.2-0.9-2.4-1.7-3.7-2.3c-2.7-1.3-5.8-1.6-8.7-1.4
			c-3,0.2-5.9,0.9-8.7,1.4c-2.9,0.5-5.7,0.9-8.6,0.8c-0.4,0-0.8,0.3-0.8,0.7C47.1,48,47.4,48.4,47.9,48.4
			C47.9,48.4,47.9,48.4,47.9,48.4L47.9,48.4z"/>
	</g>
	<g clip-path="url(#SVGID_4_)">
		<path fill="#C0A73C" d="M48.4,47.7c0.9-2.9,1.3-5.8,1.6-8.8c0.3-2.9,0.5-5.8,1-8.7c0.5-2.8,1.5-5.6,3.3-7.9c0.9-1.1,2-2.1,3.2-2.9
			c0.6-0.4,1.2-0.8,1.9-1.1c0.6-0.4,1.4-0.6,2.3-0.2c0.7,0.3,1.5,0,1.9-0.7c0.3-0.7,0-1.6-0.7-1.9c-0.7-0.3-1.6,0-1.9,0.7
			c0,0,0,0,0,0.1l0,0c-0.4,1-1,1.4-1.7,1.7c-0.6,0.3-1.3,0.7-1.9,1.2c-1.2,0.8-2.4,1.8-3.4,2.9c-2,2.2-3.3,5-4,7.9
			c-0.7,2.9-0.9,5.8-1.3,8.7c-0.4,2.9-0.9,5.7-1.8,8.4c-0.1,0.4,0.1,0.8,0.5,1C47.9,48.3,48.3,48.1,48.4,47.7
			C48.4,47.7,48.4,47.7,48.4,47.7L48.4,47.7z"/>
	</g>
	<g clip-path="url(#SVGID_4_)">
		<path fill="#C0A73C" d="M46.9,47.7c-0.9,2.9-1.3,5.8-1.6,8.8c-0.3,2.9-0.5,5.8-1,8.7c-0.5,2.8-1.5,5.6-3.3,7.9
			c-0.9,1.1-2,2.1-3.2,2.9c-0.6,0.4-1.2,0.8-1.9,1.1c-0.6,0.4-1.4,0.6-2.3,0.2c-0.7-0.3-1.5,0-1.9,0.7c-0.3,0.7,0,1.6,0.7,1.9
			c0.7,0.3,1.6,0,1.9-0.7c0,0,0,0,0-0.1l0,0c0.4-1,1-1.4,1.7-1.7c0.6-0.3,1.3-0.7,1.9-1.2c1.2-0.8,2.4-1.8,3.4-2.9
			c2-2.2,3.3-5,4-7.9c0.7-2.9,0.9-5.8,1.3-8.7c0.4-2.9,0.9-5.7,1.8-8.4c0.1-0.4-0.1-0.8-0.5-1C47.5,47,47.1,47.2,46.9,47.7
			C46.9,47.6,46.9,47.6,46.9,47.7L46.9,47.7z"/>
	</g>
	<g clip-path="url(#SVGID_4_)">
		<path fill="#C0A73C" d="M47.7,46.9c-2.9-0.9-5.8-1.3-8.8-1.6c-2.9-0.3-5.8-0.5-8.7-1c-2.8-0.5-5.6-1.5-7.9-3.3
			c-1.1-0.9-2.1-2-2.9-3.2c-0.4-0.6-0.8-1.2-1.1-1.9c-0.4-0.6-0.6-1.4-0.1-2.3c0.3-0.7,0-1.6-0.7-1.9c-0.7-0.3-1.6,0-1.9,0.7
			c-0.3,0.7,0,1.6,0.7,1.9c0,0,0,0,0.1,0l0,0c1,0.4,1.4,1,1.7,1.7c0.3,0.6,0.7,1.3,1.1,1.9c0.8,1.2,1.8,2.4,2.9,3.4
			c2.2,2,5,3.3,7.9,4c2.9,0.7,5.8,0.9,8.7,1.3c2.9,0.4,5.7,0.9,8.4,1.8c0.4,0.1,0.8-0.1,1-0.5C48.3,47.5,48.1,47.1,47.7,46.9
			C47.7,46.9,47.7,46.9,47.7,46.9L47.7,46.9z"/>
	</g>
	<g clip-path="url(#SVGID_4_)">
		<path fill="#C0A73C" d="M47.7,48.4c2.9,0.9,5.8,1.3,8.8,1.6c2.9,0.3,5.8,0.5,8.7,1c2.8,0.5,5.6,1.5,7.9,3.3c1.1,0.9,2.1,2,2.9,3.2
			c0.4,0.6,0.8,1.2,1.1,1.9c0.4,0.6,0.6,1.4,0.1,2.3c-0.3,0.7,0,1.6,0.7,1.9c0.7,0.3,1.5,0,1.9-0.7c0.3-0.7,0-1.6-0.7-1.9
			c0,0,0,0-0.1,0l0,0c-1-0.4-1.4-1-1.7-1.7c-0.3-0.7-0.7-1.3-1.1-1.9c-0.8-1.2-1.8-2.4-2.9-3.4c-2.2-2-5-3.3-7.9-4
			c-2.9-0.7-5.8-0.9-8.7-1.3c-2.9-0.4-5.7-0.9-8.4-1.8c-0.4-0.1-0.8,0.1-1,0.5C47,47.9,47.2,48.3,47.7,48.4
			C47.6,48.4,47.6,48.4,47.7,48.4L47.7,48.4z"/>
	</g>
	<g clip-path="url(#SVGID_4_)">
		<path fill="#C0A73C" d="M48.2,47.1c-1.4-2.7-3.2-5.1-5-7.3c-1.9-2.3-3.8-4.5-5.4-6.8c-1.6-2.4-2.9-5-3.2-7.9
			c-0.2-1.4-0.1-2.9,0.2-4.3c0.1-0.7,0.3-1.4,0.5-2.1c0.2-0.7,0.6-1.4,1.5-1.7c0.7-0.3,1.1-1.1,0.8-1.8c-0.3-0.7-1.1-1.1-1.8-0.8
			c-0.7,0.3-1.1,1.1-0.8,1.8c0,0,0,0,0,0.1l0,0c0.4,1,0.3,1.7,0.1,2.4c-0.2,0.7-0.4,1.4-0.5,2.1c-0.3,1.4-0.4,2.9-0.4,4.4
			c0.1,3,1.2,5.9,2.8,8.4c1.6,2.5,3.5,4.8,5.2,7.1c1.8,2.3,3.4,4.7,4.7,7.2c0.2,0.4,0.6,0.5,1,0.4C48.3,48,48.4,47.6,48.2,47.1
			C48.3,47.2,48.2,47.2,48.2,47.1L48.2,47.1z"/>
	</g>
	<g clip-path="url(#SVGID_4_)">
		<path fill="#C0A73C" d="M47.1,48.2c1.4,2.7,3.2,5.1,5,7.3c1.9,2.3,3.8,4.5,5.4,6.8c1.6,2.4,2.9,5,3.2,7.9c0.2,1.4,0.1,2.9-0.2,4.3
			c-0.1,0.7-0.3,1.4-0.5,2.1c-0.2,0.7-0.6,1.4-1.5,1.7c-0.7,0.3-1.1,1.1-0.8,1.8c0.3,0.7,1.1,1.1,1.8,0.8c0.7-0.3,1.1-1.1,0.8-1.8
			c0,0,0,0,0-0.1l0,0c-0.4-1-0.3-1.7,0-2.4c0.2-0.7,0.4-1.4,0.5-2.1c0.3-1.4,0.4-2.9,0.4-4.4c-0.1-3-1.2-5.9-2.8-8.4
			c-1.6-2.5-3.5-4.8-5.2-7.1c-1.8-2.3-3.4-4.7-4.7-7.2c-0.2-0.4-0.6-0.5-1-0.4C47.1,47.3,46.9,47.8,47.1,48.2
			C47.1,48.2,47.1,48.2,47.1,48.2L47.1,48.2z"/>
	</g>
	<g clip-path="url(#SVGID_4_)">
		<path fill="#C0A73C" d="M47.1,47.1c-2.7,1.4-5.1,3.2-7.3,5c-2.3,1.9-4.5,3.8-6.9,5.4c-2.4,1.6-5,2.9-7.9,3.2
			c-1.4,0.2-2.9,0.1-4.3-0.2c-0.7-0.1-1.4-0.3-2.1-0.5c-0.7-0.2-1.4-0.6-1.7-1.5c-0.3-0.7-1.1-1.1-1.8-0.8c-0.7,0.3-1.1,1.1-0.8,1.8
			c0.3,0.7,1.1,1.1,1.8,0.8c0,0,0,0,0.1,0l0,0c1-0.4,1.7-0.3,2.4-0.1c0.7,0.2,1.4,0.4,2.1,0.5c1.4,0.3,2.9,0.4,4.4,0.4
			c3-0.1,5.9-1.2,8.4-2.8c2.5-1.6,4.8-3.5,7.1-5.2c2.3-1.8,4.7-3.4,7.2-4.7c0.4-0.2,0.5-0.6,0.4-1C48,47.1,47.6,46.9,47.1,47.1
			C47.2,47.1,47.2,47.1,47.1,47.1L47.1,47.1z"/>
	</g>
	<g clip-path="url(#SVGID_4_)">
		<path fill="#C0A73C" d="M48.2,48.2c2.7-1.4,5.1-3.2,7.3-5c2.3-1.9,4.5-3.8,6.9-5.4c2.4-1.6,5-2.9,7.9-3.2c1.4-0.2,2.9-0.1,4.3,0.2
			c0.7,0.1,1.4,0.3,2.1,0.5c0.7,0.2,1.4,0.6,1.7,1.5c0.3,0.7,1.1,1.1,1.8,0.8c0.7-0.3,1.1-1.1,0.8-1.8c-0.3-0.7-1.1-1.1-1.8-0.8
			c0,0,0,0,0,0l0,0c-1,0.4-1.7,0.3-2.4,0.1c-0.7-0.2-1.4-0.4-2.1-0.5c-1.4-0.3-2.9-0.4-4.4-0.4c-3,0.1-5.9,1.2-8.4,2.8
			c-2.5,1.6-4.8,3.5-7.1,5.2c-2.3,1.8-4.7,3.4-7.2,4.7c-0.4,0.2-0.6,0.6-0.4,1C47.3,48.3,47.8,48.4,48.2,48.2
			C48.2,48.3,48.2,48.3,48.2,48.2L48.2,48.2z"/>
	</g>
	<g clip-path="url(#SVGID_4_)">
		<path fill="#383622" d="M42.6,46.2h3.4c5.1,0,9.1-2,9.1-7.8c0-5.4-4-6.9-8.5-6.9c-1.4,0-2.7,0.1-4,0.1c-0.1,1.6-0.1,3.1-0.1,4.6
			V46.2z M71.8,67.1c-2.4-0.2-4.7-0.5-7.1-0.5c-2.1,0-4.2,0.2-6.2,0.5L47.9,49.5h-5.3V55c0,4.8,0.1,7.1,0.2,8.2
			c0.1,0.7,1.1,1.1,2.2,1.6l3.9,1.5v0.8c-3.6-0.2-7.3-0.5-10.9-0.5c-3.6,0-7.3,0.2-10.9,0.5v-0.8l4.9-2.1c1.3-0.5,1.4-0.9,1.4-9.2
			V40.4c0-8-0.2-9-1.7-9.5l-4.6-1.8v-0.8c3.6,0.2,7.3,0.5,10.9,0.5c3.9,0,8.8-0.5,10.8-0.5c7.1,0,17,0.5,17,10
			c0,5.1-3.4,8.5-8.2,9.7l5.4,8.8c4.4,7.1,4.9,7.7,6.5,8.4l2.3,1V67.1z"/>
	</g>
</g>
</svg>
